<svg width="37" height="39" viewBox="0 0 37 39" fill="none" xmlns="http://www.w3.org/2000/svg">
<path d="M21.3747 36.5033C21.4446 36.6735 21.5169 36.8413 21.6031 37.0465C21.1183 37.1211 20.6986 37.184 20.279 37.2493C20.0832 37.2796 19.8571 37.2679 19.6962 37.3635C19.174 37.6759 18.6262 37.6363 18.0994 37.5197C17.6588 38.0605 17.6588 38.0605 17.1342 37.8018C17.1599 37.7132 17.1902 37.6199 17.2088 37.5267C17.2205 37.4684 17.2158 37.4078 17.2228 37.2843C16.703 37.3355 16.2484 37.7109 15.7309 37.6176C15.2133 37.5267 14.7075 37.3658 14.1363 37.219C14.0524 37.3635 13.9685 37.5337 13.8589 37.6852C13.7633 37.8181 13.6561 37.951 13.5232 38.0419C13.1945 38.268 12.7562 38.1328 12.6397 37.7505C12.5348 37.4101 12.5021 37.0488 12.4229 36.6222C11.6116 36.1699 10.7258 35.6734 9.81427 35.1629C9.69072 35.2141 9.54851 35.2748 9.40164 35.3354C9.13122 35.2584 9.25011 34.6966 8.79553 34.8481C8.52744 34.5661 8.22439 34.3096 8.0006 33.9973C7.81643 33.7432 7.59497 33.5637 7.3362 33.4168C6.76739 33.0928 6.33145 32.5449 5.64375 32.419C5.16818 31.9761 4.61336 31.6078 4.59704 30.8338C4.58772 30.4259 4.29398 30.1018 3.93731 29.9013C3.58996 29.7079 3.46408 29.4538 3.37316 29.0598C3.25893 28.5586 2.97686 28.0853 2.71809 27.6261C2.50829 27.2508 2.33111 26.8731 2.19823 26.4582C1.66439 24.782 1.19349 23.0966 1.12821 21.3249C1.12122 21.129 1.07459 20.9332 1.04662 20.7467C0.104815 20.4343 0.165429 20.052 0.801847 19.6441C0.799516 19.1359 0.867116 18.6183 0.687613 18.0961C0.547741 17.6905 0.766879 17.3059 0.969694 16.9725C1.25177 16.5109 1.42894 16.0214 1.51286 15.4922L1.49887 15.5062C1.56415 15.3337 1.65273 15.1635 1.6877 14.9863C1.72267 14.7998 1.70402 14.6017 1.70868 14.4082C1.84389 14.0818 2.091 13.7974 2.17725 13.3615C1.68537 13.6878 1.67372 13.7205 1.73433 14.4268C1.63175 14.4921 1.52918 14.5597 1.39863 14.6436C1.16318 14.4595 1.51286 14.0329 1.13754 13.886C1.11656 13.8767 1.12821 13.6925 1.17251 13.6179C1.38232 13.2496 1.359 12.7833 1.71335 12.464C1.86954 12.3241 1.91616 12.0537 2.00008 11.8369C2.33111 10.9673 2.68778 10.1234 3.49205 9.55229C3.66689 9.42641 3.76947 9.18862 3.88369 8.99047C4.1378 8.54987 4.49913 8.21651 4.91408 7.93677C4.98169 7.89015 5.09125 7.90413 5.28474 7.87383C5.15886 8.10928 5.06095 8.26314 4.98868 8.42865C4.84182 8.76435 4.40821 8.83894 4.31263 9.25157C4.23337 9.59425 4.00025 9.89731 3.87203 10.2307C3.81842 10.3705 3.86271 10.5454 3.86504 10.7086C3.70885 10.7948 3.5107 10.8438 3.40113 10.972C3.24961 11.1468 3.12372 11.2937 2.88361 11.3846C2.69944 11.4546 2.55257 11.69 2.45 11.8835C2.32878 12.1119 2.25185 12.3707 2.19124 12.6248C2.1586 12.7554 2.23554 12.8766 2.41271 12.8579C2.68779 12.6365 2.68545 12.1749 3.09341 12.07L3.0701 12.0537C2.90692 12.4803 2.73908 12.9069 2.58055 13.3358C2.49197 13.5783 2.39405 13.8231 2.34976 14.0772C2.32645 14.2147 2.33345 14.4175 2.56423 14.4455C2.99318 14.1028 2.65282 13.2566 3.46407 13.1843C3.30788 12.6062 3.39181 12.1143 3.73449 11.669C3.8324 11.5408 3.90234 11.3869 3.96062 11.2354C4.03988 11.0326 3.97228 10.8484 3.83241 10.6899C4.03755 10.7039 4.30098 10.4405 4.38723 10.8438C4.71827 10.6456 4.50146 9.96025 5.1845 10.1188C4.98868 10.5617 4.79985 10.972 4.62268 11.3846C4.4898 11.6923 4.49446 11.6947 4.65065 12.2728C5.09125 12.1796 4.82316 11.5198 5.364 11.4219C5.371 11.7553 5.26843 12.0257 5.16352 12.2891C4.97236 12.7763 4.77188 13.2612 4.54808 13.7345C4.48747 13.8604 4.31963 13.9326 4.20307 14.0282C4.27534 14.1448 4.34294 14.252 4.39889 14.3406C4.35693 14.6017 4.11681 14.4874 4.00725 14.625C4.00725 14.6483 3.98627 14.7415 4.00725 14.7532C4.20074 14.8488 4.31729 14.9793 4.28699 15.2101C4.25668 15.4386 4.22638 15.667 4.21939 15.8978C4.21006 16.2079 4.28932 16.4853 4.59005 16.6508L4.59471 16.6461C4.29165 16.6508 4.20773 16.8932 4.17742 17.11C4.14478 17.3268 4.20773 17.5576 4.23337 17.8187C4.7579 17.6462 4.76721 17.131 5.01432 16.8116C5.18916 16.5879 5.12156 16.2452 4.97004 15.9701L4.96071 15.9911C5.08892 15.9631 5.21481 15.9351 5.37333 15.9002C5.5132 16.1286 5.64608 16.3454 5.78362 16.5669C5.80693 16.5133 5.8489 16.4643 5.8419 16.42C5.76963 15.9025 5.48523 15.4176 5.58081 14.9047C6.62985 14.0655 7.86072 14.0189 9.1289 13.9116C9.26411 14.1448 9.42962 14.3522 9.51588 14.59C9.92617 15.7276 10.7048 16.6298 11.4088 17.5763C11.5673 17.7908 11.7282 17.9493 11.7328 18.2383C11.7352 18.3339 11.945 18.4248 12.1431 18.5834C12.29 18.1125 12.325 17.7255 12.3739 17.3432C12.5604 15.8349 12.7353 14.3243 12.9427 12.8183C13.0337 12.1632 13.1875 11.5175 13.3321 10.8718C13.388 10.6153 13.4603 10.3542 13.5792 10.1211C14.0314 9.22592 14.6841 8.94152 15.6353 9.28887C16.6563 9.66419 17.6541 10.1094 18.6752 10.5314C19.1297 10.5104 19.0831 10.0092 19.3559 9.75044C20.5541 9.53131 21.7687 9.64321 22.9786 9.87866C23.1744 9.91596 23.3655 9.97191 23.5637 9.99056C24.3726 10.0605 24.8389 10.6153 25.2608 11.2051C25.5266 11.5804 25.7294 12.0001 25.9555 12.4033C26.1397 12.7297 26.2632 13.0398 25.9508 13.3894C25.8436 13.5107 25.8413 13.7601 25.8576 13.9466C25.9042 14.4758 25.8832 14.998 25.776 15.5178C25.6198 16.2825 25.7434 17.0308 25.8739 17.7814C25.9182 18.0355 25.9672 18.3083 25.9229 18.5554C25.8366 19.0286 25.8972 19.4785 25.9928 19.9355C26.114 20.5276 26.114 20.5276 26.832 20.6884C26.895 21.0777 26.881 21.4484 26.7318 21.8401C26.6199 22.1315 26.6595 22.4811 26.6362 22.8028C26.6339 22.8331 26.6409 22.8798 26.6618 22.8938C27.1747 23.2714 27.0092 23.9311 27.2936 24.4044C27.613 24.9336 27.5803 25.4744 27.3472 26.0222C27.2213 26.3206 27.1025 26.6213 26.9766 26.9361C25.9835 26.3789 25.3284 25.5723 24.8086 24.6445C24.6664 24.3881 24.5941 24.092 24.4985 23.8122C24.3167 23.2831 24.1465 22.7492 23.7245 22.2993C23.0042 22.5674 22.2978 22.8308 21.5449 23.1106C21.3281 23.9684 21.0017 24.796 20.9341 25.6912C20.9224 25.852 20.9154 26.0362 20.8339 26.1668C20.687 26.4069 20.6613 26.6423 20.6613 26.9174C20.6613 27.1342 20.5448 27.3603 20.4445 27.5655C20.335 27.7916 20.0739 27.8895 19.8547 27.7706C19.6589 27.6657 19.4631 27.5235 19.3232 27.351C18.7288 26.6213 18.5866 25.7285 18.5376 24.8356C18.4537 23.2807 18.4281 21.7235 18.3768 20.1686C18.3721 20.0031 18.3558 19.8352 18.3744 19.672C18.5469 18.0542 18.463 16.4293 18.5376 14.8115C18.5679 14.1494 18.6262 13.4874 18.7241 12.8346C18.7987 12.3451 18.7777 11.8951 18.449 11.4242C18.3768 11.5338 18.2835 11.6201 18.2509 11.7273C17.7287 13.3731 17.4536 15.0749 17.1832 16.772C17.0946 17.3222 17.1436 17.8957 17.1552 18.4598C17.1855 19.8282 16.9967 21.1593 16.612 22.4741C16.4652 22.973 16.3952 23.5255 16.4372 24.0407C16.5071 24.8846 16.3789 25.6912 16.1831 26.4978C16.0432 27.0759 15.9034 27.6564 15.7565 28.2345C15.6842 28.5166 15.5071 28.7031 15.211 28.7381C14.2599 28.8546 13.3157 29.0644 12.269 28.9759C11.8354 28.4886 11.3575 27.9851 10.9216 27.4466C10.4623 26.8801 10.0474 26.2787 9.60679 25.7005C9.35036 25.3625 9.14055 24.9965 8.83283 24.6841C8.55542 24.402 8.47149 23.9381 8.278 23.5698C7.92366 22.8961 7.53669 22.2387 7.19167 21.5603C6.83266 20.8516 6.51095 20.1243 6.16827 19.4086C6.07036 19.2035 5.95613 19.0053 5.85123 18.8048C5.19383 19.1778 5.19383 19.1778 4.639 19.1918C4.35926 19.6394 4.36392 20.115 4.45717 20.6162C4.54809 21.1034 4.57839 21.6023 4.66231 22.0942C4.72992 22.4835 4.79286 22.8821 4.9374 23.2481C5.08193 23.6164 5.27775 23.9545 5.27775 24.3741C5.27775 24.5186 5.41063 24.6655 5.48756 24.8077C5.53419 24.8939 5.64142 24.9825 5.62976 25.0571C5.5505 25.6189 5.87687 26.0688 6.00042 26.5701C6.13097 27.1039 6.49464 27.4769 6.70212 27.9525C6.828 28.2439 7.06578 28.491 7.10308 28.8337C7.12406 29.0318 7.26393 29.0691 7.42945 29.1367C7.53668 29.1787 7.59263 29.3931 7.63226 29.54C7.67189 29.6892 7.60895 29.8897 7.68588 30.0016C8.28733 30.8735 8.91209 31.7313 9.93549 32.1649C9.96113 32.1766 10.0008 32.1556 10.0451 32.1486C10.4297 31.778 9.64642 31.5588 9.86322 31.2674C10.0917 31.4306 10.3295 31.5961 10.5929 31.7826C10.7258 31.7173 10.8423 31.6707 10.9496 31.6078C11.1734 31.4749 11.4065 31.5635 11.4228 31.757C11.4508 32.0997 11.9193 32.1906 11.8284 32.5892C11.8121 32.6661 12.0336 32.8387 12.1734 32.9039C12.8332 33.2116 13.4836 33.5497 14.1713 33.7735C14.6305 33.925 15.0688 34.2257 15.5956 34.1325L15.5677 34.1092C16.2647 34.5451 16.2297 34.5731 17.7567 33.7618C17.8359 33.8014 17.9571 33.8248 18.0038 33.8947C18.1646 34.1371 18.3651 34.235 18.6612 34.235C19.8081 34.235 20.9621 34.3889 22.0857 34.0252C22.6009 34.1488 23.0555 33.6639 23.601 33.8854C23.7036 33.9273 23.9157 33.7082 24.1395 33.5707C24.2094 33.6336 24.305 33.7828 24.4309 33.8201C24.5754 33.862 24.7503 33.8038 24.9601 33.7828C24.8528 33.5543 24.7689 33.3772 24.6407 33.0974C24.9344 33.2256 25.1093 33.3026 25.2841 33.3795L25.2608 33.3492C25.459 33.566 25.5172 33.5613 25.6921 33.3096L25.6548 33.3375C25.8832 33.2932 26.1303 33.2909 26.2749 33.0578L26.2376 33.0858C26.4008 33.0391 26.5919 33.0321 26.6502 32.82L26.6176 32.8526C26.7808 32.806 26.9906 32.827 27.0255 32.5846L26.9929 32.6172C27.4894 32.5379 27.9044 32.3328 28.1608 31.8759L28.1468 31.9085C28.3566 31.7523 28.5734 31.6055 28.7716 31.4329C29.0816 31.1625 29.3357 30.8571 29.1353 30.3746C29.6411 30.1508 30.0141 29.8501 30.3428 29.4771C30.6902 29.0854 31.0725 28.7218 31.4735 28.3837C31.8791 28.041 32.2451 27.6774 32.4409 27.1738C32.4526 27.1435 32.4759 27.1156 32.5015 27.0969C33.5436 26.3253 33.7044 25.1131 34.0541 23.9964C34.2522 23.367 34.4504 22.7376 34.6346 22.1058C34.6975 21.889 34.7418 21.6582 34.7441 21.4344C34.7511 20.7421 34.7488 20.0497 34.7185 19.3573C34.6998 18.9284 34.6346 18.5018 34.5693 18.0752C34.518 17.7535 34.3688 17.4457 34.483 17.1007C34.518 16.9935 34.4714 16.842 34.4248 16.7254C33.8723 15.3127 33.3104 13.9023 32.7556 12.4896C32.7206 12.401 32.674 12.2518 32.7136 12.2099C33.1263 11.7972 32.7789 11.732 32.4735 11.5828C32.3547 11.5245 32.2824 11.3123 32.2427 11.1562C32.005 10.219 31.8511 9.96258 31.0911 9.33316C30.9769 9.48935 30.8627 9.64321 30.7508 9.79707C30.5829 9.70615 30.4151 9.61523 30.2449 9.52199L30.2822 9.55229C30.0584 9.01612 29.6574 8.62681 29.2005 8.29344C28.6131 7.86683 28.0116 7.45654 27.4148 7.04159C27.3076 6.96699 27.198 6.8784 27.0768 6.83644C26.6595 6.69657 26.3029 6.46811 26.0045 6.14641C25.8599 5.99255 25.6781 5.89697 25.4729 5.95991C25.2888 6.01819 25.1256 6.13242 24.9274 5.99022C24.5125 5.69182 23.8831 5.73378 23.587 5.05307C23.6663 4.99479 23.7945 4.90155 23.9577 4.78265C23.2723 4.5099 22.6615 4.2185 21.9691 4.06698C20.8805 3.82686 19.7615 3.7173 18.6985 3.34197C18.0644 3.11818 17.3907 3.26038 16.7146 3.25339C17.02 3.18578 17.3254 3.11818 17.6191 3.05524C17.6634 2.7988 17.6984 2.58433 17.7404 2.33956C17.6751 2.3279 17.5772 2.28128 17.5072 2.30692C17.3604 2.36287 17.1879 2.42814 17.0969 2.5447C16.6424 3.11818 16.0642 3.30234 15.3555 3.19044C15.2017 3.16713 15.0152 3.17646 14.88 3.24173C14.6026 3.37927 14.3508 3.52614 14.1037 3.20909C13.7447 3.24173 13.3857 3.27204 13.0267 3.30467L13.0476 3.32099C13.0989 3.13916 13.0943 2.89205 13.2132 2.78715C13.3973 2.62629 13.6025 2.42115 13.9079 2.47243C14.0151 2.49108 14.3531 2.27661 14.5023 2.16705C14.7121 2.01086 14.9266 1.857 15.155 1.72645C15.2833 1.65185 15.3345 1.58192 15.3392 1.42573C15.3439 1.28585 15.4604 1.22058 15.626 1.25788C16.0829 1.35812 16.4419 1.20426 16.71 0.81262C16.1598 0.863906 15.6236 0.915193 15.0571 0.96881C14.9569 0.731028 15.232 0.628455 15.3462 0.605143C16.1435 0.439628 16.8941 0.0969411 17.724 0.0409923C19.2603 -0.0639117 20.7662 0.0060243 22.2232 0.565512C22.531 0.684404 22.8457 0.791639 23.1581 0.898874C24.9904 1.51897 26.7015 2.37686 28.2774 3.49816C28.6807 3.7849 29.0583 4.11127 29.4383 4.43064C29.7903 4.72904 30.1074 5.0624 30.5526 5.2489C30.7834 5.34447 30.9699 5.56827 31.1517 5.7571C32.2824 6.92503 33.3291 8.15823 34.1334 9.58027C34.2126 9.72247 34.3315 9.84136 34.4387 9.9789C34.5483 9.9789 34.6416 9.97424 34.7348 9.97657C35.4178 9.99056 35.6976 10.3869 35.4412 10.9976C35.3805 11.1422 35.264 11.2634 35.1404 11.4406C36.2594 13.3452 36.8236 15.385 36.742 17.8327C36.6068 17.504 36.5275 17.3968 36.5205 17.2872C36.4809 16.4456 36.2081 15.667 35.9191 14.8884C35.665 14.2077 35.4132 13.5247 35.1567 12.8439C35.0985 12.6901 34.9866 12.6691 34.8537 12.7577C34.8444 12.6971 34.8304 12.6388 34.8164 12.5805C34.8304 12.6341 34.8467 12.6854 34.8607 12.739C35.0915 13.464 35.3199 14.189 35.5484 14.9141C35.5787 15.0096 35.581 15.1239 35.6393 15.1961C36.1475 15.8232 36.0659 16.6205 36.2757 17.3338C36.1382 18.3596 36.4319 19.369 36.3853 20.39C36.3433 21.2782 36.4179 22.1711 36.2361 23.0523C36.2291 23.0849 36.2408 23.1222 36.2268 23.1502C35.9121 23.8169 36.0006 24.5629 35.8025 25.2529C35.6953 25.6283 35.651 26.0409 35.271 26.2787C35.1055 26.8358 34.6276 27.2648 34.6555 27.9105C34.6649 28.1459 34.497 28.3884 34.4131 28.6145C34.2173 28.6052 34.0914 28.6005 33.9795 28.5959C33.4153 29.2486 32.8489 29.8897 32.301 30.5448C31.9001 31.025 31.5201 31.5262 31.1308 32.0157L31.1587 31.9854C31.0189 32.0694 30.8394 32.1253 30.7484 32.2442C30.2123 32.9436 29.4826 33.4098 28.7646 33.8737C27.9044 34.4285 27.0162 34.9437 26.1117 35.424C25.2375 35.8902 24.2561 36.0441 23.3026 36.2585C23.1954 36.2818 23.0671 36.2026 22.9483 36.1793C22.7291 36.135 22.5077 36.1 22.3328 36.0674C22.1417 36.1886 22.3981 36.3914 22.1417 36.4683C21.8922 36.5429 21.6218 36.2212 21.4073 36.5313C21.1929 36.4287 20.9784 36.3238 20.7126 36.1933C20.6124 36.4031 20.5331 36.5686 20.4399 36.7621C20.6334 36.8297 20.7826 36.8949 20.9411 36.9322C21.2535 37.0045 21.3094 36.9416 21.3747 36.5033ZM26.6455 33.7292C26.7621 33.6429 26.8787 33.5543 26.9952 33.4681C27.0815 33.3585 27.1677 33.2513 27.254 33.1417C27.4148 33.1277 27.62 33.1907 27.634 32.9202C27.8158 32.869 27.9976 32.8177 28.1795 32.7641C28.1958 32.6941 28.2098 32.6242 28.2261 32.5519C28.2004 32.5659 28.1562 32.5799 28.1562 32.5915C28.1585 32.6475 28.1748 32.7034 28.1818 32.7594C28.0023 32.8014 27.7762 32.7128 27.6619 32.9436C27.5361 33.0182 27.4102 33.0904 27.2843 33.165C27.1118 33.1953 27.0139 33.2886 27.0092 33.4681C26.8274 33.4518 26.6549 33.4494 26.6502 33.7012C26.5873 33.7758 26.5243 33.8457 26.4963 33.6802C26.5453 33.6989 26.5943 33.7129 26.6455 33.7292ZM23.1837 21.1873C22.8713 20.1942 22.6732 19.8539 22.1207 19.362C21.9155 20.1056 21.6964 20.8143 21.7477 21.572C21.75 21.6186 21.8363 21.6582 21.8876 21.7048C22.3608 21.6862 22.7478 21.4531 23.1837 21.1873ZM29.7787 8.1186C29.823 8.05566 29.8533 8.03002 29.8603 7.99971C29.9558 7.55212 29.2495 7.35397 29.4966 6.8481C29.5013 6.83877 29.3474 6.71522 29.2588 6.70123C29.042 6.6686 28.8182 6.67093 28.4942 6.65228C28.9045 7.26072 29.3078 7.71531 29.7787 8.1186ZM30.1796 6.78282C30.4361 6.95067 30.6412 7.09054 30.851 7.21643C30.8767 7.23042 30.9466 7.17447 30.9932 7.14882C30.6995 6.64762 30.6995 6.64762 30.1796 6.78282ZM34.7581 23.1595C34.8607 22.8844 34.912 22.8028 34.9166 22.7166C34.9213 22.6443 34.87 22.5674 34.8444 22.4928C34.7861 22.5557 34.6975 22.6117 34.6765 22.6839C34.6555 22.7632 34.7022 22.8588 34.7581 23.1595ZM18.6146 2.27661C18.5609 2.30459 18.4607 2.34422 18.4654 2.36054C18.4817 2.43747 18.5096 2.5517 18.5656 2.57501C18.6402 2.60531 18.7498 2.57967 18.8337 2.5517C18.8593 2.54237 18.8826 2.41415 18.864 2.40017C18.7917 2.34422 18.6985 2.31391 18.6146 2.27661ZM29.6528 5.64986C29.6062 5.61956 29.5619 5.58925 29.5152 5.55894C29.443 5.66152 29.366 5.76176 29.3008 5.86899C29.2914 5.88531 29.3124 5.94592 29.3334 5.95292C29.3824 5.97157 29.4733 5.99255 29.4873 5.97157C29.5526 5.87133 29.5992 5.7571 29.6528 5.64986ZM1.53384 22.663C1.60844 22.6746 1.68304 22.6839 1.75764 22.6956C1.71102 22.4042 1.66439 22.1128 1.61777 21.8237C1.56415 21.8307 1.51053 21.8401 1.45458 21.847C1.48255 22.1175 1.5082 22.3902 1.53384 22.663ZM3.67855 18.3432C3.65757 18.4435 3.60162 18.5507 3.62959 18.6277C3.65058 18.6813 3.78578 18.6929 3.87203 18.7116C3.8767 18.7139 3.93032 18.602 3.914 18.581C3.84873 18.4948 3.7648 18.4248 3.67855 18.3432ZM21.7104 2.59832C20.8991 2.46078 20.0855 2.32324 19.2743 2.1857C19.976 2.40716 20.6497 2.63562 21.3933 2.8431C21.743 2.94101 22.2279 2.99462 22.6522 3.06689C22.3398 2.91303 22.0251 2.75684 21.7104 2.59832ZM28.5781 6.19536C28.6667 6.24665 28.7436 6.29327 28.8229 6.3399C28.8369 6.31425 28.8718 6.26996 28.8648 6.26297C28.8112 6.20469 28.7529 6.15107 28.6923 6.10211C28.6877 6.09978 28.648 6.13941 28.5781 6.19536ZM29.2075 31.9505C29.2285 31.9272 29.2518 31.9038 29.2728 31.8805C29.2192 31.8642 29.1656 31.8386 29.1096 31.8316C29.0886 31.8292 29.0653 31.8712 29.042 31.8945C29.098 31.9132 29.1516 31.9318 29.2075 31.9505ZM1.75064 17.11C1.75297 17.0634 1.75531 17.0168 1.75764 16.9702C1.70169 16.9865 1.64807 17.0028 1.59212 17.0191C1.61077 17.0611 1.6201 17.11 1.64807 17.1427C1.6574 17.152 1.71567 17.1217 1.75064 17.11ZM25.8203 33.9926C25.797 33.9879 25.7737 33.9833 25.7527 33.9786C25.769 34.0019 25.7853 34.0229 25.7993 34.0462C25.8063 34.0299 25.8133 34.0112 25.8203 33.9926ZM18.2812 35.72C18.2346 35.6944 18.1903 35.6664 18.139 35.6501C18.1273 35.6478 18.0877 35.692 18.0854 35.7154C18.0854 35.7387 18.1227 35.7853 18.1343 35.783C18.1856 35.7713 18.2322 35.7433 18.2812 35.72ZM26.494 4.64045C26.473 4.6591 26.4287 4.68941 26.4334 4.6964C26.4544 4.74069 26.487 4.78265 26.5173 4.82462C26.5336 4.77799 26.557 4.7337 26.5663 4.68708C26.5639 4.67542 26.5173 4.65677 26.494 4.64045ZM3.56898 17.3455H3.70186L3.62959 17.1753L3.56898 17.3455ZM21.1626 1.82902C21.4306 1.85234 21.6964 1.87798 21.9645 1.90129C21.7523 1.7824 21.5519 1.65185 21.3211 1.55161C21.2138 1.50499 21.0483 1.51897 20.9085 1.50499C20.9947 1.61222 21.0786 1.72179 21.1626 1.82902ZM23.4052 2.05282C23.3772 2.09944 23.3516 2.1484 23.3236 2.19502C23.4308 2.2603 23.538 2.3279 23.6476 2.38851C23.6639 2.39784 23.7245 2.36986 23.7292 2.35121C23.7432 2.29993 23.7595 2.20901 23.7385 2.19735C23.6336 2.13674 23.5171 2.09944 23.4052 2.05282ZM24.4892 2.81046C25.0184 3.01327 25.4893 3.19511 25.9602 3.37461C26.0837 3.36762 26.3425 3.36762 26.3075 3.34897C26.0138 3.19511 25.6758 3.03659 25.3168 2.87806C25.2864 2.86874 24.9927 2.85242 24.4892 2.81046ZM21.0227 35.0719C20.6916 35.1372 20.363 35.2002 20.0343 35.2654C19.7592 35.3937 19.4818 35.5219 19.2067 35.6501C18.8267 35.5452 18.4001 35.2701 18.1763 35.7457C17.7217 35.6944 17.2671 35.6408 16.8125 35.5895C16.7263 35.7037 16.64 35.8203 16.5514 35.9345C16.6167 35.9298 16.7333 35.9415 16.7426 35.9182C16.7776 35.8156 16.7822 35.7014 16.8079 35.5918C17.2508 35.6594 17.7054 35.9998 18.132 35.6757C18.4747 35.6431 18.8174 35.6105 19.1577 35.5755C19.5727 35.6594 19.8664 35.5662 20.0086 35.2491C20.4142 35.4263 20.8059 35.5685 20.997 35.1162C21.1929 35.0323 21.3863 34.9554 21.3351 35.2794C21.2302 35.2095 21.1276 35.1395 21.0227 35.0719ZM23.6499 35.3051C23.8155 35.2701 24.0486 35.2188 24.3237 35.1465C25.9089 34.7269 27.0955 34.0858 27.0838 34.0579C27.0791 34.0462 26.895 34.1301 26.2166 34.3609C26.2166 34.3609 25.8972 34.4682 25.5336 34.5847C24.9857 34.7596 23.7455 35.1116 22.0904 35.5265C22.6102 35.4519 23.1301 35.3797 23.6499 35.3051Z" fill="#A3FB22"/>
<path d="M29.6178 12.9373C30.1493 13.4152 30.1773 14.0214 30.0048 14.5878C29.76 15.3968 29.732 16.208 29.7227 17.0379C29.7064 18.3597 29.6551 19.6815 29.6365 21.0033C29.6295 21.4649 29.7017 21.9288 29.7064 22.3904C29.7157 23.4138 29.7157 24.4395 29.6994 25.4629C29.6971 25.654 29.6248 25.8545 29.5409 26.0294C29.3194 26.4933 28.7436 26.5982 28.3799 26.2299C28.2214 26.0713 28.1002 25.8592 28.0093 25.6517C27.7249 25.0106 27.5687 24.3392 27.55 23.6352C27.5174 22.4113 27.4708 21.1875 27.4405 19.9636C27.4358 19.7351 27.4824 19.5043 27.5104 19.2759C27.5733 18.7514 27.6106 18.2315 27.536 17.6953C27.3705 16.4948 27.6386 15.3268 27.8997 14.1636C27.9347 14.012 28.0256 13.8255 28.1468 13.7486C28.6177 13.4642 29.1119 13.2124 29.6178 12.9373Z" fill="#A3FB22"/>
<path d="M33.089 14.9979C33.6578 15.9444 33.6112 17.0004 33.5809 18.0075C33.5576 18.7791 33.2661 19.5507 33.0493 20.3084C32.9701 20.5834 32.7906 20.8469 32.6064 21.0707C32.3243 21.4134 31.8954 21.4157 31.5527 21.122C31.2916 20.8982 31.1378 20.6114 31.0608 20.2804C30.8534 19.3782 30.6366 18.476 30.4407 17.5692C30.2985 16.9048 30.2985 16.2544 30.6948 15.6553C31.217 14.8673 31.8767 14.6272 32.8279 14.8953C32.9211 14.9233 33.012 14.9676 33.089 14.9979Z" fill="#A3FB22"/>
<path d="M30.2542 9.51959C30.3172 9.73639 30.3545 9.96485 30.4454 10.17C30.7648 10.895 29.9512 11.958 29.3311 12.1119C28.697 12.2681 27.9743 11.6643 28.0373 10.9906C28.0839 10.4964 28.2354 10.0255 28.5548 9.62916C28.9208 9.17224 29.3054 9.08366 29.8579 9.3261C30.0071 9.39138 30.147 9.4753 30.2915 9.55223C30.2915 9.5499 30.2542 9.51959 30.2542 9.51959Z" fill="#A3FB22"/>
<path d="M33.5249 23.099C33.5809 23.6421 33.5575 24.0641 33.2871 24.4417C33.0167 24.8171 32.6134 24.9919 32.1612 24.8893C31.7112 24.7868 31.5038 24.4417 31.4408 24.0338C31.3452 23.4113 31.5224 22.8425 31.9653 22.3903C32.5365 21.8075 33.2568 22.0173 33.4736 22.8122C33.5086 22.9404 33.5202 23.0733 33.5249 23.099Z" fill="#A3FB22"/>
<path d="M6.6648 25.0476C7.06577 25.0126 7.37582 25.1641 7.47373 25.4439C7.57397 25.7283 7.40146 26.2295 7.1427 26.395C6.9935 26.4906 6.64149 26.4743 6.49462 26.3437C6.2312 26.1106 6.13562 25.8075 6.18458 25.4649C6.21488 25.2551 6.44567 25.0662 6.6648 25.0476Z" fill="#A3FB22"/>
<path d="M20.0039 29.8781C20.5518 30.0087 20.8339 30.3071 20.8945 30.8153C20.9271 31.088 20.7429 31.3258 20.4702 31.3771C20.0249 31.4587 19.6146 31.0484 19.7312 30.6194C19.7965 30.377 19.9037 30.1439 20.0039 29.8781Z" fill="#A3FB22"/>
<path d="M31.1378 32.0159C31.2613 32.0136 31.3872 32.0136 31.5457 32.0113C30.9862 32.9274 30.3032 33.6128 29.6435 33.9112C29.8043 33.5196 30.1284 33.3354 30.3731 33.0883C30.6972 32.7619 31.0585 32.4659 31.1657 31.9856L31.1378 32.0159Z" fill="#A3FB22"/>
<path d="M11.9077 3.59846C12.1151 3.73134 12.3016 3.8549 12.4881 3.97379C12.3459 4.2139 12.2527 4.44003 11.9403 4.32114C11.875 4.29549 11.7748 4.30715 11.7095 4.33979C11.5836 4.40739 11.4601 4.46101 11.3715 4.31414C11.2643 4.1393 11.3459 4.00176 11.4974 3.89453C11.6279 3.80128 11.7585 3.7057 11.9077 3.59846Z" fill="#A3FB22"/>
<path d="M11.4834 30.6149C11.2829 30.3445 11.0708 30.074 10.8843 29.7873C10.854 29.7407 10.9099 29.5938 10.9682 29.5402C11.0288 29.4842 11.157 29.44 11.2293 29.4633C11.5254 29.5588 11.7958 30.1859 11.6816 30.4937C11.6652 30.5379 11.5813 30.5566 11.4834 30.6149Z" fill="#A3FB22"/>
<path d="M11.1034 3.65456C10.5066 4.28631 10.0171 4.61734 9.36434 4.87378C9.40864 4.72458 9.41331 4.59869 9.4576 4.58471C9.89586 4.43551 10.2176 4.12779 10.5533 3.83173C10.6325 3.76179 10.7724 3.75713 11.1034 3.65456Z" fill="#A3FB22"/>
<path d="M34.1543 18.4504C34.131 18.9656 33.9678 19.5041 34.3874 19.9424C34.2243 20.0473 34.117 20.1172 33.9772 20.2082C33.9795 19.8864 33.9888 19.5997 33.9818 19.3153C33.9748 19.0332 33.9492 18.7512 33.9305 18.4691C34.0051 18.4621 34.0797 18.4551 34.1543 18.4504Z" fill="#A3FB22"/>
<path d="M0.452165 19.6766C0.375235 19.0751 -0.170271 18.5809 0.0535242 17.8629C0.615344 18.4131 0.396216 19.0868 0.452165 19.6766Z" fill="#A3FB22"/>
<path d="M7.78379 27.0271C7.91667 27.2159 8.04721 27.3278 8.07519 27.463C8.11482 27.6495 7.89336 27.836 7.69753 27.8011C7.52969 27.7731 7.35019 27.6659 7.40613 27.4863C7.45276 27.3302 7.62294 27.2136 7.78379 27.0271Z" fill="#A3FB22"/>
<path d="M18.4467 38.9998C18.2719 38.8343 18.0947 38.7434 18.0877 38.6408C18.0784 38.522 18.1903 38.3448 18.2998 38.2795C18.449 38.1909 18.6565 38.2865 18.6705 38.4474C18.6845 38.5919 18.5539 38.7527 18.4467 38.9998Z" fill="#A3FB22"/>
<path d="M31.8884 12.3893C31.6506 12.0676 31.3989 11.8601 31.4362 11.3613C31.6669 11.7086 31.8255 11.9464 31.977 12.1865C31.9863 12.1982 31.956 12.2378 31.8884 12.3893Z" fill="#A3FB22"/>
<path d="M25.7177 36.1957C25.375 36.4755 25.072 36.6457 24.678 36.5827C24.6081 36.3543 24.7666 36.2657 24.9088 36.24C25.1512 36.1981 25.4007 36.2097 25.7177 36.1957Z" fill="#A3FB22"/>
<path d="M14.6818 31.6612C14.6212 31.7311 14.5489 31.871 14.437 31.9363C14.3135 32.0085 14.099 31.85 14.1107 31.6938C14.12 31.5913 14.1993 31.456 14.2855 31.4048C14.4254 31.3208 14.6189 31.4327 14.6818 31.6612Z" fill="#A3FB22"/>
<path d="M28.8275 1.69166C28.6504 1.86884 28.5664 2.00638 28.4476 2.05533C28.31 2.11361 28.0979 1.92945 28.1329 1.79191C28.1608 1.687 28.2611 1.53314 28.345 1.52382C28.4662 1.50983 28.5991 1.60541 28.8275 1.69166Z" fill="#A3FB22"/>
<path d="M25.2888 33.377C25.3564 33.2768 25.403 33.1253 25.4986 33.0833C25.8692 32.9178 26.2539 32.7873 26.6339 32.6427L26.6013 32.6194C26.6082 32.694 26.6129 32.7709 26.6199 32.8455L26.6525 32.8129C26.48 32.8479 26.2655 32.8152 26.2399 33.0787L26.2772 33.0507C26.0301 33.053 25.7923 33.0763 25.6571 33.3304L25.6944 33.3024C25.5499 33.3164 25.4077 33.3281 25.2631 33.3421C25.2655 33.3491 25.2888 33.3794 25.2888 33.377Z" fill="#A3FB22"/>
<path d="M8.84449 30.5493C9.03098 30.7171 9.21747 30.8827 9.40164 31.0552C9.42029 31.0715 9.4133 31.1134 9.42029 31.1507C9.28975 31.3606 9.14055 31.209 9.04264 31.1321C8.90277 31.0249 8.80019 30.8663 8.6813 30.7311C8.74424 30.6775 8.80952 30.6262 8.87246 30.5726C8.87246 30.5749 8.84449 30.5493 8.84449 30.5493Z" fill="#A3FB22"/>
<path d="M19.2743 31.2044C19.2906 31.4492 19.1391 31.6077 18.9712 31.561C18.8687 31.5331 18.7521 31.4305 18.7125 31.3326C18.6542 31.1904 18.8244 30.9573 18.9572 30.9922C19.0878 31.0295 19.1974 31.1508 19.2743 31.2044Z" fill="#A3FB22"/>
<path d="M1.51751 15.4924C1.36598 15.6393 1.21679 15.7861 1.0233 15.9726C0.902073 15.6532 0.953362 15.4178 1.20047 15.2126C1.31004 15.3222 1.40562 15.4178 1.5012 15.5087C1.50586 15.504 1.51751 15.4924 1.51751 15.4924Z" fill="#A3FB22"/>
<path d="M1.33801 27.7962C1.46389 27.9874 1.59444 28.1016 1.6061 28.2251C1.62008 28.393 1.47789 28.5072 1.29838 28.5189C1.14452 28.5305 0.96735 28.3464 1.01864 28.2018C1.06526 28.0759 1.19114 27.978 1.33801 27.7962Z" fill="#A3FB22"/>
<path d="M33.4293 2.1577C33.5715 2.35119 33.6928 2.45609 33.7231 2.58198C33.7371 2.63793 33.5762 2.79179 33.4806 2.80344C33.392 2.8151 33.2032 2.68455 33.2102 2.6356C33.2242 2.50039 33.3221 2.3745 33.4293 2.1577Z" fill="#A3FB22"/>
<path d="M4.97703 15.9727C4.86746 15.7792 4.73691 15.595 4.65998 15.3899C4.63201 15.3129 4.72992 15.1894 4.80452 15.0006C5.10757 15.3666 4.96071 15.6883 4.9677 15.989C4.9677 15.9937 4.97703 15.9727 4.97703 15.9727Z" fill="#A3FB22"/>
<path d="M7.6136 23.1384C7.51569 23.255 7.46907 23.3622 7.40612 23.3739C7.22429 23.4089 7.10307 23.2923 7.0751 23.1245C7.06577 23.0639 7.18699 22.9193 7.2103 22.9286C7.33619 22.9706 7.45275 23.0499 7.6136 23.1384Z" fill="#A3FB22"/>
<path d="M26.9463 35.7295C26.6735 35.8508 26.4847 35.944 26.2889 36.0163C26.2586 36.0279 26.1723 35.958 26.156 35.909C26.1373 35.8578 26.149 35.7645 26.1839 35.7295C26.3868 35.5384 26.6059 35.4661 26.9463 35.7295Z" fill="#A3FB22"/>
<path d="M21.9388 36.9789C22.0437 36.8717 22.1277 36.7435 22.2489 36.6829C22.2885 36.6619 22.4167 36.8134 22.503 36.8857C22.3351 37.0955 22.1813 37.1561 21.9388 36.9789Z" fill="#A3FB22"/>
<path d="M15.7845 4.16712C15.6563 4.31165 15.6073 4.41889 15.5374 4.43287C15.4628 4.44919 15.3462 4.40024 15.2973 4.33963C15.2693 4.30466 15.3299 4.13215 15.3719 4.12516C15.4744 4.10184 15.5863 4.14147 15.7845 4.16712Z" fill="#A3FB22"/>
<path d="M22.545 29.2648C22.3771 29.3324 22.2955 29.3651 22.2139 29.3954C22.1766 29.2881 22.1347 29.1809 22.109 29.069C22.1067 29.0573 22.2279 28.9874 22.2512 29.0037C22.3421 29.0643 22.4167 29.1459 22.545 29.2648Z" fill="#A3FB22"/>
<path d="M9.05196 25.5374C9.00301 25.556 8.94006 25.6026 8.9051 25.5863C8.8608 25.5677 8.83983 25.4977 8.80719 25.4488C8.85848 25.4301 8.91908 25.3835 8.95638 25.3975C8.99834 25.4162 9.01933 25.4884 9.05196 25.5374Z" fill="#A3FB22"/>
<path d="M7.56932 6.26987C7.52269 6.34214 7.4784 6.41207 7.43411 6.47968C7.40147 6.43305 7.34785 6.39109 7.34319 6.34214C7.33853 6.28852 7.37582 6.22791 7.3968 6.17196C7.44343 6.1976 7.49239 6.22558 7.56932 6.26987Z" fill="#A3FB22"/>
<path d="M7.95164 5.6917C8.07286 5.7733 8.14047 5.81992 8.2104 5.86421C8.12182 5.92949 8.03789 6.00875 7.93998 6.05537C7.90269 6.07169 7.83042 6.01341 7.77447 5.98777C7.83042 5.89685 7.88403 5.80593 7.95164 5.6917Z" fill="#A3FB22"/>
<path d="M8.46916 4.96443C8.57873 5.04369 8.64867 5.09498 8.72094 5.14627C8.66732 5.20455 8.62069 5.28381 8.55309 5.31411C8.51346 5.33276 8.38524 5.27215 8.38757 5.2535C8.39223 5.16958 8.42953 5.08799 8.46916 4.96443Z" fill="#A3FB22"/>
<path d="M24.7013 9.49849C24.9041 9.42622 24.988 9.3796 25.0743 9.3726C25.1256 9.36794 25.1815 9.42622 25.2352 9.45653C25.1839 9.4915 25.1349 9.54978 25.079 9.55444C24.9974 9.56143 24.9111 9.53346 24.7013 9.49849Z" fill="#A3FB22"/>
<path d="M6.17526 10.79C6.10067 10.9625 6.02374 11.1327 5.89086 11.4381C5.77663 10.9811 5.89319 10.8343 6.20324 10.811L6.17526 10.79Z" fill="#A3FB22"/>
<path d="M9.09625 5.99704C9.01932 6.07164 8.93773 6.1509 8.85614 6.23016C8.80252 6.17188 8.69529 6.07164 8.70461 6.06232C8.77688 5.9714 8.87012 5.89447 8.95638 5.81521C8.99135 5.86184 9.02632 5.90846 9.09625 5.99704Z" fill="#A3FB22"/>
<path d="M28.2168 7.8832C28.1422 7.9648 28.0816 8.04406 28.0722 8.0394C27.9743 7.97878 27.8834 7.90419 27.7902 7.83425C27.8298 7.79462 27.8857 7.71536 27.9067 7.72468C28.0116 7.76198 28.1049 7.82492 28.2168 7.8832Z" fill="#A3FB22"/>
<path d="M1.10257 27.1014C0.990669 27.1736 0.918405 27.2576 0.8508 27.2552C0.794852 27.2529 0.694606 27.141 0.7016 27.0897C0.708594 27.0268 0.806509 26.9289 0.86712 26.9289C0.932394 26.9242 0.997663 27.0174 1.10257 27.1014Z" fill="#A3FB22"/>
<path d="M34.7348 4.18599C34.7791 4.21862 34.8211 4.24893 34.863 4.28157C34.8071 4.33285 34.7488 4.38181 34.6928 4.43309C34.6649 4.3888 34.6089 4.33752 34.6159 4.30022C34.6276 4.25359 34.6928 4.22329 34.7348 4.18599Z" fill="#A3FB22"/>
<path d="M8.87245 30.5749C8.85147 30.5143 8.83049 30.4536 8.81184 30.393C8.76988 30.2462 8.67197 30.09 8.87711 29.9874C8.89576 29.9781 8.93772 29.9921 8.95871 30.0084C9.1452 30.1343 9.0776 30.2741 8.97269 30.4117C8.93306 30.463 8.88411 30.5049 8.84215 30.5515C8.84448 30.5492 8.87245 30.5749 8.87245 30.5749Z" fill="#A3FB22"/>
<path d="M7.79311 34.2442C7.85139 34.2605 7.95629 34.2792 7.95629 34.2908C7.95163 34.3701 7.92132 34.4493 7.90034 34.5263C7.8304 34.475 7.76047 34.4214 7.69287 34.3701C7.7255 34.3281 7.76047 34.2862 7.79311 34.2442Z" fill="#A3FB22"/>
<path d="M4.59704 16.6534C4.57139 16.5088 4.54342 16.362 4.51778 16.2174C4.54342 16.2151 4.56906 16.2104 4.5947 16.2081C4.59703 16.355 4.59937 16.5042 4.6017 16.651C4.6017 16.6487 4.59704 16.6534 4.59704 16.6534Z" fill="#A3FB22"/>
<path d="M26.6339 32.6453C26.6315 32.3469 26.6595 32.3283 27.0022 32.4122L26.9789 32.3866C26.9836 32.4612 26.9906 32.5358 26.9952 32.6127L27.0279 32.58C26.8856 32.594 26.7435 32.608 26.6013 32.622L26.6339 32.6453Z" fill="#A3FB22"/>
<path d="M5.31738 22.7122C5.39431 22.7542 5.46658 22.7728 5.47124 22.8008C5.48057 22.8824 5.46191 22.9686 5.45492 23.0525C5.41296 23.0316 5.34069 23.0176 5.3337 22.9873C5.31272 22.908 5.32204 22.8218 5.31738 22.7122Z" fill="#A3FB22"/>
<path d="M5.73699 22.3342C5.68337 22.3342 5.63208 22.3342 5.57847 22.3342C5.57847 22.3085 5.57847 22.2619 5.57847 22.2619C5.62975 22.2573 5.68337 22.2596 5.73466 22.2596C5.73699 22.2852 5.73699 22.3085 5.73699 22.3342Z" fill="#A3FB22"/>
<path d="M13.036 3.30716C13.022 3.39575 13.0197 3.49133 12.987 3.57059C12.973 3.60322 12.8891 3.60556 12.8378 3.61954C12.8355 3.56826 12.8122 3.49366 12.8355 3.46801C12.8984 3.4074 12.9824 3.3701 13.057 3.32115C13.057 3.32348 13.036 3.30716 13.036 3.30716Z" fill="#A3FB22"/>
<path d="M26.1536 6.59869C26.0697 6.622 25.9928 6.66396 25.9671 6.64298C25.9042 6.59403 25.8669 6.5171 25.8179 6.44949C25.8692 6.43784 25.9345 6.40054 25.9671 6.41919C26.0348 6.45882 26.0837 6.52875 26.1536 6.59869Z" fill="#A3FB22"/>
<path d="M28.9371 30.7195C28.9114 30.7381 28.8858 30.7568 28.8625 30.7731C28.8415 30.7428 28.8182 30.7125 28.7972 30.6822C28.8275 30.6729 28.8602 30.6496 28.8881 30.6542C28.9045 30.6589 28.9184 30.6962 28.9371 30.7195Z" fill="#A3FB22"/>
<path d="M27.7598 31.9366C27.8671 31.6242 28.0093 31.7758 28.1491 31.9063L28.1631 31.8737C28.0209 31.8877 27.8787 31.9016 27.7365 31.9156L27.7598 31.9366Z" fill="#A3FB22"/>
<path d="M27.3845 32.1721C27.4172 31.9459 27.592 31.9483 27.7599 31.9343L27.7365 31.9133C27.7156 32.1581 27.5244 32.1348 27.3589 32.1487L27.3845 32.1721Z" fill="#A3FB22"/>
<path d="M0.258675 17.5575C0.247019 17.4946 0.237698 17.4317 0.226042 17.3687C0.249354 17.3641 0.272663 17.3617 0.295975 17.3571C0.272663 17.4153 0.25168 17.476 0.228368 17.5342L0.258675 17.5575Z" fill="#A3FB22"/>
<path d="M8.3526 25.12C8.32463 25.113 8.29898 25.106 8.27101 25.099C8.29665 25.0711 8.31997 25.0384 8.3526 25.0174C8.3596 25.0128 8.39457 25.0477 8.41555 25.0664C8.3969 25.0827 8.37592 25.1014 8.3526 25.12Z" fill="#A3FB22"/>
<path d="M27.0022 32.4121C27.0278 32.1673 27.2143 32.1836 27.3869 32.1743L27.3612 32.151C27.3286 32.3841 27.1444 32.3678 26.9812 32.3887L27.0022 32.4121Z" fill="#A3FB22"/>
<path d="M15.598 34.1327C15.5863 34.0697 15.5607 34.0068 15.5677 33.9462C15.57 33.9182 15.6306 33.8949 15.6656 33.8692C15.6726 33.8996 15.6935 33.9392 15.6819 33.9578C15.6516 34.0115 15.6073 34.0581 15.5677 34.107C15.57 34.1094 15.598 34.1327 15.598 34.1327Z" fill="#A3FB22"/>
<path d="M5.00732 13.746C4.96769 13.7647 4.92807 13.781 4.88844 13.7996C4.88377 13.746 4.87678 13.6924 4.88144 13.6388C4.88377 13.6201 4.91874 13.6061 4.93972 13.5898C4.9607 13.6434 4.98401 13.6947 5.00732 13.746Z" fill="#A3FB22"/>
<path d="M6.20324 10.811C6.21489 10.7178 6.22655 10.6269 6.2382 10.5336C6.25685 10.5499 6.29649 10.5779 6.29416 10.5826C6.25686 10.6525 6.21489 10.7201 6.17526 10.7877C6.17526 10.79 6.20324 10.811 6.20324 10.811Z" fill="#A3FB22"/>
<path d="M5.48055 20.3037C5.45257 20.341 5.4246 20.4062 5.39663 20.4086C5.357 20.4109 5.31504 20.3643 5.28007 20.334C5.27541 20.3293 5.30804 20.2617 5.31737 20.2617C5.37099 20.2687 5.42227 20.2874 5.48055 20.3037Z" fill="#A3FB22"/>
<path d="M5.378 9.71334C5.35002 9.75297 5.32438 9.82291 5.30106 9.82291C5.24978 9.82058 5.19849 9.78328 5.1472 9.75997C5.16818 9.73665 5.18684 9.69703 5.21015 9.69703C5.26144 9.69003 5.31505 9.70402 5.378 9.71334Z" fill="#A3FB22"/>
<path d="M13.9405 3.54926C13.9125 3.56558 13.8845 3.59355 13.8566 3.59355C13.8309 3.59355 13.8053 3.56791 13.7773 3.55392C13.8333 3.55159 13.8869 3.54926 13.9405 3.54926Z" fill="#A3FB22"/>
<path d="M0.22603 17.5342C0.177075 17.5902 0.130452 17.6461 0.0814971 17.7021C0.0791659 17.6717 0.0698388 17.6228 0.0791636 17.6158C0.132781 17.5878 0.193392 17.5738 0.254004 17.5552C0.258666 17.5575 0.22603 17.5342 0.22603 17.5342Z" fill="#A3FB22"/>
<path d="M3.09808 12.0725C3.04213 11.9606 3.03047 11.7927 3.17734 11.8487C3.30789 11.8976 3.24727 12.0468 3.07476 12.0562L3.09808 12.0725Z" fill="#A3FB22"/>
</svg>
