<svg width="37" height="39" viewBox="0 0 37 39" fill="none" xmlns="http://www.w3.org/2000/svg">
<path d="M21.3747 36.5033C21.4447 36.6735 21.5169 36.8413 21.6032 37.0465C21.1183 37.1211 20.6987 37.184 20.2791 37.2493C20.0833 37.2796 19.8571 37.2679 19.6963 37.3635C19.1741 37.6759 18.6263 37.6363 18.0994 37.5197C17.6588 38.0605 17.6588 38.0605 17.1343 37.8018C17.1599 37.7132 17.1902 37.6199 17.2089 37.5267C17.2205 37.4684 17.2159 37.4078 17.2229 37.2843C16.703 37.3355 16.2484 37.7109 15.7309 37.6176C15.2134 37.5267 14.7075 37.3658 14.1364 37.219C14.0524 37.3635 13.9685 37.5337 13.8589 37.6852C13.7634 37.8181 13.6561 37.951 13.5233 38.0419C13.1946 38.268 12.7563 38.1328 12.6397 37.7505C12.5348 37.4101 12.5022 37.0488 12.4229 36.6222C11.6117 36.1699 10.7258 35.6734 9.81432 35.1629C9.69076 35.2141 9.54856 35.2748 9.40169 35.3354C9.13127 35.2584 9.25016 34.6966 8.79558 34.8481C8.52749 34.5661 8.22444 34.3096 8.00064 33.9973C7.81648 33.7432 7.59501 33.5637 7.33625 33.4168C6.76744 33.0928 6.3315 32.5449 5.64379 32.419C5.16823 31.9761 4.61341 31.6078 4.59709 30.8338C4.58776 30.4259 4.29403 30.1018 3.93735 29.9013C3.59001 29.7079 3.46412 29.4538 3.37321 29.0598C3.25898 28.5586 2.9769 28.0853 2.71814 27.6261C2.50833 27.2508 2.33116 26.8731 2.19828 26.4582C1.66444 24.782 1.19353 23.0966 1.12826 21.3249C1.12127 21.129 1.07464 20.9332 1.04667 20.7467C0.104861 20.4343 0.165475 20.052 0.801893 19.6441C0.799562 19.1359 0.867162 18.6183 0.68766 18.0961C0.547787 17.6905 0.766925 17.3059 0.96974 16.9725C1.25182 16.5109 1.42898 16.0214 1.51291 15.4922L1.49892 15.5062C1.56419 15.3337 1.65278 15.1635 1.68775 14.9863C1.72271 14.7998 1.70406 14.6017 1.70873 14.4082C1.84394 14.0818 2.09105 13.7974 2.1773 13.3615C1.68542 13.6878 1.67376 13.7205 1.73437 14.4268C1.6318 14.4921 1.52923 14.5597 1.39868 14.6436C1.16323 14.4595 1.51291 14.0329 1.13759 13.886C1.11661 13.8767 1.12826 13.6925 1.17255 13.6179C1.38236 13.2496 1.35905 12.7833 1.71339 12.464C1.86958 12.3241 1.9162 12.0537 2.00013 11.8369C2.33116 10.9673 2.68783 10.1234 3.49209 9.55229C3.66693 9.42641 3.76951 9.18862 3.88374 8.99047C4.13784 8.54987 4.49917 8.21651 4.91413 7.93677C4.98173 7.89015 5.0913 7.90413 5.28479 7.87383C5.1589 8.10928 5.06099 8.26314 4.98873 8.42865C4.84186 8.76435 4.40826 8.83894 4.31268 9.25157C4.23342 9.59425 4.0003 9.89731 3.87208 10.2307C3.81846 10.3705 3.86276 10.5454 3.86509 10.7086C3.7089 10.7948 3.51075 10.8438 3.40118 10.972C3.24965 11.1468 3.12377 11.2937 2.88365 11.3846C2.69949 11.4546 2.55262 11.69 2.45005 11.8835C2.32882 12.1119 2.2519 12.3707 2.19129 12.6248C2.15865 12.7554 2.23558 12.8766 2.41275 12.8579C2.68784 12.6365 2.6855 12.1749 3.09346 12.07L3.07015 12.0537C2.90696 12.4803 2.73912 12.9069 2.5806 13.3358C2.49201 13.5783 2.3941 13.8231 2.34981 14.0772C2.32649 14.2147 2.33349 14.4175 2.56428 14.4455C2.99322 14.1028 2.65286 13.2566 3.46412 13.1843C3.30793 12.6062 3.39185 12.1143 3.73454 11.669C3.83245 11.5408 3.90239 11.3869 3.96067 11.2354C4.03993 11.0326 3.97233 10.8484 3.83245 10.6899C4.0376 10.7039 4.30103 10.4405 4.38728 10.8438C4.71831 10.6456 4.50151 9.96025 5.18455 10.1188C4.98873 10.5617 4.7999 10.972 4.62273 11.3846C4.48985 11.6923 4.49451 11.6947 4.6507 12.2728C5.0913 12.1796 4.82321 11.5198 5.36405 11.4219C5.37104 11.7553 5.26847 12.0257 5.16357 12.2891C4.97241 12.7763 4.77192 13.2612 4.54813 13.7345C4.48752 13.8604 4.31967 13.9326 4.20311 14.0282C4.27538 14.1448 4.34299 14.252 4.39893 14.3406C4.35697 14.6017 4.11686 14.4874 4.00729 14.625C4.00729 14.6483 3.98631 14.7415 4.00729 14.7532C4.20078 14.8488 4.31734 14.9793 4.28703 15.2101C4.25673 15.4386 4.22643 15.667 4.21943 15.8978C4.21011 16.2079 4.28937 16.4853 4.59009 16.6508L4.59475 16.6461C4.2917 16.6508 4.20777 16.8932 4.17747 17.11C4.14483 17.3268 4.20778 17.5576 4.23342 17.8187C4.75794 17.6462 4.76726 17.131 5.01437 16.8116C5.18921 16.5879 5.12161 16.2452 4.97008 15.9701L4.96075 15.9911C5.08897 15.9631 5.21485 15.9351 5.37337 15.9002C5.51325 16.1286 5.64613 16.3454 5.78367 16.5669C5.80698 16.5133 5.84894 16.4643 5.84195 16.42C5.76968 15.9025 5.48528 15.4176 5.58085 14.9047C6.62989 14.0655 7.86077 14.0189 9.12894 13.9116C9.26415 14.1448 9.42967 14.3522 9.51592 14.59C9.92621 15.7276 10.7048 16.6298 11.4089 17.5763C11.5674 17.7908 11.7282 17.9493 11.7329 18.2383C11.7352 18.3339 11.945 18.4248 12.1432 18.5834C12.29 18.1125 12.325 17.7255 12.374 17.3432C12.5605 15.8349 12.7353 14.3243 12.9428 12.8183C13.0337 12.1632 13.1876 11.5175 13.3321 10.8718C13.388 10.6153 13.4603 10.3542 13.5792 10.1211C14.0315 9.22592 14.6842 8.94152 15.6353 9.28887C16.6564 9.66419 17.6541 10.1094 18.6752 10.5314C19.1298 10.5104 19.0832 10.0092 19.3559 9.75044C20.5542 9.53131 21.7687 9.64321 22.9786 9.87866C23.1744 9.91596 23.3656 9.97191 23.5637 9.99056C24.3727 10.0605 24.8389 10.6153 25.2609 11.2051C25.5266 11.5804 25.7294 12.0001 25.9555 12.4033C26.1397 12.7297 26.2633 13.0398 25.9509 13.3894C25.8436 13.5107 25.8413 13.7601 25.8576 13.9466C25.9043 14.4758 25.8833 14.998 25.776 15.5178C25.6199 16.2825 25.7434 17.0308 25.874 17.7814C25.9183 18.0355 25.9672 18.3083 25.9229 18.5554C25.8367 19.0286 25.8973 19.4785 25.9928 19.9355C26.1141 20.5276 26.1141 20.5276 26.8321 20.6884C26.895 21.0777 26.881 21.4484 26.7318 21.8401C26.6199 22.1315 26.6596 22.4811 26.6363 22.8028C26.6339 22.8331 26.6409 22.8798 26.6619 22.8938C27.1748 23.2714 27.0092 23.9311 27.2937 24.4044C27.613 24.9336 27.5804 25.4744 27.3473 26.0222C27.2214 26.3206 27.1025 26.6213 26.9766 26.9361C25.9835 26.3789 25.3285 25.5723 24.8086 24.6445C24.6664 24.3881 24.5941 24.092 24.4985 23.8122C24.3167 23.2831 24.1465 22.7492 23.7246 22.2993C23.0042 22.5674 22.2979 22.8308 21.5449 23.1106C21.3281 23.9684 21.0017 24.796 20.9341 25.6912C20.9225 25.852 20.9155 26.0362 20.8339 26.1668C20.687 26.4069 20.6614 26.6423 20.6614 26.9174C20.6614 27.1342 20.5448 27.3603 20.4446 27.5655C20.335 27.7916 20.0739 27.8895 19.8548 27.7706C19.659 27.6657 19.4632 27.5235 19.3233 27.351C18.7288 26.6213 18.5866 25.7285 18.5377 24.8356C18.4537 23.2807 18.4281 21.7235 18.3768 20.1686C18.3721 20.0031 18.3558 19.8352 18.3745 19.672C18.547 18.0542 18.4631 16.4293 18.5377 14.8115C18.568 14.1494 18.6263 13.4874 18.7242 12.8346C18.7988 12.3451 18.7778 11.8951 18.4491 11.4242C18.3768 11.5338 18.2836 11.6201 18.2509 11.7273C17.7287 13.3731 17.4537 15.0749 17.1832 16.772C17.0947 17.3222 17.1436 17.8957 17.1553 18.4598C17.1856 19.8282 16.9967 21.1593 16.6121 22.4741C16.4652 22.973 16.3953 23.5255 16.4373 24.0407C16.5072 24.8846 16.379 25.6912 16.1832 26.4978C16.0433 27.0759 15.9034 27.6564 15.7565 28.2345C15.6843 28.5166 15.5071 28.7031 15.211 28.7381C14.2599 28.8546 13.3158 29.0644 12.2691 28.9759C11.8355 28.4886 11.3576 27.9851 10.9216 27.4466C10.4624 26.8801 10.0474 26.2787 9.60684 25.7005C9.3504 25.3625 9.14059 24.9965 8.83288 24.6841C8.55546 24.402 8.47154 23.9381 8.27805 23.5698C7.92371 22.8961 7.53673 22.2387 7.19172 21.5603C6.83271 20.8516 6.511 20.1243 6.16831 19.4086C6.0704 19.2035 5.95618 19.0053 5.85127 18.8048C5.19388 19.1778 5.19387 19.1778 4.63905 19.1918C4.3593 19.6394 4.36397 20.115 4.45721 20.6162C4.54813 21.1034 4.57844 21.6023 4.66236 22.0942C4.72997 22.4835 4.79291 22.8821 4.93744 23.2481C5.08198 23.6164 5.27779 23.9545 5.27779 24.3741C5.27779 24.5186 5.41068 24.6655 5.48761 24.8077C5.53423 24.8939 5.64146 24.9825 5.62981 25.0571C5.55055 25.6189 5.87691 26.0688 6.00047 26.5701C6.13102 27.1039 6.49468 27.4769 6.70216 27.9525C6.82805 28.2439 7.06583 28.491 7.10313 28.8337C7.12411 29.0318 7.26398 29.0691 7.42949 29.1367C7.53673 29.1787 7.59268 29.3931 7.63231 29.54C7.67194 29.6892 7.609 29.8897 7.68593 30.0016C8.28738 30.8735 8.91214 31.7313 9.93554 32.1649C9.96118 32.1766 10.0008 32.1556 10.0451 32.1486C10.4298 31.778 9.64647 31.5588 9.86327 31.2674C10.0917 31.4306 10.3295 31.5961 10.5929 31.7826C10.7258 31.7173 10.8424 31.6707 10.9496 31.6078C11.1734 31.4749 11.4065 31.5635 11.4228 31.757C11.4508 32.0997 11.9194 32.1906 11.8285 32.5892C11.8122 32.6661 12.0336 32.8387 12.1735 32.9039C12.8332 33.2116 13.4836 33.5497 14.1713 33.7735C14.6306 33.925 15.0688 34.2257 15.5957 34.1325L15.5677 34.1092C16.2647 34.5451 16.2298 34.5731 17.7567 33.7618C17.836 33.8014 17.9572 33.8248 18.0038 33.8947C18.1647 34.1371 18.3652 34.235 18.6612 34.235C19.8082 34.235 20.9621 34.3889 22.0858 34.0252C22.6009 34.1488 23.0555 33.6639 23.601 33.8854C23.7036 33.9273 23.9158 33.7082 24.1395 33.5707C24.2095 33.6336 24.3051 33.7828 24.4309 33.8201C24.5755 33.862 24.7503 33.8038 24.9601 33.7828C24.8529 33.5543 24.769 33.3772 24.6407 33.0974C24.9345 33.2256 25.1093 33.3026 25.2842 33.3795L25.2609 33.3492C25.459 33.566 25.5173 33.5613 25.6921 33.3096L25.6548 33.3375C25.8833 33.2932 26.1304 33.2909 26.2749 33.0578L26.2376 33.0858C26.4008 33.0391 26.592 33.0321 26.6502 32.82L26.6176 32.8526C26.7808 32.806 26.9906 32.827 27.0256 32.5846L26.9929 32.6172C27.4895 32.5379 27.9044 32.3328 28.1609 31.8759L28.1469 31.9085C28.3567 31.7523 28.5735 31.6055 28.7716 31.4329C29.0817 31.1625 29.3358 30.8571 29.1353 30.3746C29.6412 30.1508 30.0142 29.8501 30.3429 29.4771C30.6902 29.0854 31.0725 28.7218 31.4735 28.3837C31.8791 28.041 32.2451 27.6774 32.4409 27.1738C32.4526 27.1435 32.4759 27.1156 32.5016 27.0969C33.5436 26.3253 33.7045 25.1131 34.0541 23.9964C34.2523 23.367 34.4504 22.7376 34.6346 22.1058C34.6975 21.889 34.7418 21.6582 34.7442 21.4344C34.7512 20.7421 34.7488 20.0497 34.7185 19.3573C34.6999 18.9284 34.6346 18.5018 34.5693 18.0752C34.5181 17.7535 34.3689 17.4457 34.4831 17.1007C34.5181 16.9935 34.4714 16.842 34.4248 16.7254C33.8723 15.3127 33.3105 13.9023 32.7557 12.4896C32.7207 12.401 32.6741 12.2518 32.7137 12.2099C33.1263 11.7972 32.779 11.732 32.4736 11.5828C32.3547 11.5245 32.2824 11.3123 32.2428 11.1562C32.005 10.219 31.8511 9.96258 31.0912 9.33316C30.9769 9.48935 30.8627 9.64321 30.7508 9.79707C30.583 9.70615 30.4151 9.61523 30.245 9.52199L30.2823 9.55229C30.0585 9.01612 29.6575 8.62681 29.2006 8.29344C28.6131 7.86683 28.0117 7.45654 27.4149 7.04159C27.3076 6.96699 27.1981 6.8784 27.0769 6.83644C26.6596 6.69657 26.3029 6.46811 26.0045 6.14641C25.86 5.99255 25.6781 5.89697 25.473 5.95991C25.2888 6.01819 25.1256 6.13242 24.9275 5.99022C24.5125 5.69182 23.8831 5.73378 23.5871 5.05307C23.6663 4.99479 23.7945 4.90155 23.9577 4.78265C23.2723 4.5099 22.6616 4.2185 21.9692 4.06698C20.8805 3.82686 19.7615 3.7173 18.6985 3.34197C18.0644 3.11818 17.3907 3.26038 16.7147 3.25339C17.0201 3.18578 17.3254 3.11818 17.6192 3.05524C17.6635 2.7988 17.6984 2.58433 17.7404 2.33956C17.6751 2.3279 17.5772 2.28128 17.5073 2.30692C17.3604 2.36287 17.1879 2.42814 17.097 2.5447C16.6424 3.11818 16.0643 3.30234 15.3556 3.19044C15.2017 3.16713 15.0152 3.17646 14.88 3.24173C14.6026 3.37927 14.3508 3.52614 14.1037 3.20909C13.7447 3.24173 13.3857 3.27204 13.0267 3.30467L13.0477 3.32099C13.099 3.13916 13.0943 2.89205 13.2132 2.78715C13.3974 2.62629 13.6025 2.42115 13.9079 2.47243C14.0151 2.49108 14.3532 2.27661 14.5024 2.16705C14.7122 2.01086 14.9266 1.857 15.1551 1.72645C15.2833 1.65185 15.3346 1.58192 15.3393 1.42573C15.3439 1.28585 15.4605 1.22058 15.626 1.25788C16.0829 1.35812 16.4419 1.20426 16.71 0.81262C16.1598 0.863906 15.6237 0.915193 15.0572 0.96881C14.9569 0.731028 15.232 0.628455 15.3463 0.605143C16.1435 0.439628 16.8942 0.0969411 17.7241 0.0409923C19.2603 -0.0639117 20.7663 0.0060243 22.2233 0.565512C22.531 0.684404 22.8457 0.791639 23.1581 0.898874C24.9904 1.51897 26.7015 2.37686 28.2774 3.49816C28.6807 3.7849 29.0584 4.11127 29.4384 4.43064C29.7904 4.72904 30.1074 5.0624 30.5527 5.2489C30.7835 5.34447 30.97 5.56827 31.1518 5.7571C32.2824 6.92503 33.3291 8.15823 34.1334 9.58027C34.2127 9.72247 34.3316 9.84136 34.4388 9.9789C34.5484 9.9789 34.6416 9.97424 34.7348 9.97657C35.4179 9.99056 35.6976 10.3869 35.4412 10.9976C35.3806 11.1422 35.264 11.2634 35.1405 11.4406C36.2595 13.3452 36.8236 15.385 36.742 17.8327C36.6068 17.504 36.5275 17.3968 36.5206 17.2872C36.4809 16.4456 36.2082 15.667 35.9191 14.8884C35.665 14.2077 35.4132 13.5247 35.1568 12.8439C35.0985 12.6901 34.9866 12.6691 34.8537 12.7577C34.8444 12.6971 34.8304 12.6388 34.8164 12.5805C34.8304 12.6341 34.8468 12.6854 34.8607 12.739C35.0915 13.464 35.32 14.189 35.5484 14.9141C35.5787 15.0096 35.5811 15.1239 35.6393 15.1961C36.1476 15.8232 36.066 16.6205 36.2758 17.3338C36.1382 18.3596 36.432 19.369 36.3853 20.39C36.3434 21.2782 36.418 22.1711 36.2361 23.0523C36.2291 23.0849 36.2408 23.1222 36.2268 23.1502C35.9121 23.8169 36.0007 24.5629 35.8025 25.2529C35.6953 25.6283 35.651 26.0409 35.271 26.2787C35.1055 26.8358 34.6276 27.2648 34.6556 27.9105C34.6649 28.1459 34.4971 28.3884 34.4131 28.6145C34.2173 28.6052 34.0914 28.6005 33.9795 28.5959C33.4154 29.2486 32.8489 29.8897 32.3011 30.5448C31.9001 31.025 31.5201 31.5262 31.1308 32.0157L31.1588 31.9854C31.0189 32.0694 30.8394 32.1253 30.7485 32.2442C30.2123 32.9436 29.4827 33.4098 28.7646 33.8737C27.9044 34.4285 27.0162 34.9437 26.1117 35.424C25.2375 35.8902 24.2561 36.0441 23.3026 36.2585C23.1954 36.2818 23.0672 36.2026 22.9483 36.1793C22.7292 36.135 22.5077 36.1 22.3329 36.0674C22.1417 36.1886 22.3981 36.3914 22.1417 36.4683C21.8923 36.5429 21.6218 36.2212 21.4074 36.5313C21.1929 36.4287 20.9784 36.3238 20.7127 36.1933C20.6124 36.4031 20.5332 36.5686 20.4399 36.7621C20.6334 36.8297 20.7826 36.8949 20.9411 36.9322C21.2535 37.0045 21.3095 36.9416 21.3747 36.5033ZM26.6456 33.7292C26.7621 33.6429 26.8787 33.5543 26.9953 33.4681C27.0815 33.3585 27.1678 33.2513 27.254 33.1417C27.4149 33.1277 27.62 33.1907 27.634 32.9202C27.8158 32.869 27.9977 32.8177 28.1795 32.7641C28.1958 32.6941 28.2098 32.6242 28.2261 32.5519C28.2005 32.5659 28.1562 32.5799 28.1562 32.5915C28.1585 32.6475 28.1749 32.7034 28.1818 32.7594C28.0023 32.8014 27.7762 32.7128 27.662 32.9436C27.5361 33.0182 27.4102 33.0904 27.2843 33.165C27.1118 33.1953 27.0139 33.2886 27.0093 33.4681C26.8274 33.4518 26.6549 33.4494 26.6502 33.7012C26.5873 33.7758 26.5244 33.8457 26.4964 33.6802C26.5453 33.6989 26.5943 33.7129 26.6456 33.7292ZM23.1837 21.1873C22.8714 20.1942 22.6732 19.8539 22.1207 19.362C21.9156 20.1056 21.6964 20.8143 21.7477 21.572C21.7501 21.6186 21.8363 21.6582 21.8876 21.7048C22.3608 21.6862 22.7478 21.4531 23.1837 21.1873ZM29.7787 8.1186C29.823 8.05566 29.8533 8.03002 29.8603 7.99971C29.9559 7.55212 29.2495 7.35397 29.4966 6.8481C29.5013 6.83877 29.3474 6.71522 29.2589 6.70123C29.0421 6.6686 28.8183 6.67093 28.4942 6.65228C28.9045 7.26072 29.3078 7.71531 29.7787 8.1186ZM30.1797 6.78282C30.4361 6.95067 30.6413 7.09054 30.8511 7.21643C30.8767 7.23042 30.9466 7.17447 30.9933 7.14882C30.6995 6.64762 30.6995 6.64762 30.1797 6.78282ZM34.7582 23.1595C34.8607 22.8844 34.912 22.8028 34.9167 22.7166C34.9213 22.6443 34.8701 22.5674 34.8444 22.4928C34.7861 22.5557 34.6975 22.6117 34.6766 22.6839C34.6556 22.7632 34.7022 22.8588 34.7582 23.1595ZM18.6146 2.27661C18.561 2.30459 18.4607 2.34422 18.4654 2.36054C18.4817 2.43747 18.5097 2.5517 18.5656 2.57501C18.6402 2.60531 18.7498 2.57967 18.8337 2.5517C18.8594 2.54237 18.8827 2.41415 18.864 2.40017C18.7918 2.34422 18.6985 2.31391 18.6146 2.27661ZM29.6528 5.64986C29.6062 5.61956 29.5619 5.58925 29.5153 5.55894C29.443 5.66152 29.3661 5.76176 29.3008 5.86899C29.2915 5.88531 29.3125 5.94592 29.3335 5.95292C29.3824 5.97157 29.4733 5.99255 29.4873 5.97157C29.5526 5.87133 29.5992 5.7571 29.6528 5.64986ZM1.53389 22.663C1.60848 22.6746 1.68309 22.6839 1.75769 22.6956C1.71106 22.4042 1.66444 22.1128 1.61781 21.8237C1.5642 21.8307 1.51058 21.8401 1.45463 21.847C1.4826 22.1175 1.50824 22.3902 1.53389 22.663ZM3.67859 18.3432C3.65761 18.4435 3.60167 18.5507 3.62964 18.6277C3.65062 18.6813 3.78583 18.6929 3.87208 18.7116C3.87674 18.7139 3.93037 18.602 3.91405 18.581C3.84877 18.4948 3.76485 18.4248 3.67859 18.3432ZM21.7104 2.59832C20.8992 2.46078 20.0856 2.32324 19.2743 2.1857C19.976 2.40716 20.6497 2.63562 21.3934 2.8431C21.7431 2.94101 22.228 2.99462 22.6522 3.06689C22.3399 2.91303 22.0251 2.75684 21.7104 2.59832ZM28.5781 6.19536C28.6667 6.24665 28.7437 6.29327 28.8229 6.3399C28.8369 6.31425 28.8719 6.26996 28.8649 6.26297C28.8113 6.20469 28.753 6.15107 28.6924 6.10211C28.6877 6.09978 28.6481 6.13941 28.5781 6.19536ZM29.2076 31.9505C29.2286 31.9272 29.2519 31.9038 29.2728 31.8805C29.2192 31.8642 29.1656 31.8386 29.1097 31.8316C29.0887 31.8292 29.0654 31.8712 29.0421 31.8945C29.098 31.9132 29.1516 31.9318 29.2076 31.9505ZM1.75069 17.11C1.75302 17.0634 1.75536 17.0168 1.75769 16.9702C1.70174 16.9865 1.64812 17.0028 1.59217 17.0191C1.61082 17.0611 1.62015 17.11 1.64812 17.1427C1.65745 17.152 1.71572 17.1217 1.75069 17.11ZM25.8203 33.9926C25.797 33.9879 25.7737 33.9833 25.7527 33.9786C25.7691 34.0019 25.7854 34.0229 25.7994 34.0462C25.8064 34.0299 25.8133 34.0112 25.8203 33.9926ZM18.2812 35.72C18.2346 35.6944 18.1903 35.6664 18.139 35.6501C18.1274 35.6478 18.0877 35.692 18.0854 35.7154C18.0854 35.7387 18.1227 35.7853 18.1344 35.783C18.1857 35.7713 18.2323 35.7433 18.2812 35.72ZM26.4941 4.64045C26.4731 4.6591 26.4288 4.68941 26.4334 4.6964C26.4544 4.74069 26.4871 4.78265 26.5174 4.82462C26.5337 4.77799 26.557 4.7337 26.5663 4.68708C26.564 4.67542 26.5174 4.65677 26.4941 4.64045ZM3.56903 17.3455H3.70191L3.62964 17.1753L3.56903 17.3455ZM21.1626 1.82902C21.4307 1.85234 21.6964 1.87798 21.9645 1.90129C21.7524 1.7824 21.5519 1.65185 21.3211 1.55161C21.2139 1.50499 21.0484 1.51897 20.9085 1.50499C20.9948 1.61222 21.0787 1.72179 21.1626 1.82902ZM23.4052 2.05282C23.3772 2.09944 23.3516 2.1484 23.3236 2.19502C23.4309 2.2603 23.5381 2.3279 23.6477 2.38851C23.664 2.39784 23.7246 2.36986 23.7293 2.35121C23.7432 2.29993 23.7596 2.20901 23.7386 2.19735C23.6337 2.13674 23.5171 2.09944 23.4052 2.05282ZM24.4892 2.81046C25.0184 3.01327 25.4893 3.19511 25.9602 3.37461C26.0838 3.36762 26.3425 3.36762 26.3076 3.34897C26.0138 3.19511 25.6758 3.03659 25.3168 2.87806C25.2865 2.86874 24.9928 2.85242 24.4892 2.81046ZM21.0227 35.0719C20.6917 35.1372 20.363 35.2002 20.0343 35.2654C19.7592 35.3937 19.4818 35.5219 19.2067 35.6501C18.8267 35.5452 18.4001 35.2701 18.1763 35.7457C17.7217 35.6944 17.2672 35.6408 16.8126 35.5895C16.7263 35.7037 16.6401 35.8203 16.5515 35.9345C16.6168 35.9298 16.7333 35.9415 16.7426 35.9182C16.7776 35.8156 16.7823 35.7014 16.8079 35.5918C17.2508 35.6594 17.7054 35.9998 18.132 35.6757C18.4747 35.6431 18.8174 35.6105 19.1578 35.5755C19.5727 35.6594 19.8665 35.5662 20.0087 35.2491C20.4143 35.4263 20.8059 35.5685 20.9971 35.1162C21.1929 35.0323 21.3864 34.9554 21.3351 35.2794C21.2302 35.2095 21.1276 35.1395 21.0227 35.0719ZM23.65 35.3051C23.8155 35.2701 24.0486 35.2188 24.3237 35.1465C25.9089 34.7269 27.0955 34.0858 27.0839 34.0579C27.0792 34.0462 26.895 34.1301 26.2166 34.3609C26.2166 34.3609 25.8973 34.4682 25.5336 34.5847C24.9858 34.7596 23.7456 35.1116 22.0904 35.5265C22.6103 35.4519 23.1301 35.3797 23.65 35.3051Z" fill="#A3FB22"/>
<path d="M29.6179 12.9373C30.1494 13.4152 30.1773 14.0214 30.0048 14.5878C29.7601 15.3968 29.7321 16.208 29.7228 17.0379C29.7064 18.3597 29.6552 19.6815 29.6365 21.0033C29.6295 21.4649 29.7018 21.9288 29.7064 22.3904C29.7158 23.4138 29.7158 24.4395 29.6994 25.4629C29.6971 25.654 29.6249 25.8545 29.5409 26.0294C29.3195 26.4933 28.7437 26.5982 28.38 26.2299C28.2215 26.0713 28.1002 25.8592 28.0093 25.6517C27.7249 25.0106 27.5687 24.3392 27.5501 23.6352C27.5175 22.4113 27.4708 21.1875 27.4405 19.9636C27.4359 19.7351 27.4825 19.5043 27.5104 19.2759C27.5734 18.7514 27.6107 18.2315 27.5361 17.6953C27.3706 16.4948 27.6387 15.3268 27.8998 14.1636C27.9347 14.012 28.0257 13.8255 28.1469 13.7486C28.6178 13.4642 29.112 13.2124 29.6179 12.9373Z" fill="#A3FB22"/>
<path d="M33.089 14.9979C33.6578 15.9444 33.6112 17.0004 33.5809 18.0075C33.5576 18.7791 33.2662 19.5507 33.0494 20.3084C32.9701 20.5834 32.7906 20.8469 32.6065 21.0707C32.3244 21.4134 31.8955 21.4157 31.5528 21.122C31.2917 20.8982 31.1378 20.6114 31.0609 20.2804C30.8534 19.3782 30.6366 18.476 30.4408 17.5692C30.2986 16.9048 30.2986 16.2544 30.6949 15.6553C31.2171 14.8673 31.8768 14.6272 32.8279 14.8953C32.9212 14.9233 33.0121 14.9676 33.089 14.9979Z" fill="#A3FB22"/>
<path d="M30.2542 9.51959C30.3171 9.73639 30.3544 9.96485 30.4453 10.17C30.7647 10.895 29.9511 11.958 29.331 12.1119C28.6969 12.2681 27.9743 11.6643 28.0372 10.9906C28.0838 10.4964 28.2354 10.0255 28.5547 9.62916C28.9207 9.17224 29.3054 9.08366 29.8579 9.3261C30.0071 9.39138 30.1469 9.4753 30.2915 9.55223C30.2915 9.5499 30.2542 9.51959 30.2542 9.51959Z" fill="#A3FB22"/>
<path d="M33.5249 23.099C33.5809 23.6421 33.5576 24.0641 33.2872 24.4417C33.0168 24.8171 32.6135 24.9919 32.1612 24.8893C31.7113 24.7868 31.5038 24.4417 31.4409 24.0338C31.3453 23.4113 31.5224 22.8425 31.9654 22.3903C32.5365 21.8075 33.2569 22.0173 33.4737 22.8122C33.5086 22.9404 33.5203 23.0733 33.5249 23.099Z" fill="#A3FB22"/>
<path d="M6.66476 25.0478C7.06572 25.0129 7.37577 25.1644 7.47368 25.4441C7.57392 25.7285 7.40141 26.2297 7.14265 26.3953C6.99345 26.4908 6.64144 26.4745 6.49458 26.344C6.23115 26.1108 6.13557 25.8078 6.18453 25.4651C6.21483 25.2553 6.44562 25.0665 6.66476 25.0478Z" fill="#A3FB22"/>
<path d="M20.0039 29.8781C20.5517 30.0087 20.8338 30.3071 20.8944 30.8153C20.9271 31.088 20.7429 31.3258 20.4702 31.3771C20.0249 31.4587 19.6146 31.0484 19.7312 30.6194C19.7964 30.377 19.9037 30.1439 20.0039 29.8781Z" fill="#A3FB22"/>
<path d="M31.1377 32.0157C31.2613 32.0134 31.3871 32.0134 31.5457 32.011C30.9862 32.9272 30.3031 33.6126 29.6434 33.911C29.8043 33.5193 30.1283 33.3351 30.3731 33.088C30.6971 32.7617 31.0584 32.4656 31.1657 31.9854L31.1377 32.0157Z" fill="#A3FB22"/>
<path d="M11.9077 3.59846C12.1151 3.73134 12.3016 3.8549 12.4881 3.97379C12.3459 4.2139 12.2527 4.44003 11.9403 4.32114C11.875 4.29549 11.7748 4.30715 11.7095 4.33979C11.5836 4.40739 11.4601 4.46101 11.3715 4.31414C11.2642 4.1393 11.3458 4.00176 11.4974 3.89453C11.6279 3.80128 11.7585 3.7057 11.9077 3.59846Z" fill="#A3FB22"/>
<path d="M11.4833 30.6146C11.2829 30.3442 11.0707 30.0738 10.8842 29.7871C10.8539 29.7404 10.9099 29.5936 10.9682 29.5399C11.0288 29.484 11.157 29.4397 11.2292 29.463C11.5253 29.5586 11.7957 30.1857 11.6815 30.4934C11.6652 30.5377 11.5813 30.5564 11.4833 30.6146Z" fill="#A3FB22"/>
<path d="M11.1034 3.65431C10.5066 4.28607 10.0171 4.6171 9.36434 4.87353C9.40864 4.72433 9.41331 4.59845 9.4576 4.58446C9.89586 4.43526 10.2176 4.12755 10.5533 3.83148C10.6325 3.76155 10.7724 3.75689 11.1034 3.65431Z" fill="#A3FB22"/>
<path d="M34.1543 18.4504C34.131 18.9656 33.9678 19.5041 34.3874 19.9424C34.2242 20.0473 34.117 20.1172 33.9771 20.2082C33.9795 19.8864 33.9888 19.5997 33.9818 19.3153C33.9748 19.0332 33.9492 18.7512 33.9305 18.4691C34.0051 18.4621 34.0797 18.4551 34.1543 18.4504Z" fill="#A3FB22"/>
<path d="M0.452165 19.6768C0.375235 19.0754 -0.170271 18.5812 0.0535242 17.8631C0.615344 18.4133 0.396216 19.087 0.452165 19.6768Z" fill="#A3FB22"/>
<path d="M7.7838 27.0271C7.91668 27.2159 8.04723 27.3278 8.0752 27.463C8.11483 27.6495 7.89337 27.836 7.69755 27.8011C7.5297 27.7731 7.3502 27.6659 7.40615 27.4863C7.45277 27.3302 7.62295 27.2136 7.7838 27.0271Z" fill="#A3FB22"/>
<path d="M18.4467 39.0001C18.2719 38.8346 18.0947 38.7437 18.0877 38.6411C18.0784 38.5222 18.1903 38.345 18.2998 38.2798C18.449 38.1912 18.6565 38.2867 18.6705 38.4476C18.6845 38.5921 18.5539 38.753 18.4467 39.0001Z" fill="#A3FB22"/>
<path d="M31.8884 12.3893C31.6506 12.0676 31.3988 11.8601 31.4361 11.3613C31.6669 11.7086 31.8254 11.9464 31.977 12.1865C31.9863 12.1982 31.956 12.2378 31.8884 12.3893Z" fill="#A3FB22"/>
<path d="M25.7177 36.1957C25.375 36.4755 25.0719 36.6457 24.678 36.5827C24.608 36.3543 24.7665 36.2657 24.9087 36.24C25.1512 36.1981 25.4006 36.2097 25.7177 36.1957Z" fill="#A3FB22"/>
<path d="M14.6818 31.6614C14.6212 31.7314 14.5489 31.8712 14.437 31.9365C14.3134 32.0088 14.099 31.8503 14.1106 31.6941C14.12 31.5915 14.1992 31.4563 14.2855 31.405C14.4253 31.3211 14.6188 31.433 14.6818 31.6614Z" fill="#A3FB22"/>
<path d="M28.8276 1.69142C28.6504 1.86859 28.5665 2.00613 28.4476 2.05509C28.3101 2.11337 28.0979 1.9292 28.1329 1.79166C28.1609 1.68676 28.2611 1.5329 28.345 1.52357C28.4663 1.50958 28.5991 1.60516 28.8276 1.69142Z" fill="#A3FB22"/>
<path d="M25.2888 33.377C25.3564 33.2768 25.403 33.1253 25.4986 33.0833C25.8693 32.9178 26.2539 32.7873 26.6339 32.6427L26.6013 32.6194C26.6083 32.694 26.6129 32.7709 26.6199 32.8455L26.6526 32.8129C26.4801 32.8479 26.2656 32.8152 26.2399 33.0787L26.2773 33.0507C26.0301 33.053 25.7924 33.0763 25.6571 33.3304L25.6945 33.3024C25.5499 33.3164 25.4077 33.3281 25.2632 33.3421C25.2655 33.3491 25.2888 33.3794 25.2888 33.377Z" fill="#A3FB22"/>
<path d="M8.84442 30.5495C9.03092 30.7174 9.21741 30.8829 9.40158 31.0554C9.42023 31.0717 9.41324 31.1137 9.42023 31.151C9.28968 31.3608 9.14049 31.2093 9.04258 31.1323C8.90271 31.0251 8.80013 30.8666 8.68124 30.7314C8.74418 30.6778 8.80945 30.6265 8.8724 30.5729C8.8724 30.5752 8.84442 30.5495 8.84442 30.5495Z" fill="#A3FB22"/>
<path d="M19.2742 31.2044C19.2906 31.4492 19.139 31.6077 18.9712 31.561C18.8686 31.5331 18.752 31.4305 18.7124 31.3326C18.6541 31.1904 18.8243 30.9573 18.9572 30.9922C19.0877 31.0295 19.1973 31.1508 19.2742 31.2044Z" fill="#A3FB22"/>
<path d="M1.51751 15.4921C1.36598 15.639 1.21679 15.7859 1.0233 15.9724C0.902073 15.653 0.953362 15.4175 1.20047 15.2124C1.31004 15.322 1.40562 15.4175 1.5012 15.5085C1.50586 15.5038 1.51751 15.4921 1.51751 15.4921Z" fill="#A3FB22"/>
<path d="M1.33799 27.7962C1.46388 27.9874 1.59442 28.1016 1.60608 28.2251C1.62007 28.393 1.47787 28.5072 1.29837 28.5189C1.14451 28.5305 0.967334 28.3464 1.01862 28.2018C1.06524 28.0759 1.19113 27.978 1.33799 27.7962Z" fill="#A3FB22"/>
<path d="M33.4293 2.1577C33.5715 2.35119 33.6928 2.45609 33.7231 2.58198C33.7371 2.63793 33.5762 2.79179 33.4806 2.80344C33.392 2.8151 33.2032 2.68455 33.2102 2.6356C33.2242 2.50039 33.3221 2.3745 33.4293 2.1577Z" fill="#A3FB22"/>
<path d="M4.97698 15.9724C4.86742 15.7789 4.73687 15.5948 4.65994 15.3896C4.63196 15.3127 4.72987 15.1891 4.80447 15.0003C5.10753 15.3663 4.96066 15.688 4.96766 15.9888C4.96766 15.9934 4.97698 15.9724 4.97698 15.9724Z" fill="#A3FB22"/>
<path d="M7.61367 23.1384C7.51576 23.255 7.46913 23.3622 7.40619 23.3739C7.22435 23.4089 7.10313 23.2923 7.07516 23.1245C7.06583 23.0639 7.18705 22.9193 7.21037 22.9286C7.33625 22.9706 7.45281 23.0499 7.61367 23.1384Z" fill="#A3FB22"/>
<path d="M26.9463 35.7293C26.6735 35.8505 26.4847 35.9438 26.2889 36.016C26.2586 36.0277 26.1723 35.9578 26.156 35.9088C26.1373 35.8575 26.149 35.7643 26.184 35.7293C26.3868 35.5381 26.6059 35.4659 26.9463 35.7293Z" fill="#A3FB22"/>
<path d="M21.9388 36.9789C22.0437 36.8717 22.1276 36.7435 22.2488 36.6829C22.2885 36.6619 22.4167 36.8134 22.5029 36.8857C22.3351 37.0955 22.1812 37.1561 21.9388 36.9789Z" fill="#A3FB22"/>
<path d="M15.7845 4.16736C15.6563 4.3119 15.6073 4.41913 15.5374 4.43312C15.4628 4.44944 15.3462 4.40048 15.2973 4.33987C15.2693 4.3049 15.3299 4.1324 15.3719 4.1254C15.4744 4.10209 15.5863 4.14172 15.7845 4.16736Z" fill="#A3FB22"/>
<path d="M22.5449 29.2651C22.377 29.3327 22.2955 29.3653 22.2139 29.3956C22.1766 29.2884 22.1346 29.1811 22.109 29.0692C22.1066 29.0576 22.2278 28.9876 22.2512 29.004C22.3421 29.0646 22.4167 29.1462 22.5449 29.2651Z" fill="#A3FB22"/>
<path d="M9.05198 25.5374C9.00302 25.556 8.94008 25.6026 8.90511 25.5863C8.86082 25.5677 8.83984 25.4977 8.80721 25.4488C8.85849 25.4301 8.9191 25.3835 8.9564 25.3975C8.99836 25.4162 9.01934 25.4884 9.05198 25.5374Z" fill="#A3FB22"/>
<path d="M7.56935 6.26987C7.52273 6.34214 7.47843 6.41207 7.43414 6.47968C7.4015 6.43305 7.34789 6.39109 7.34322 6.34214C7.33856 6.28852 7.37585 6.22791 7.39684 6.17196C7.44346 6.1976 7.49242 6.22558 7.56935 6.26987Z" fill="#A3FB22"/>
<path d="M7.95165 5.6917C8.07288 5.7733 8.14048 5.81992 8.21042 5.86421C8.12183 5.92949 8.03791 6.00875 7.94 6.05537C7.9027 6.07169 7.83044 6.01341 7.77449 5.98777C7.83044 5.89685 7.88405 5.80593 7.95165 5.6917Z" fill="#A3FB22"/>
<path d="M8.4691 4.96468C8.57867 5.04394 8.64861 5.09523 8.72087 5.14651C8.66726 5.20479 8.62063 5.28405 8.55303 5.31436C8.5134 5.33301 8.38518 5.2724 8.38751 5.25375C8.39217 5.16982 8.42947 5.08823 8.4691 4.96468Z" fill="#A3FB22"/>
<path d="M24.7014 9.49874C24.9042 9.42647 24.9881 9.37984 25.0743 9.37285C25.1256 9.36819 25.1816 9.42647 25.2352 9.45677C25.1839 9.49174 25.135 9.55002 25.079 9.55469C24.9974 9.56168 24.9112 9.5337 24.7014 9.49874Z" fill="#A3FB22"/>
<path d="M6.1752 10.7902C6.1006 10.9627 6.02368 11.1329 5.8908 11.4383C5.77657 10.9814 5.89313 10.8345 6.20318 10.8112L6.1752 10.7902Z" fill="#A3FB22"/>
<path d="M9.09621 5.99729C9.01928 6.07189 8.93768 6.15115 8.85609 6.23041C8.80248 6.17213 8.69524 6.07189 8.70457 6.06256C8.77683 5.97165 8.87008 5.89472 8.95633 5.81546C8.9913 5.86208 9.02627 5.9087 9.09621 5.99729Z" fill="#A3FB22"/>
<path d="M28.2168 7.8832C28.1422 7.9648 28.0816 8.04406 28.0722 8.0394C27.9743 7.97878 27.8834 7.90419 27.7902 7.83425C27.8298 7.79462 27.8857 7.71536 27.9067 7.72468C28.0116 7.76198 28.1049 7.82492 28.2168 7.8832Z" fill="#A3FB22"/>
<path d="M1.10251 27.1016C0.990608 27.1739 0.918344 27.2578 0.850739 27.2555C0.79479 27.2531 0.694545 27.1412 0.701539 27.09C0.708532 27.027 0.806448 26.9291 0.867059 26.9291C0.932333 26.9244 0.997601 27.0177 1.10251 27.1016Z" fill="#A3FB22"/>
<path d="M34.7348 4.18599C34.7791 4.21862 34.8211 4.24893 34.863 4.28157C34.8071 4.33285 34.7488 4.38181 34.6929 4.43309C34.6649 4.3888 34.6089 4.33752 34.6159 4.30022C34.6276 4.25359 34.6929 4.22329 34.7348 4.18599Z" fill="#A3FB22"/>
<path d="M8.87251 30.5751C8.85153 30.5145 8.83055 30.4539 8.8119 30.3933C8.76994 30.2464 8.67203 30.0902 8.87717 29.9876C8.89582 29.9783 8.93779 29.9923 8.95877 30.0086C9.14526 30.1345 9.07766 30.2744 8.97275 30.4119C8.93312 30.4632 8.88417 30.5052 8.84221 30.5518C8.84454 30.5495 8.87251 30.5751 8.87251 30.5751Z" fill="#A3FB22"/>
<path d="M7.79317 34.2444C7.85145 34.2608 7.95635 34.2794 7.95635 34.2911C7.95169 34.3703 7.92138 34.4496 7.9004 34.5265C7.83046 34.4752 7.76053 34.4216 7.69293 34.3703C7.72556 34.3284 7.76053 34.2864 7.79317 34.2444Z" fill="#A3FB22"/>
<path d="M4.59702 16.6531C4.57138 16.5086 4.5434 16.3617 4.51776 16.2172C4.5434 16.2148 4.56904 16.2102 4.59469 16.2078C4.59702 16.3547 4.59935 16.5039 4.60168 16.6508C4.60168 16.6484 4.59702 16.6531 4.59702 16.6531Z" fill="#A3FB22"/>
<path d="M26.6338 32.6451C26.6315 32.3467 26.6595 32.328 27.0022 32.412L26.9789 32.3863C26.9835 32.4609 26.9905 32.5355 26.9952 32.6124L27.0278 32.5798C26.8856 32.5938 26.7434 32.6078 26.6012 32.6218L26.6338 32.6451Z" fill="#A3FB22"/>
<path d="M5.31737 22.7119C5.3943 22.7539 5.46656 22.7726 5.47123 22.8005C5.48055 22.8821 5.4619 22.9684 5.45491 23.0523C5.41294 23.0313 5.34068 23.0173 5.33369 22.987C5.3127 22.9078 5.32203 22.8215 5.31737 22.7119Z" fill="#A3FB22"/>
<path d="M5.73705 22.3342C5.68343 22.3342 5.63215 22.3342 5.57853 22.3342C5.57853 22.3085 5.57853 22.2619 5.57853 22.2619C5.62981 22.2573 5.68344 22.2596 5.73472 22.2596C5.73705 22.2852 5.73705 22.3085 5.73705 22.3342Z" fill="#A3FB22"/>
<path d="M13.036 3.30692C13.022 3.3955 13.0197 3.49108 12.9871 3.57034C12.9731 3.60298 12.8892 3.60531 12.8379 3.6193C12.8356 3.56801 12.8122 3.49341 12.8356 3.46777C12.8985 3.40716 12.9824 3.36986 13.057 3.3209C13.057 3.32323 13.036 3.30692 13.036 3.30692Z" fill="#A3FB22"/>
<path d="M26.1537 6.59869C26.0697 6.622 25.9928 6.66396 25.9672 6.64298C25.9042 6.59403 25.8669 6.5171 25.818 6.44949C25.8693 6.43784 25.9345 6.40054 25.9672 6.41919C26.0348 6.45882 26.0837 6.52875 26.1537 6.59869Z" fill="#A3FB22"/>
<path d="M28.937 30.7195C28.9114 30.7381 28.8858 30.7568 28.8624 30.7731C28.8415 30.7428 28.8182 30.7125 28.7972 30.6822C28.8275 30.6729 28.8601 30.6496 28.8881 30.6542C28.9044 30.6589 28.9184 30.6962 28.937 30.7195Z" fill="#A3FB22"/>
<path d="M27.7598 31.9364C27.8671 31.624 28.0093 31.7755 28.1491 31.9061L28.1631 31.8734C28.0209 31.8874 27.8787 31.9014 27.7365 31.9154L27.7598 31.9364Z" fill="#A3FB22"/>
<path d="M27.3845 32.1721C27.4172 31.9459 27.592 31.9483 27.7598 31.9343L27.7365 31.9133C27.7155 32.1581 27.5244 32.1348 27.3589 32.1487L27.3845 32.1721Z" fill="#A3FB22"/>
<path d="M0.258613 17.5575C0.246957 17.4946 0.237636 17.4317 0.22598 17.3687C0.249292 17.3641 0.272602 17.3617 0.295914 17.3571C0.272602 17.4153 0.251619 17.476 0.228307 17.5342L0.258613 17.5575Z" fill="#A3FB22"/>
<path d="M8.35257 25.12C8.3246 25.113 8.29895 25.106 8.27098 25.099C8.29662 25.0711 8.31994 25.0384 8.35257 25.0174C8.35957 25.0128 8.39454 25.0477 8.41552 25.0664C8.39687 25.0827 8.37588 25.1014 8.35257 25.12Z" fill="#A3FB22"/>
<path d="M27.0022 32.4121C27.0278 32.1673 27.2143 32.1836 27.3868 32.1743L27.3612 32.151C27.3286 32.3841 27.1444 32.3678 26.9812 32.3887L27.0022 32.4121Z" fill="#A3FB22"/>
<path d="M15.5979 34.1324C15.5863 34.0695 15.5606 34.0065 15.5676 33.9459C15.57 33.918 15.6306 33.8946 15.6655 33.869C15.6725 33.8993 15.6935 33.9389 15.6819 33.9576C15.6516 34.0112 15.6073 34.0578 15.5676 34.1068C15.57 34.1091 15.5979 34.1324 15.5979 34.1324Z" fill="#A3FB22"/>
<path d="M5.00734 13.7463C4.96771 13.7649 4.92808 13.7812 4.88845 13.7999C4.88379 13.7463 4.8768 13.6926 4.88146 13.639C4.88379 13.6204 4.91876 13.6064 4.93974 13.5901C4.96072 13.6437 4.98403 13.695 5.00734 13.7463Z" fill="#A3FB22"/>
<path d="M6.20325 10.8113C6.21491 10.718 6.22656 10.6271 6.23822 10.5339C6.25687 10.5502 6.2965 10.5782 6.29417 10.5828C6.25687 10.6527 6.21491 10.7204 6.17528 10.788C6.17528 10.7903 6.20325 10.8113 6.20325 10.8113Z" fill="#A3FB22"/>
<path d="M5.48053 20.3039C5.45256 20.3412 5.42459 20.4065 5.39661 20.4088C5.35698 20.4112 5.31502 20.3645 5.28005 20.3342C5.27539 20.3296 5.30803 20.262 5.31735 20.262C5.37097 20.269 5.42225 20.2876 5.48053 20.3039Z" fill="#A3FB22"/>
<path d="M5.37803 9.7131C5.35005 9.75273 5.32441 9.82266 5.30109 9.82266C5.24981 9.82033 5.19852 9.78303 5.14723 9.75972C5.16822 9.73641 5.18687 9.69678 5.21018 9.69678C5.26147 9.68979 5.31509 9.70377 5.37803 9.7131Z" fill="#A3FB22"/>
<path d="M13.9405 3.5495C13.9125 3.56582 13.8845 3.5938 13.8566 3.5938C13.8309 3.5938 13.8053 3.56815 13.7773 3.55417C13.8332 3.55183 13.8869 3.5495 13.9405 3.5495Z" fill="#A3FB22"/>
<path d="M0.226092 17.5345C0.177137 17.5904 0.130514 17.6463 0.0815586 17.7023C0.0792274 17.672 0.0699003 17.623 0.0792252 17.616C0.132843 17.5881 0.193454 17.5741 0.254065 17.5554C0.258728 17.5578 0.226092 17.5345 0.226092 17.5345Z" fill="#A3FB22"/>
<path d="M3.09802 12.0722C3.04207 11.9603 3.03041 11.7925 3.17728 11.8484C3.30782 11.8974 3.24721 12.0466 3.0747 12.0559L3.09802 12.0722Z" fill="#A3FB22"/>
</svg>
