<svg width="1366" height="60" viewBox="0 0 1366 60" fill="none" xmlns="http://www.w3.org/2000/svg">
<rect y="6.1035e-05" width="272.999" height="59.9998" fill="#CCFD5D"/>
<rect x="272.999" y="6.1035e-05" width="272.999" height="59.9998" fill="#CCFD5D"/>
<rect x="272.999" y="6.1035e-05" width="272.999" height="59.9998" fill="#A3FB22"/>
<rect x="1093" y="59.9999" width="272.999" height="59.9998" transform="rotate(-180 1093 59.9999)" fill="#565959"/>
<path d="M1093 0.00012207L1366 0.000169803L1366 60L1093 59.9999L1093 0.00012207Z" fill="#A4A6A6"/>
<path d="M1147.6 0.00012207L1202.2 0.000169803L1202.2 60L1147.6 59.9999L1147.6 0.00012207Z" fill="white" fill-opacity="0.2"/>
<path d="M1039.4 59.9999L984.797 59.9998L984.797 8.52901e-06L1039.4 6.1035e-05L1039.4 59.9999Z" fill="#0F0F0F" fill-opacity="0.2"/>
<path d="M1202.2 0.00012207L1256.8 0.000169803L1256.8 60L1202.2 59.9999L1202.2 0.00012207Z" fill="white" fill-opacity="0.4"/>
<path d="M984.797 59.9999L930.197 59.9998L930.197 8.52901e-06L984.797 6.1035e-05L984.797 59.9999Z" fill="#0F0F0F" fill-opacity="0.4"/>
<path d="M1256.8 0.00012207L1311.4 0.000169803L1311.4 60L1256.8 59.9999L1256.8 0.00012207Z" fill="white" fill-opacity="0.6"/>
<path d="M930.197 59.9999L875.597 59.9998L875.597 8.52901e-06L930.197 6.1035e-05L930.197 59.9999Z" fill="#0F0F0F" fill-opacity="0.6"/>
<path d="M1311.4 0.00012207L1366 0.000169803L1366 60L1311.4 59.9999L1311.4 0.00012207Z" fill="white" fill-opacity="0.8"/>
<path d="M875.597 59.9999L820.997 59.9998L820.997 8.52901e-06L875.597 6.1035e-05L875.597 59.9999Z" fill="#0F0F0F" fill-opacity="0.8"/>
<rect x="818.998" y="59.9999" width="272.999" height="59.9998" transform="rotate(-180 818.998 59.9999)" fill="#0F0F0F"/>
</svg>
