<svg width="60" height="42" viewBox="0 0 60 42" fill="none" xmlns="http://www.w3.org/2000/svg">
<path d="M17.766 0H22.1479V19.5515H17.766L15.5738 13.3375V19.5489H11.1919V0H15.5738L17.7634 6.20101V0H17.766Z" fill="#1D1E1E"/>
<path d="M36.0193 15.7837L36.7915 19.5489H32.2981L31.5259 15.7837H28.4526L27.6804 19.5489H23.1871L23.9593 15.7837L24.9595 10.8965L27.1907 0H32.7905L35.0216 10.8965L36.0193 15.7837ZM30.5257 10.8965L29.9893 8.27925L29.4529 10.8965H30.5257Z" fill="#1D1E1E"/>
<path d="M48.4135 4.88722V14.6617C48.4135 17.3618 46.4519 19.5489 44.0316 19.5489H41.8419C39.4217 19.5489 37.46 17.3618 37.46 14.6617V4.88722C37.46 2.18707 39.4217 0 41.8419 0H44.0316C46.4519 0 48.4135 2.18707 48.4135 4.88722ZM44.0316 6.10773C44.0316 5.43399 43.5418 4.88722 42.9355 4.88722C42.3317 4.88722 41.8394 5.43399 41.8394 6.10773V13.4386C41.8394 14.1123 42.3291 14.6591 42.9355 14.6591C43.5418 14.6591 44.0316 14.1123 44.0316 13.4386V6.10773Z" fill="#1D1E1E"/>
<path d="M10.9535 27.3358V29.7794C10.9535 32.4795 8.99186 34.6666 6.57157 34.6666H4.38191V41.9974H0V22.4485H6.57157C8.99186 22.4485 10.9535 24.6382 10.9535 27.3358ZM6.57157 28.5589C6.57157 27.8851 6.08181 27.3384 5.47545 27.3384H4.37932V29.782H5.47545C6.08181 29.782 6.57157 29.2326 6.57157 28.5589Z" fill="#1D1E1E"/>
<path d="M23.1741 22.4485V27.3358H16.6026V29.7794H20.9845V34.6666H16.6026V37.1102H23.1741V41.9974H12.2207V22.4485H23.1741Z" fill="#1D1E1E"/>
<path d="M31.2875 22.4485H35.6694V42H31.2875L29.0979 35.7886V42H24.7134V22.4485H29.0953L31.2849 28.6496V22.4485H31.2875Z" fill="#1D1E1E"/>
<path d="M37.359 29.4399V27.3384C37.359 24.6382 39.3206 22.4511 41.7409 22.4511H47.2189V27.3384H42.9458C42.6271 27.3384 42.3213 27.4809 42.0933 27.7322C41.8679 27.9836 41.7409 28.3256 41.7409 28.6807C41.7409 29.3207 42.1451 29.8727 42.71 29.997L43.6973 30.2173C45.7445 30.6734 47.2189 32.6791 47.2189 35.0086V37.1102C47.2189 39.8104 45.2573 41.9974 42.837 41.9974H37.359V37.1102H41.6321C41.9508 37.1102 42.2566 36.9677 42.4846 36.7163C42.71 36.465 42.837 36.1229 42.837 35.7653C42.837 35.1253 42.4328 34.5733 41.8679 34.4489L40.8806 34.2287C38.8334 33.7752 37.359 31.7695 37.359 29.4399Z" fill="#1D1E1E"/>
<path d="M56.0035 22.5289C56.0372 23.1793 56.1201 23.9256 56.2911 24.7444C56.5114 25.7939 56.8197 26.6905 57.1229 27.4109C55.8428 27.385 54.5627 27.3617 53.2852 27.3358V29.7794H57.6671V34.6666H53.2852V37.1102H59.8568V41.9974H48.9033V22.4485C51.2691 22.477 53.635 22.503 56.0035 22.5289Z" fill="#1D1E1E"/>
</svg>
