<svg width="41" height="44" viewBox="0 0 41 44" fill="none" xmlns="http://www.w3.org/2000/svg">
<path d="M23.8468 40.7251C23.9248 40.915 24.0054 41.1022 24.1016 41.3311C23.5607 41.4143 23.0925 41.4845 22.6244 41.5574C22.4059 41.5912 22.1536 41.5782 21.9742 41.6848C21.3916 42.0333 20.7804 41.9891 20.1926 41.8591C19.7011 42.4625 19.7011 42.4624 19.1159 42.1738C19.1445 42.0749 19.1783 41.9709 19.1991 41.8669C19.2121 41.8018 19.2069 41.7342 19.2147 41.5964C18.6347 41.6536 18.1276 42.0723 17.5502 41.9683C16.9728 41.8669 16.4084 41.6874 15.7712 41.5236C15.6776 41.6848 15.584 41.8747 15.4617 42.0437C15.3551 42.192 15.2355 42.3402 15.0872 42.4416C14.7205 42.6939 14.2316 42.5431 14.1015 42.1165C13.9845 41.7368 13.9481 41.3337 13.8596 40.8577C12.9545 40.3532 11.9662 39.7992 10.9493 39.2296C10.8115 39.2869 10.6528 39.3545 10.489 39.4221C10.1873 39.3363 10.3199 38.7095 9.81277 38.8785C9.51367 38.5638 9.17557 38.2777 8.92589 37.9292C8.72042 37.6457 8.47334 37.4455 8.18465 37.2816C7.55005 36.9201 7.0637 36.3089 6.29646 36.1685C5.76589 35.6743 5.1469 35.2634 5.12869 34.3999C5.11829 33.9448 4.79059 33.5833 4.39266 33.3596C4.00514 33.1437 3.8647 32.8602 3.76326 32.4207C3.63582 31.8615 3.32113 31.3336 3.03244 30.8212C2.79836 30.4025 2.6007 29.9811 2.45245 29.5182C1.85687 27.6482 1.3315 25.7678 1.25868 23.7912C1.25088 23.5727 1.19886 23.3543 1.16765 23.1462C0.11692 22.7977 0.184541 22.3711 0.894564 21.916C0.891963 21.349 0.967389 20.7716 0.767126 20.1891C0.611077 19.7365 0.855552 19.3074 1.08182 18.9355C1.39652 18.4205 1.59418 17.8743 1.68781 17.2839L1.67221 17.2995C1.74503 17.1071 1.84386 16.9172 1.88287 16.7196C1.92189 16.5115 1.90108 16.2904 1.90628 16.0746C2.05713 15.7105 2.33282 15.3932 2.42905 14.9068C1.88028 15.2709 1.86727 15.3073 1.93489 16.0954C1.82045 16.1682 1.70602 16.2436 1.56037 16.3372C1.29769 16.1318 1.68781 15.6558 1.26908 15.492C1.24567 15.4816 1.25868 15.2761 1.30809 15.1929C1.54217 14.782 1.51616 14.2618 1.91148 13.9055C2.08574 13.7494 2.13775 13.4477 2.23138 13.2059C2.6007 12.2358 3.00123 11.2943 3.89591 10.6571C4.09097 10.5166 4.2054 10.2513 4.33284 10.0303C4.61633 9.53871 5.01946 9.1668 5.4824 8.8547C5.55783 8.80268 5.68006 8.81829 5.89593 8.78448C5.75549 9.04716 5.64626 9.21881 5.56563 9.40347C5.40178 9.77799 4.91803 9.86122 4.81139 10.3216C4.72296 10.7039 4.46288 11.042 4.31984 11.4139C4.26002 11.57 4.30944 11.765 4.31204 11.9471C4.13778 12.0433 3.91671 12.0979 3.79448 12.241C3.62542 12.436 3.48498 12.5999 3.21709 12.7013C3.01163 12.7793 2.84778 13.042 2.73334 13.2579C2.5981 13.5128 2.51227 13.8015 2.44465 14.0849C2.40824 14.2306 2.49407 14.3658 2.69173 14.345C2.99863 14.0979 2.99602 13.583 3.45117 13.4659L3.42516 13.4477C3.2431 13.9237 3.05584 14.3996 2.87899 14.8782C2.78016 15.1487 2.67092 15.4218 2.62151 15.7052C2.5955 15.8587 2.6033 16.085 2.86078 16.1162C3.33933 15.7339 2.95961 14.7898 3.8647 14.7091C3.69044 14.0641 3.78407 13.5154 4.16639 13.0186C4.27563 12.8756 4.35365 12.7039 4.41867 12.5349C4.5071 12.3086 4.43167 12.1031 4.27563 11.9263C4.5045 11.9419 4.79839 11.648 4.89462 12.0979C5.26394 11.8768 5.02206 11.1122 5.7841 11.2891C5.56563 11.7832 5.35496 12.241 5.1573 12.7013C5.00906 13.0446 5.01426 13.0472 5.18851 13.6922C5.68007 13.5882 5.38097 12.8522 5.98436 12.7429C5.99217 13.1148 5.87773 13.4165 5.76069 13.7104C5.54743 14.254 5.32376 14.795 5.07408 15.3229C5.00646 15.4634 4.81919 15.544 4.68915 15.6506C4.76978 15.7807 4.84521 15.9003 4.90763 15.9991C4.86081 16.2904 4.59292 16.163 4.47069 16.3164C4.47069 16.3425 4.44728 16.4465 4.47069 16.4595C4.68655 16.5661 4.81659 16.7118 4.78278 16.9692C4.74897 17.2241 4.71516 17.479 4.70736 17.7365C4.69696 18.0824 4.78539 18.3919 5.12089 18.5766L5.12609 18.5713C4.78799 18.5766 4.69436 18.847 4.66054 19.0889C4.62413 19.3308 4.69436 19.5883 4.72297 19.8796C5.30815 19.6871 5.31855 19.1123 5.59424 18.756C5.7893 18.5063 5.71388 18.124 5.54482 17.8171L5.53442 17.8405C5.67746 17.8093 5.81791 17.7781 5.99476 17.7391C6.15081 17.994 6.29906 18.2358 6.45251 18.4829C6.47852 18.4231 6.52533 18.3685 6.51753 18.3191C6.43691 17.7417 6.1196 17.2007 6.22624 16.6285C7.39661 15.6922 8.76984 15.6402 10.1847 15.5206C10.3355 15.7807 10.5202 16.0121 10.6164 16.2774C11.0742 17.5466 11.9428 18.5531 12.7283 19.6091C12.9051 19.8484 13.0846 20.0252 13.0898 20.3477C13.0924 20.4543 13.3265 20.5558 13.5475 20.7326C13.7114 20.2073 13.7504 19.7755 13.805 19.349C14.0131 17.6663 14.2081 15.9809 14.4396 14.3008C14.541 13.57 14.7127 12.8496 14.874 12.1291C14.9364 11.843 15.017 11.5517 15.1496 11.2917C15.6542 10.293 16.3824 9.97565 17.4436 10.3632C18.5827 10.7819 19.6959 11.2787 20.835 11.7494C21.3422 11.726 21.2902 11.1668 21.5945 10.8781C22.9313 10.6337 24.2863 10.7585 25.6361 11.0212C25.8546 11.0628 26.0679 11.1252 26.2889 11.146C27.1914 11.224 27.7116 11.843 28.1823 12.501C28.4788 12.9198 28.7051 13.3879 28.9574 13.8379C29.1628 14.202 29.3007 14.5479 28.9522 14.938C28.8325 15.0733 28.8299 15.3515 28.8481 15.5596C28.9002 16.15 28.8767 16.7326 28.7571 17.3126C28.5829 18.1656 28.7207 19.0005 28.8663 19.8379C28.9158 20.1214 28.9704 20.4257 28.921 20.7014C28.8247 21.2294 28.8924 21.7313 28.999 22.2411C29.1342 22.9017 29.1342 22.9017 29.9353 23.0812C30.0055 23.5155 29.9899 23.929 29.8234 24.366C29.6986 24.6911 29.7428 25.0812 29.7168 25.4401C29.7142 25.4739 29.722 25.5259 29.7454 25.5415C30.3176 25.9629 30.1329 26.6989 30.4502 27.2269C30.8066 27.8173 30.7701 28.4206 30.5101 29.0318C30.3696 29.3647 30.237 29.7002 30.0965 30.0514C28.9886 29.4298 28.2578 28.5299 27.6778 27.4948C27.5191 27.2087 27.4385 26.8784 27.3319 26.5663C27.129 25.9759 26.9391 25.3803 26.4684 24.8783C25.6647 25.1774 24.8767 25.4713 24.0366 25.7834C23.7948 26.7405 23.4306 27.6638 23.3552 28.6625C23.3422 28.842 23.3344 29.0474 23.2434 29.1931C23.0795 29.461 23.0509 29.7237 23.0509 30.0305C23.0509 30.2724 22.9209 30.5247 22.809 30.7536C22.6868 31.0059 22.3955 31.1151 22.151 30.9824C21.9326 30.8654 21.7141 30.7068 21.5581 30.5143C20.8948 29.7002 20.7362 28.7041 20.6816 27.708C20.5879 25.9733 20.5593 24.2359 20.5021 22.5012C20.4969 22.3165 20.4787 22.1293 20.4995 21.9472C20.692 20.1422 20.5984 18.3295 20.6816 16.5245C20.7154 15.7859 20.7804 15.0472 20.8896 14.319C20.9729 13.7728 20.9495 13.2709 20.5827 12.7455C20.5021 12.8678 20.3981 12.964 20.3617 13.0836C19.7791 14.9198 19.4722 16.8184 19.1705 18.7118C19.0717 19.3256 19.1263 19.9654 19.1393 20.5948C19.1731 22.1215 18.9624 23.6065 18.5333 25.0734C18.3694 25.63 18.2914 26.2464 18.3382 26.8211C18.4163 27.7626 18.2732 28.6625 18.0548 29.5624C17.8987 30.2074 17.7427 30.855 17.5788 31.5C17.4982 31.8147 17.3005 32.0228 16.9702 32.0618C15.9091 32.1918 14.8558 32.4259 13.688 32.3271C13.2042 31.7835 12.6711 31.2217 12.1847 30.6209C11.6723 29.9889 11.2094 29.3179 10.7178 28.6729C10.4318 28.2958 10.1977 27.8875 9.85438 27.539C9.54488 27.2243 9.45125 26.7067 9.23538 26.2958C8.84006 25.5441 8.40832 24.8107 8.0234 24.0539C7.62288 23.2632 7.26396 22.4518 6.88164 21.6533C6.77241 21.4244 6.64497 21.2034 6.52793 20.9797C5.7945 21.3958 5.7945 21.3958 5.17551 21.4114C4.86341 21.9108 4.86861 22.4414 4.97265 23.0005C5.07408 23.5441 5.10789 24.1007 5.20152 24.6495C5.27694 25.0838 5.34716 25.5285 5.50841 25.9369C5.66966 26.3478 5.88813 26.7249 5.88813 27.1931C5.88813 27.3543 6.03638 27.5182 6.12221 27.6768C6.17422 27.773 6.29386 27.8719 6.28086 27.9551C6.19243 28.5819 6.55654 29.0838 6.69439 29.643C6.84003 30.2386 7.24576 30.6547 7.47723 31.1853C7.61767 31.5104 7.88296 31.7861 7.92457 32.1684C7.94798 32.3895 8.10403 32.4311 8.28869 32.5065C8.40832 32.5533 8.47074 32.7926 8.51496 32.9565C8.55917 33.1229 8.48895 33.3466 8.57477 33.4714C9.24578 34.4441 9.94281 35.4012 11.0846 35.885C11.1132 35.898 11.1574 35.8746 11.2068 35.8668C11.6359 35.4532 10.7621 35.2088 11.0039 34.8837C11.2588 35.0657 11.5241 35.2504 11.818 35.4585C11.9662 35.3856 12.0963 35.3336 12.2159 35.2634C12.4656 35.1151 12.7257 35.214 12.7439 35.4298C12.7751 35.8122 13.2979 35.9136 13.1964 36.3583C13.1782 36.4442 13.4253 36.6366 13.5814 36.7094C14.3174 37.0528 15.043 37.4299 15.8102 37.6795C16.3226 37.8486 16.8116 38.1841 17.3993 38.0801L17.3681 38.0541C18.1458 38.5404 18.1068 38.5716 19.8103 37.6665C19.8987 37.7108 20.034 37.7368 20.086 37.8148C20.2654 38.0853 20.4891 38.1945 20.8194 38.1945C22.099 38.1945 23.3864 38.3662 24.64 37.9604C25.2148 38.0983 25.722 37.5573 26.3306 37.8044C26.445 37.8512 26.6817 37.6067 26.9313 37.4533C27.0094 37.5235 27.116 37.69 27.2564 37.7316C27.4177 37.7784 27.6127 37.7134 27.8468 37.69C27.7272 37.4351 27.6336 37.2374 27.4905 36.9253C27.8182 37.0684 28.0133 37.1542 28.2083 37.24L28.1823 37.2062C28.4034 37.4481 28.4684 37.4429 28.6635 37.162L28.6219 37.1932C28.8768 37.1438 29.1524 37.1412 29.3137 36.8811L29.2721 36.9123C29.4541 36.8603 29.6674 36.8525 29.7324 36.6158L29.696 36.6522C29.8781 36.6002 30.1121 36.6236 30.1512 36.3531L30.1147 36.3895C30.6687 36.3011 31.1317 36.0722 31.4177 35.5625L31.4021 35.5989C31.6362 35.4246 31.8781 35.2608 32.0992 35.0683C32.4451 34.7666 32.7286 34.4259 32.5049 33.8876C33.0693 33.6379 33.4854 33.3024 33.8521 32.8862C34.2396 32.4493 34.6662 32.0436 35.1135 31.6665C35.566 31.2841 35.9744 30.8784 36.1929 30.3166C36.2059 30.2828 36.2319 30.2516 36.2605 30.2308C37.423 29.3699 37.6025 28.0175 37.9926 26.7717C38.2137 26.0695 38.4347 25.3673 38.6402 24.6625C38.7104 24.4206 38.7598 24.1631 38.7624 23.9134C38.7703 23.141 38.7677 22.3685 38.7338 21.5961C38.713 21.1175 38.6402 20.6416 38.5674 20.1657C38.5102 19.8067 38.3437 19.4634 38.4712 19.0785C38.5102 18.9589 38.4582 18.7898 38.4061 18.6598C37.7897 17.0837 37.1629 15.5102 36.544 13.9341C36.5049 13.8353 36.4529 13.6688 36.4971 13.622C36.9575 13.1617 36.57 13.0888 36.2293 12.9224C36.0966 12.8574 36.016 12.6207 35.9718 12.4464C35.7065 11.4009 35.5348 11.1148 34.687 10.4126C34.5595 10.5868 34.4321 10.7585 34.3073 10.9302C34.12 10.8287 33.9327 10.7273 33.7429 10.6233L33.7845 10.6571C33.5348 10.0589 33.0875 9.62454 32.5777 9.25262C31.9223 8.77667 31.2513 8.31893 30.5855 7.85599C30.4658 7.77276 30.3436 7.67393 30.2084 7.62711C29.7402 7.47106 29.3449 7.21618 29.012 6.85727C28.8507 6.68562 28.6479 6.57898 28.419 6.64921C28.2135 6.71423 28.0315 6.84167 27.8104 6.68302C27.3475 6.35011 26.6453 6.39693 26.3149 5.63749C26.4034 5.57247 26.5464 5.46844 26.7285 5.33579C25.9638 5.0315 25.2824 4.7064 24.51 4.53734C23.2954 4.26946 22.047 4.14722 20.861 3.72849C20.1536 3.47881 19.402 3.63746 18.6477 3.62966C18.9884 3.55423 19.3292 3.47881 19.6569 3.40859C19.7063 3.1225 19.7453 2.88322 19.7921 2.61014C19.7193 2.59713 19.61 2.54512 19.532 2.57373C19.3682 2.63615 19.1757 2.70897 19.0743 2.83901C18.5671 3.47881 17.9221 3.68428 17.1315 3.55944C16.9598 3.53343 16.7517 3.54383 16.6009 3.61665C16.2914 3.7701 16.0105 3.93395 15.7348 3.58024C15.3343 3.61665 14.9338 3.65046 14.5333 3.68688L14.5567 3.70508C14.6139 3.50222 14.6087 3.22653 14.7413 3.1095C14.9468 2.93004 15.1757 2.70117 15.5164 2.75838C15.636 2.77919 16.0131 2.53992 16.1796 2.41768C16.4136 2.24342 16.6529 2.07177 16.9078 1.92612C17.0508 1.8429 17.1081 1.76487 17.1133 1.59062C17.1185 1.43457 17.2485 1.36175 17.4332 1.40336C17.9429 1.51519 18.3434 1.34354 18.6425 0.906604C18.0287 0.963822 17.4306 1.02104 16.7986 1.08086C16.6867 0.815575 16.9936 0.701139 17.1211 0.675131C18.0105 0.490473 18.848 0.108153 19.7739 0.0457333C21.4878 -0.0713035 23.168 0.00672096 24.7935 0.630917C25.1368 0.763559 25.4879 0.883196 25.8364 1.00283C27.8806 1.69465 29.7896 2.65175 31.5478 3.90274C31.9977 4.22264 32.4191 4.58676 32.843 4.94307C33.2357 5.27598 33.5894 5.64789 34.0862 5.85596C34.3437 5.96259 34.5517 6.21227 34.7546 6.42294C36.016 7.72594 37.1838 9.10178 38.081 10.6883C38.1695 10.8469 38.3021 10.9796 38.4217 11.133C38.544 11.133 38.648 11.1278 38.7521 11.1304C39.5141 11.146 39.8262 11.5882 39.5401 12.2696C39.4725 12.4308 39.3424 12.5661 39.2046 12.7637C40.453 14.8886 41.0824 17.1643 40.9914 19.8952C40.8405 19.5285 40.7521 19.4088 40.7443 19.2866C40.7001 18.3477 40.3958 17.479 40.0733 16.6103C39.7898 15.8509 39.5089 15.0889 39.2228 14.3294C39.1578 14.1578 39.0329 14.1344 38.8847 14.2332C38.8743 14.1656 38.8587 14.1005 38.8431 14.0355C38.8587 14.0953 38.8769 14.1526 38.8925 14.2124C39.15 15.0212 39.4049 15.8301 39.6597 16.6389C39.6935 16.7456 39.6962 16.873 39.7612 16.9536C40.3281 17.6533 40.2371 18.5427 40.4712 19.3386C40.3177 20.483 40.6454 21.6091 40.5934 22.7483C40.5466 23.7392 40.6298 24.7353 40.427 25.7184C40.4192 25.7548 40.4322 25.7964 40.4166 25.8276C40.0655 26.5715 40.1643 27.4037 39.9432 28.1736C39.8236 28.5923 39.7742 29.0526 39.3502 29.3179C39.1656 29.9395 38.6324 30.4181 38.6636 31.1385C38.674 31.4012 38.4868 31.6717 38.3931 31.9239C38.1747 31.9135 38.0342 31.9083 37.9094 31.9031C37.28 32.6314 36.648 33.3466 36.0368 34.0774C35.5895 34.6132 35.1655 35.1724 34.7312 35.7185L34.7624 35.6847C34.6064 35.7784 34.4061 35.8408 34.3047 35.9734C33.7065 36.7537 32.8924 37.2738 32.0914 37.7914C31.1317 38.4104 30.1407 38.9852 29.1316 39.5209C28.1563 40.0411 27.0614 40.2127 25.9976 40.452C25.878 40.478 25.735 40.3896 25.6023 40.3636C25.3578 40.3142 25.1108 40.2752 24.9157 40.2388C24.7024 40.374 24.9885 40.6003 24.7024 40.6861C24.4241 40.7693 24.1225 40.4104 23.8832 40.7563C23.6439 40.6419 23.4046 40.5248 23.1081 40.3792C22.9963 40.6133 22.9079 40.7979 22.8038 41.0138C23.0197 41.0892 23.1862 41.162 23.363 41.2037C23.7115 41.2843 23.774 41.2141 23.8468 40.7251ZM29.7272 37.6301C29.8573 37.5339 29.9873 37.4351 30.1173 37.3388C30.2136 37.2166 30.3098 37.097 30.406 36.9747C30.5855 36.9591 30.8144 37.0293 30.83 36.7276C31.0328 36.6704 31.2357 36.6132 31.4386 36.5534C31.4568 36.4754 31.4724 36.3973 31.4906 36.3167C31.462 36.3323 31.4125 36.3479 31.4125 36.3609C31.4151 36.4234 31.4308 36.4858 31.4412 36.5482C31.2409 36.595 30.9886 36.4962 30.8612 36.7537C30.7207 36.8369 30.5803 36.9175 30.4398 37.0007C30.2474 37.0345 30.1381 37.1386 30.1329 37.3388C29.9301 37.3206 29.7376 37.318 29.7324 37.5989C29.6622 37.6822 29.592 37.7602 29.5608 37.5755C29.6154 37.5963 29.67 37.6119 29.7272 37.6301ZM25.865 23.6377C25.5165 22.5298 25.2954 22.1501 24.6816 21.6013C24.4528 22.431 24.2083 23.2216 24.2655 24.0669C24.2681 24.1189 24.3643 24.1631 24.4216 24.2151C24.9469 24.1943 25.3786 23.9342 25.865 23.6377ZM33.2227 9.05756C33.2721 8.98734 33.3059 8.95873 33.3137 8.92492C33.4204 8.42556 32.6323 8.20449 32.908 7.64012C32.9132 7.62971 32.7416 7.49187 32.6427 7.47627C32.4009 7.43985 32.1512 7.44246 31.7897 7.42165C32.2474 8.10046 32.6973 8.60762 33.2227 9.05756ZM33.6701 7.56729C33.9561 7.75455 34.185 7.9106 34.4191 8.05105C34.4477 8.06665 34.5257 8.00423 34.5777 7.97562C34.25 7.41385 34.25 7.41385 33.6701 7.56729ZM38.7781 25.8354C38.8925 25.5285 38.9497 25.4375 38.9549 25.3413C38.9601 25.2607 38.9029 25.1748 38.8743 25.0916C38.8093 25.1618 38.7104 25.2242 38.687 25.3049C38.6636 25.3959 38.7156 25.5025 38.7781 25.8354ZM20.7674 2.53992C20.7076 2.57113 20.5958 2.61534 20.601 2.63355C20.6192 2.71937 20.6504 2.84681 20.7128 2.87282C20.796 2.90663 20.9182 2.87802 21.0119 2.84681C21.0405 2.83641 21.0665 2.69336 21.0457 2.67776C20.9651 2.61534 20.8636 2.58153 20.7674 2.53992ZM33.0823 6.3033C33.0303 6.26949 32.9808 6.23568 32.9288 6.20187C32.8482 6.3163 32.7624 6.42814 32.6895 6.54777C32.6791 6.56598 32.7025 6.6336 32.726 6.6414C32.7806 6.66221 32.882 6.68562 32.8976 6.66221C32.9704 6.55038 33.0225 6.42294 33.0823 6.3033ZM1.71122 25.2841C1.79445 25.2971 1.87767 25.3075 1.9609 25.3205C1.90888 24.9954 1.85687 24.6703 1.80485 24.3478C1.74503 24.3556 1.68521 24.366 1.62279 24.3738C1.654 24.6755 1.68261 24.9798 1.71122 25.2841ZM4.10397 20.4647C4.08056 20.5766 4.01815 20.6962 4.04936 20.782C4.07276 20.8419 4.22361 20.8549 4.31984 20.8757C4.32504 20.8783 4.38486 20.7534 4.36666 20.73C4.29383 20.6338 4.2002 20.5558 4.10397 20.4647ZM24.2213 2.89883C23.3162 2.74538 22.4085 2.59193 21.5034 2.43848C22.2863 2.68556 23.0379 2.94044 23.8676 3.17191C24.2577 3.28115 24.7987 3.34097 25.272 3.42159C24.9235 3.24994 24.5724 3.07568 24.2213 2.89883ZM31.8833 6.91189C31.9821 6.96911 32.068 7.02112 32.1564 7.07314C32.172 7.04453 32.211 6.99512 32.2032 6.98731C32.1434 6.92229 32.0784 6.86247 32.0107 6.80786C32.0055 6.80526 31.9613 6.84947 31.8833 6.91189ZM32.5855 35.6457C32.6089 35.6197 32.6349 35.5937 32.6583 35.5677C32.5985 35.5469 32.5387 35.5209 32.4763 35.5131C32.4529 35.5105 32.4269 35.5573 32.4009 35.5833C32.4633 35.6041 32.5231 35.6249 32.5855 35.6457ZM1.9531 19.0889C1.9557 19.0369 1.9583 18.9849 1.9609 18.9329C1.89848 18.9511 1.83866 18.9693 1.77624 18.9875C1.79705 19.0343 1.80745 19.0889 1.83866 19.1253C1.84906 19.1357 1.91409 19.1019 1.9531 19.0889ZM28.8065 37.924C28.7805 37.9188 28.7545 37.9136 28.7311 37.9084C28.7493 37.9344 28.7675 37.9578 28.7831 37.9838C28.7909 37.9656 28.7987 37.9448 28.8065 37.924ZM20.3955 39.8512C20.3435 39.8226 20.2941 39.7914 20.2368 39.7732C20.2238 39.7706 20.1796 39.82 20.177 39.846C20.177 39.872 20.2186 39.9241 20.2316 39.9215C20.2888 39.9084 20.3409 39.8772 20.3955 39.8512ZM29.5582 5.17714C29.5348 5.19795 29.4853 5.23176 29.4905 5.23956C29.5139 5.28898 29.5504 5.33579 29.5842 5.38261C29.6024 5.33059 29.6284 5.28118 29.6388 5.22916C29.6362 5.21616 29.5842 5.19535 29.5582 5.17714ZM3.98174 19.3516H4.12998L4.04936 19.1617L3.98174 19.3516ZM23.6101 2.04056C23.9092 2.06657 24.2057 2.09518 24.5048 2.12118C24.2681 1.98854 24.0444 1.8429 23.787 1.73106C23.6673 1.67905 23.4827 1.69465 23.3266 1.67905C23.4228 1.79868 23.5165 1.92092 23.6101 2.04056ZM26.1121 2.29024C26.0809 2.34225 26.0523 2.39687 26.0211 2.44889C26.1407 2.52171 26.2603 2.59713 26.3826 2.66476C26.4008 2.67516 26.4684 2.64395 26.4736 2.62314C26.4892 2.56592 26.5074 2.46449 26.484 2.45149C26.367 2.38387 26.2369 2.34225 26.1121 2.29024ZM27.3215 3.1355C27.9118 3.36177 28.4372 3.56464 28.9626 3.7649C29.1004 3.7571 29.3891 3.7571 29.3501 3.73629C29.0224 3.56464 28.6453 3.38778 28.2447 3.21093C28.2109 3.20052 27.8832 3.18232 27.3215 3.1355ZM23.4567 39.1282C23.0873 39.201 22.7206 39.2713 22.3539 39.3441C22.047 39.4871 21.7375 39.6302 21.4306 39.7732C21.0067 39.6562 20.5307 39.3493 20.281 39.8798C19.7739 39.8226 19.2667 39.7628 18.7596 39.7056C18.6633 39.833 18.5671 39.9631 18.4683 40.0905C18.5411 40.0853 18.6711 40.0983 18.6815 40.0723C18.7206 39.9579 18.7258 39.8304 18.7544 39.7082C19.2485 39.7836 19.7557 40.1633 20.2316 39.8018C20.614 39.7654 20.9963 39.729 21.376 39.69C21.8389 39.7836 22.1666 39.6796 22.3253 39.3259C22.7778 39.5235 23.2148 39.6822 23.428 39.1776C23.6465 39.084 23.8624 38.9982 23.8052 39.3597C23.6855 39.2817 23.5711 39.2036 23.4567 39.1282ZM26.3852 39.3883C26.5698 39.3493 26.8299 39.2921 27.1368 39.2114C28.9054 38.7433 30.2292 38.0281 30.2162 37.9968C30.211 37.9838 30.0055 38.0775 29.2487 38.335C29.2487 38.335 28.8924 38.4546 28.4866 38.5846C27.8754 38.7797 26.4918 39.1724 24.6452 39.6354C25.2252 39.5521 25.8052 39.4715 26.3852 39.3883Z" fill="#B0CC22"/>
<path d="M33.0433 14.4335C33.6362 14.9666 33.6674 15.6428 33.475 16.2748C33.2019 17.1773 33.1707 18.0824 33.1603 19.0083C33.1421 20.483 33.0849 21.9576 33.0641 23.4323C33.0563 23.9472 33.1369 24.4648 33.1421 24.9798C33.1525 26.1215 33.1525 27.2659 33.1343 28.4076C33.1317 28.6209 33.0511 28.8446 32.9574 29.0396C32.7103 29.5572 32.0679 29.6742 31.6622 29.2633C31.4854 29.0865 31.3501 28.8498 31.2487 28.6183C30.9314 27.9031 30.7571 27.154 30.7363 26.3686C30.6999 25.0032 30.6479 23.6377 30.6141 22.2723C30.6089 22.0174 30.6609 21.76 30.6921 21.5051C30.7623 20.9199 30.8039 20.3399 30.7207 19.7417C30.5361 18.4023 30.8352 17.0993 31.1265 15.8015C31.1655 15.6324 31.2669 15.4244 31.4021 15.3385C31.9275 15.0212 32.4789 14.7404 33.0433 14.4335Z" fill="#B0CC22"/>
<path d="M36.9159 16.7326C37.5505 17.7885 37.4984 18.9667 37.4646 20.0902C37.4386 20.9511 37.1135 21.812 36.8717 22.6572C36.7832 22.9641 36.583 23.258 36.3775 23.5077C36.0628 23.89 35.5842 23.8926 35.2019 23.5649C34.9106 23.3152 34.739 22.9953 34.6532 22.626C34.4217 21.6195 34.1798 20.613 33.9613 19.6013C33.8027 18.86 33.8027 18.1344 34.2448 17.466C34.8274 16.5869 35.5634 16.319 36.6246 16.6181C36.7312 16.6494 36.83 16.6988 36.9159 16.7326Z" fill="#B0CC22"/>
<path d="M33.7533 10.6207C33.8235 10.8625 33.8651 11.1174 33.9665 11.3463C34.3229 12.1551 33.4152 13.3411 32.7233 13.5128C32.0159 13.687 31.2097 13.0134 31.2799 12.2618C31.3319 11.7104 31.501 11.185 31.8573 10.7429C32.2656 10.2331 32.6947 10.1343 33.3111 10.4048C33.4776 10.4776 33.6336 10.5712 33.7949 10.6571C33.7949 10.6545 33.7533 10.6207 33.7533 10.6207Z" fill="#B0CC22"/>
<path d="M37.4022 25.7704C37.4647 26.3764 37.4386 26.8472 37.137 27.2685C36.8353 27.6872 36.3853 27.8823 35.8808 27.7678C35.3788 27.6534 35.1473 27.2685 35.0771 26.8133C34.9705 26.1189 35.1681 25.4843 35.6623 24.9798C36.2995 24.3296 37.1031 24.5636 37.345 25.4505C37.384 25.5936 37.397 25.7418 37.4022 25.7704Z" fill="#B0CC22"/>
<path d="M7.43561 27.9447C7.88295 27.9057 8.22886 28.0747 8.3381 28.3868C8.44993 28.7041 8.25747 29.2633 7.96878 29.448C7.80233 29.5546 7.4096 29.5364 7.24575 29.3908C6.95186 29.1307 6.84523 28.7926 6.89984 28.4102C6.93365 28.1762 7.19114 27.9655 7.43561 27.9447Z" fill="#B0CC22"/>
<path d="M22.3175 33.3336C22.9287 33.4792 23.2434 33.8121 23.311 34.3791C23.3474 34.6834 23.142 34.9487 22.8377 35.0059C22.3409 35.0969 21.8832 34.6392 22.0132 34.1607C22.086 33.8902 22.2057 33.6301 22.3175 33.3336Z" fill="#B0CC22"/>
<path d="M34.739 35.7185C34.8768 35.7159 35.0173 35.7159 35.1941 35.7133C34.5699 36.7355 33.8079 37.5001 33.0719 37.833C33.2513 37.3961 33.6128 37.1906 33.8859 36.9149C34.2474 36.5508 34.6506 36.2205 34.7702 35.6847L34.739 35.7185Z" fill="#B0CC22"/>
<path d="M13.2849 4.01458C13.5163 4.16283 13.7244 4.29807 13.9325 4.43332C13.7738 4.7012 13.6698 4.95348 13.3213 4.82084C13.2485 4.79223 13.1366 4.80523 13.0638 4.84164C12.9233 4.91707 12.7855 4.97689 12.6867 4.81304C12.567 4.61797 12.6581 4.46453 12.8271 4.34489C12.9728 4.24086 13.1184 4.13422 13.2849 4.01458Z" fill="#B0CC22"/>
<path d="M12.8115 34.1554C12.5879 33.8538 12.3512 33.5521 12.1431 33.2322C12.1093 33.1801 12.1717 33.0163 12.2367 32.9565C12.3044 32.8941 12.4474 32.8446 12.528 32.8706C12.8583 32.9773 13.16 33.6769 13.0326 34.0202C13.0144 34.0696 12.9208 34.0904 12.8115 34.1554Z" fill="#B0CC22"/>
<path d="M12.3876 4.07701C11.7218 4.78183 11.1756 5.15115 10.4474 5.43724C10.4968 5.27079 10.502 5.13034 10.5514 5.11474C11.0404 4.94829 11.3993 4.60498 11.7738 4.27467C11.8622 4.19665 12.0183 4.19145 12.3876 4.07701Z" fill="#B0CC22"/>
<path d="M38.1044 20.5818C38.0784 21.1566 37.8964 21.7574 38.3645 22.2463C38.1825 22.3633 38.0628 22.4414 37.9068 22.5428C37.9094 22.1839 37.9198 21.864 37.912 21.5467C37.9042 21.232 37.8756 20.9173 37.8548 20.6026C37.938 20.5974 38.0212 20.5896 38.1044 20.5818Z" fill="#B0CC22"/>
<path d="M0.504452 21.9524C0.418626 21.2814 -0.189963 20.73 0.0597151 19.929C0.686512 20.5428 0.442033 21.2944 0.504452 21.9524Z" fill="#B0CC22"/>
<path d="M8.68402 30.1528C8.83226 30.3635 8.97791 30.4883 9.00912 30.6391C9.05333 30.8472 8.80626 31.0553 8.58779 31.0163C8.40053 30.9851 8.20027 30.8654 8.26269 30.6652C8.3147 30.4909 8.50456 30.3609 8.68402 30.1528Z" fill="#B0CC22"/>
<path d="M20.5801 43.5106C20.3851 43.3259 20.1874 43.2245 20.1796 43.1101C20.1692 42.9774 20.2941 42.7798 20.4163 42.7069C20.5827 42.6081 20.8142 42.7147 20.8298 42.8942C20.8454 43.0554 20.6998 43.2349 20.5801 43.5106Z" fill="#B0CC22"/>
<path d="M35.5765 13.8223C35.3112 13.4634 35.0303 13.2319 35.0719 12.6753C35.3294 13.0628 35.5062 13.3281 35.6753 13.596C35.6857 13.609 35.6519 13.6532 35.5765 13.8223Z" fill="#B0CC22"/>
<path d="M28.6921 40.3818C28.3098 40.6939 27.9717 40.8838 27.5321 40.8135C27.4541 40.5587 27.631 40.4598 27.7896 40.4312C28.0601 40.3844 28.3384 40.3974 28.6921 40.3818Z" fill="#B0CC22"/>
<path d="M16.3798 35.3232C16.3122 35.4012 16.2316 35.5573 16.1067 35.6301C15.9689 35.7107 15.7296 35.5339 15.7426 35.3596C15.753 35.2452 15.8415 35.0943 15.9377 35.0371C16.0937 34.9435 16.3096 35.0683 16.3798 35.3232Z" fill="#B0CC22"/>
<path d="M32.1616 1.88713C31.9639 2.08479 31.8729 2.23824 31.7402 2.29286C31.5868 2.35788 31.3501 2.15241 31.3891 1.99896C31.4203 1.88193 31.5322 1.71027 31.6258 1.69987C31.7584 1.68427 31.9067 1.7909 32.1616 1.88713Z" fill="#B0CC22"/>
<path d="M28.2135 37.2374C28.289 37.1256 28.341 36.9565 28.4476 36.9097C28.8611 36.7251 29.2903 36.5794 29.7142 36.4182L29.6778 36.3922C29.6856 36.4754 29.6908 36.5612 29.6986 36.6444L29.735 36.608C29.5426 36.647 29.3033 36.6106 29.2747 36.9045L29.3163 36.8733C29.0406 36.8759 28.7753 36.9019 28.6245 37.1854L28.6661 37.1542C28.5048 37.1698 28.3462 37.1828 28.1849 37.1984C28.1875 37.2062 28.2135 37.2374 28.2135 37.2374Z" fill="#B0CC22"/>
<path d="M9.8674 34.0826C10.0755 34.2699 10.2835 34.4545 10.489 34.647C10.5098 34.6652 10.502 34.712 10.5098 34.7536C10.3642 34.9877 10.1977 34.8187 10.0885 34.7328C9.93242 34.6132 9.81798 34.4363 9.68534 34.2855C9.75556 34.2257 9.82839 34.1685 9.89861 34.1086C9.89861 34.1112 9.8674 34.0826 9.8674 34.0826Z" fill="#B0CC22"/>
<path d="M21.5034 34.8135C21.5217 35.0865 21.3526 35.2634 21.1653 35.2114C21.0509 35.1802 20.9209 35.0657 20.8766 34.9565C20.8116 34.7979 21.0015 34.5378 21.1497 34.5768C21.2954 34.6184 21.4176 34.7536 21.5034 34.8135Z" fill="#B0CC22"/>
<path d="M1.69562 17.2839C1.52657 17.4478 1.36012 17.6116 1.14425 17.8197C1.00901 17.4634 1.06623 17.2007 1.34191 16.9718C1.46415 17.0941 1.57079 17.2007 1.67742 17.3021C1.68002 17.2969 1.69562 17.2839 1.69562 17.2839Z" fill="#B0CC22"/>
<path d="M1.49277 31.0111C1.63321 31.2243 1.77886 31.3518 1.79186 31.4896C1.80747 31.6769 1.64882 31.8043 1.44856 31.8173C1.2769 31.8303 1.07924 31.6249 1.13646 31.4636C1.18848 31.3232 1.32892 31.2139 1.49277 31.0111Z" fill="#B0CC22"/>
<path d="M37.2956 2.40729C37.4542 2.62315 37.5895 2.74019 37.6233 2.88063C37.6389 2.94305 37.4594 3.11471 37.3528 3.12771C37.254 3.14072 37.0433 2.99507 37.0511 2.94045C37.0693 2.78961 37.176 2.64916 37.2956 2.40729Z" fill="#B0CC22"/>
<path d="M5.55264 17.8197C5.4304 17.6039 5.28476 17.3984 5.19893 17.1695C5.16772 17.0837 5.27695 16.9459 5.36018 16.7352C5.69829 17.1435 5.53444 17.5024 5.54224 17.8379C5.54224 17.8431 5.55264 17.8197 5.55264 17.8197Z" fill="#B0CC22"/>
<path d="M8.49415 25.8146C8.38492 25.9447 8.3329 26.0643 8.26268 26.0773C8.05981 26.1163 7.92457 25.9863 7.89336 25.799C7.88296 25.7314 8.0182 25.5702 8.04421 25.5806C8.18465 25.6274 8.31469 25.7158 8.49415 25.8146Z" fill="#B0CC22"/>
<path d="M30.0627 39.8616C29.7584 39.9969 29.5478 40.1009 29.3293 40.1815C29.2955 40.1945 29.1993 40.1165 29.181 40.0619C29.1602 40.0047 29.1732 39.9007 29.2123 39.8616C29.4385 39.6484 29.683 39.5678 30.0627 39.8616Z" fill="#B0CC22"/>
<path d="M24.4762 41.2557C24.5932 41.136 24.6868 40.993 24.8221 40.9254C24.8663 40.902 25.0093 41.071 25.1056 41.1516C24.9183 41.3857 24.7466 41.4533 24.4762 41.2557Z" fill="#B0CC22"/>
<path d="M17.61 4.64918C17.467 4.81043 17.4124 4.93007 17.3343 4.94568C17.2511 4.96388 17.1211 4.90926 17.0664 4.84164C17.0352 4.80263 17.1029 4.61017 17.1497 4.60237C17.2641 4.57636 17.3915 4.62057 17.61 4.64918Z" fill="#B0CC22"/>
<path d="M25.1524 32.6496C24.9651 32.725 24.8741 32.7614 24.7831 32.7952C24.7414 32.6756 24.6946 32.556 24.666 32.4311C24.6634 32.4181 24.7987 32.3401 24.8247 32.3583C24.9261 32.4259 25.0093 32.5169 25.1524 32.6496Z" fill="#B0CC22"/>
<path d="M10.0989 28.4909C10.0442 28.5117 9.97402 28.5637 9.935 28.5455C9.88559 28.5247 9.86218 28.4467 9.82577 28.392C9.88298 28.3712 9.9506 28.3192 9.99222 28.3348C10.039 28.3556 10.0624 28.4363 10.0989 28.4909Z" fill="#B0CC22"/>
<path d="M8.44473 6.99511C8.39272 7.07574 8.3433 7.15376 8.29388 7.22918C8.25747 7.17717 8.19765 7.13035 8.19245 7.07574C8.18725 7.01592 8.22887 6.9483 8.25227 6.88588C8.30429 6.91449 8.3589 6.9457 8.44473 6.99511Z" fill="#B0CC22"/>
<path d="M8.87127 6.35012C9.00651 6.44115 9.08194 6.49317 9.15996 6.54258C9.06113 6.6154 8.96751 6.70383 8.85827 6.75585C8.81666 6.77405 8.73603 6.70903 8.67361 6.68042C8.73603 6.57899 8.79585 6.47756 8.87127 6.35012Z" fill="#B0CC22"/>
<path d="M9.44867 5.53867C9.57091 5.6271 9.64893 5.68432 9.72956 5.74154C9.66974 5.80656 9.61772 5.89498 9.5423 5.92879C9.49808 5.9496 9.35504 5.88198 9.35764 5.86117C9.36284 5.76754 9.40445 5.67652 9.44867 5.53867Z" fill="#B0CC22"/>
<path d="M27.5581 10.5973C27.7844 10.5166 27.878 10.4646 27.9743 10.4568C28.0315 10.4516 28.0939 10.5166 28.1537 10.5504C28.0965 10.5895 28.0419 10.6545 27.9795 10.6597C27.8884 10.6675 27.7922 10.6363 27.5581 10.5973Z" fill="#B0CC22"/>
<path d="M6.88945 12.0381C6.80622 12.2306 6.72039 12.4204 6.57215 12.7611C6.44471 12.2514 6.57475 12.0875 6.92065 12.0615L6.88945 12.0381Z" fill="#B0CC22"/>
<path d="M10.1483 6.69082C10.0624 6.77405 9.97141 6.86248 9.88038 6.95091C9.82056 6.88588 9.70093 6.77405 9.71133 6.76365C9.79196 6.66221 9.89599 6.57639 9.99222 6.48796C10.0312 6.53998 10.0702 6.59199 10.1483 6.69082Z" fill="#B0CC22"/>
<path d="M31.4802 8.79488C31.3969 8.88591 31.3293 8.97434 31.3189 8.96914C31.2097 8.90152 31.1083 8.81829 31.0042 8.74027C31.0484 8.69605 31.1109 8.60762 31.1343 8.61803C31.2513 8.65964 31.3553 8.72986 31.4802 8.79488Z" fill="#B0CC22"/>
<path d="M1.23007 30.236C1.10523 30.3166 1.02461 30.4103 0.949182 30.4077C0.886763 30.4051 0.774928 30.2802 0.78273 30.223C0.790533 30.1528 0.899765 30.0436 0.967386 30.0436C1.04021 30.0384 1.11303 30.1424 1.23007 30.236Z" fill="#B0CC22"/>
<path d="M38.7521 4.67C38.8015 4.70641 38.8483 4.74022 38.8951 4.77663C38.8327 4.83385 38.7677 4.88846 38.7052 4.94568C38.674 4.89627 38.6116 4.83905 38.6194 4.79744C38.6324 4.74542 38.7052 4.71161 38.7521 4.67Z" fill="#B0CC22"/>
<path d="M9.8986 34.1112C9.87519 34.0436 9.85178 33.976 9.83098 33.9084C9.78416 33.7445 9.67493 33.5703 9.9038 33.4558C9.92461 33.4454 9.97142 33.461 9.99483 33.4792C10.2029 33.6197 10.1275 33.7757 10.0104 33.9292C9.96622 33.9864 9.9116 34.0332 9.86479 34.0852C9.86739 34.0826 9.8986 34.1112 9.8986 34.1112Z" fill="#B0CC22"/>
<path d="M8.69441 38.2049C8.75943 38.2231 8.87646 38.2439 8.87646 38.2569C8.87126 38.3454 8.83745 38.4338 8.81404 38.5196C8.73602 38.4624 8.65799 38.4026 8.58257 38.3454C8.61898 38.2985 8.658 38.2517 8.69441 38.2049Z" fill="#B0CC22"/>
<path d="M5.12869 18.5792C5.10009 18.4179 5.06888 18.2541 5.04027 18.0928C5.06888 18.0902 5.09749 18.085 5.1261 18.0824C5.1287 18.2463 5.1313 18.4127 5.1339 18.5766C5.1339 18.574 5.12869 18.5792 5.12869 18.5792Z" fill="#B0CC22"/>
<path d="M29.7142 36.4208C29.7116 36.0879 29.7428 36.067 30.1251 36.1607L30.0991 36.1321C30.1043 36.2153 30.1121 36.2985 30.1173 36.3843L30.1538 36.3479C29.9951 36.3635 29.8365 36.3791 29.6778 36.3947L29.7142 36.4208Z" fill="#B0CC22"/>
<path d="M5.93234 25.3387C6.01817 25.3855 6.09879 25.4063 6.10399 25.4375C6.1144 25.5285 6.09359 25.6248 6.08579 25.7184C6.03898 25.695 5.95835 25.6794 5.95055 25.6456C5.92714 25.5572 5.93754 25.4609 5.93234 25.3387Z" fill="#B0CC22"/>
<path d="M6.4005 24.9174C6.34069 24.9174 6.28347 24.9174 6.22365 24.9174C6.22365 24.8887 6.22365 24.8367 6.22365 24.8367C6.28087 24.8315 6.34069 24.8341 6.3979 24.8341C6.40051 24.8601 6.4005 24.8887 6.4005 24.9174Z" fill="#B0CC22"/>
<path d="M14.5436 3.68949C14.528 3.78833 14.5254 3.89496 14.489 3.98339C14.4734 4.0198 14.3798 4.0224 14.3226 4.038C14.32 3.98079 14.294 3.89756 14.32 3.86895C14.3902 3.80133 14.4838 3.75972 14.567 3.7051C14.5696 3.7077 14.5436 3.68949 14.5436 3.68949Z" fill="#B0CC22"/>
<path d="M29.1784 7.36184C29.0848 7.38784 28.999 7.43466 28.9704 7.41125C28.9002 7.35663 28.8585 7.27081 28.8039 7.19538C28.8611 7.18238 28.934 7.14077 28.9704 7.16157C29.0458 7.20579 29.103 7.28381 29.1784 7.36184Z" fill="#B0CC22"/>
<path d="M32.2838 34.2725C32.2552 34.2933 32.2266 34.3141 32.2006 34.3323C32.1772 34.2985 32.1512 34.2647 32.1278 34.2309C32.1616 34.2205 32.198 34.1945 32.2292 34.1997C32.2474 34.2049 32.263 34.2465 32.2838 34.2725Z" fill="#B0CC22"/>
<path d="M30.9704 35.6301C31.09 35.2816 31.2487 35.4507 31.4048 35.5963L31.4204 35.5599C31.2617 35.5755 31.1031 35.5911 30.9444 35.6067L30.9704 35.6301Z" fill="#B0CC22"/>
<path d="M30.5517 35.8928C30.5881 35.6405 30.7832 35.6431 30.9704 35.6275L30.9444 35.6041C30.921 35.8772 30.7077 35.8512 30.5231 35.8668L30.5517 35.8928Z" fill="#B0CC22"/>
<path d="M0.288582 19.5883C0.275578 19.5181 0.265175 19.4478 0.252171 19.3776C0.278179 19.3724 0.304188 19.3698 0.330196 19.3646C0.304188 19.4296 0.280783 19.4972 0.254774 19.5623L0.288582 19.5883Z" fill="#B0CC22"/>
<path d="M9.31862 28.0253C9.28741 28.0175 9.25881 28.0097 9.2276 28.0019C9.25621 27.9707 9.28221 27.9343 9.31862 27.9109C9.32643 27.9057 9.36544 27.9447 9.38885 27.9655C9.36804 27.9837 9.34463 28.0045 9.31862 28.0253Z" fill="#B0CC22"/>
<path d="M30.1251 36.1607C30.1538 35.8876 30.3618 35.9058 30.5543 35.8954L30.5257 35.8694C30.4893 36.1295 30.2838 36.1113 30.1017 36.1347L30.1251 36.1607Z" fill="#B0CC22"/>
<path d="M17.402 38.0801C17.389 38.0099 17.3603 37.9396 17.3681 37.872C17.3707 37.8408 17.4384 37.8148 17.4774 37.7862C17.4852 37.82 17.5086 37.8642 17.4956 37.885C17.4618 37.9448 17.4124 37.9969 17.3681 38.0515C17.3707 38.0541 17.402 38.0801 17.402 38.0801Z" fill="#B0CC22"/>
<path d="M5.58645 15.3359C5.54224 15.3568 5.49802 15.375 5.45381 15.3958C5.44861 15.3359 5.44081 15.2761 5.44601 15.2163C5.44861 15.1955 5.48762 15.1799 5.51103 15.1617C5.53444 15.2215 5.56045 15.2787 5.58645 15.3359Z" fill="#B0CC22"/>
<path d="M6.92065 12.0615C6.93366 11.9575 6.94666 11.856 6.95967 11.752C6.98048 11.7702 7.02469 11.8014 7.02209 11.8066C6.98047 11.8847 6.93366 11.9601 6.88945 12.0355C6.88945 12.0381 6.92065 12.0615 6.92065 12.0615Z" fill="#B0CC22"/>
<path d="M6.11441 22.652C6.0832 22.6937 6.05199 22.7665 6.02078 22.7691C5.97657 22.7717 5.92976 22.7197 5.89074 22.6859C5.88554 22.6807 5.92195 22.6052 5.93236 22.6052C5.99218 22.613 6.04939 22.6338 6.11441 22.652Z" fill="#B0CC22"/>
<path d="M5.99997 10.8365C5.96876 10.8807 5.94015 10.9588 5.91415 10.9588C5.85693 10.9562 5.79971 10.9146 5.74249 10.8886C5.7659 10.8625 5.78671 10.8183 5.81272 10.8183C5.86993 10.8105 5.92975 10.8261 5.99997 10.8365Z" fill="#B0CC22"/>
<path d="M15.5528 3.95997C15.5215 3.97818 15.4903 4.00939 15.4591 4.00939C15.4305 4.00939 15.4019 3.98078 15.3707 3.96517C15.4331 3.96257 15.4929 3.95997 15.5528 3.95997Z" fill="#B0CC22"/>
<path d="M0.252162 19.5623C0.197545 19.6247 0.14553 19.6871 0.0909127 19.7495C0.0883119 19.7157 0.07791 19.6611 0.0883133 19.6533C0.148132 19.6221 0.215753 19.6065 0.283375 19.5857C0.288576 19.5883 0.252162 19.5623 0.252162 19.5623Z" fill="#B0CC22"/>
<path d="M3.45638 13.4686C3.39396 13.3437 3.38096 13.1565 3.54481 13.2189C3.69046 13.2735 3.62283 13.4399 3.43037 13.4503L3.45638 13.4686Z" fill="#B0CC22"/>
</svg>
