<svg width="34" height="21" viewBox="0 0 34 21" fill="none" xmlns="http://www.w3.org/2000/svg">
<path d="M6.0032 2.84057V8.50527L4.00292 2.84057H0V20.701H4.00292V15.0245L6.0032 20.701H10.0061V2.84057H6.0032Z" fill="#EDEDED"/>
<path d="M22.6801 17.2591L21.7664 12.7946L19.7282 2.84057H14.6127L12.5745 12.7946L11.6608 17.2591L10.9554 20.701H15.0625L15.7679 17.2591H18.5754L19.2784 20.701H23.3855L22.6801 17.2591ZM16.6816 12.7946L17.1716 10.4038L17.6616 12.7946H16.6816Z" fill="#EDEDED"/>
<path d="M29.9971 2.84057H27.9968C25.7858 2.84057 23.9939 4.84085 23.9939 7.3051V16.2342C23.9939 18.7008 25.7858 20.701 27.9968 20.701H29.9971C32.208 20.701 34 18.7008 34 16.2342V7.3051C34 4.84085 32.208 2.84057 29.9971 2.84057ZM29.9971 15.1192C29.9971 15.7347 29.5497 16.2342 28.9981 16.2342C28.4442 16.2342 27.9968 15.7347 27.9968 15.1192V8.42241C27.9968 7.80458 28.4442 7.3051 28.9981 7.3051C29.5497 7.3051 29.9971 7.80458 29.9971 8.42241V15.1192Z" fill="#EDEDED"/>
<path d="M19.8442 0L14.5393 0.00473449V1.30196L19.8465 1.29485L19.8442 0Z" fill="#EDEDED"/>
</svg>
