<svg width="18" height="18" viewBox="0 0 18 18" fill="none" xmlns="http://www.w3.org/2000/svg">
<path d="M17.9753 8.93798C17.9753 10.1366 17.9882 11.3356 17.9706 12.5338C17.9587 13.3393 17.8631 14.1388 17.5527 14.8925C16.9518 16.3512 15.8895 17.2955 14.3647 17.7141C13.7548 17.8817 13.1312 17.959 12.5008 17.9648C10.5657 17.9824 8.63024 17.9996 6.69514 18C5.77343 18 4.85137 17.9802 3.94226 17.7871C2.53219 17.4875 1.45334 16.7266 0.731944 15.4787C0.322699 14.7703 0.131741 13.9877 0.0857102 13.1786C0.0364424 12.3119 0.015225 11.4431 0.00911144 10.575C-0.000957874 9.08902 -0.00886948 7.60271 0.0206192 6.11749C0.035004 5.4076 0.0777985 4.68801 0.211577 3.9925C0.608955 1.92901 2.0539 0.526862 4.13753 0.159692C4.74169 0.0532448 5.36419 0.0136868 5.97878 0.0093714C8.14799 -0.00573257 10.3176 -0.00177677 12.4871 0.0154849C13.3412 0.0223177 14.1878 0.134519 14.9818 0.476875C16.5681 1.16051 17.5117 2.36991 17.8293 4.05831C17.9185 4.53265 17.9634 5.02101 17.972 5.50362C17.9922 6.64793 17.9785 7.79295 17.9785 8.93762C17.9774 8.93798 17.9764 8.93798 17.9753 8.93798ZM16.3369 8.99983C16.3401 8.99983 16.3433 8.99983 16.3462 8.99983C16.3462 8.34065 16.361 7.68147 16.3426 7.02301C16.32 6.21567 16.3085 5.40509 16.2232 4.60314C16.0672 3.13589 15.1339 2.1473 13.693 1.84378C12.9313 1.6834 12.1563 1.67908 11.3853 1.67764C9.45017 1.67333 7.51471 1.69023 5.5796 1.71216C5.20416 1.71648 4.82476 1.75568 4.45543 1.82293C3.04789 2.07969 2.14417 2.89639 1.8651 4.31149C1.74535 4.91816 1.70148 5.54714 1.69464 6.16676C1.67343 8.05439 1.67594 9.94203 1.69356 11.8297C1.69896 12.414 1.73564 13.0063 1.83921 13.5807C2.08735 14.9609 2.89685 15.8567 4.28749 16.148C4.81685 16.2587 5.36635 16.2983 5.90829 16.317C6.9199 16.3515 7.93294 16.3551 8.94563 16.3558C9.90401 16.3565 10.8631 16.3519 11.8211 16.3209C12.43 16.3015 13.0471 16.2832 13.6426 16.1706C15.0005 15.9142 15.8683 15.09 16.1574 13.7299C16.2747 13.1779 16.3149 12.6032 16.3297 12.0372C16.3559 11.0256 16.3369 10.0125 16.3369 8.99983Z" fill="#0F0F0F"/>
<path d="M8.9971 4.35174C11.4483 4.33016 13.6311 6.28181 13.6542 8.98291C13.6761 11.5437 11.5788 13.6425 9.02335 13.6464C6.46035 13.6504 4.36881 11.5689 4.36378 9.00916C4.3591 6.43861 6.42978 4.35677 8.9971 4.35174ZM9.0176 11.9541C10.6096 12.0091 11.9848 10.6199 11.9855 9.00233C11.9866 7.3693 10.6449 6.0254 9.01148 6.02504C7.37594 6.02468 6.04248 7.36426 6.03492 8.99945C6.02737 10.5969 7.40471 12.017 9.0176 11.9541Z" fill="#0F0F0F"/>
<path d="M12.7094 4.19162C12.709 3.57379 13.1967 3.08939 13.8177 3.09082C14.4273 3.09262 14.9081 3.57199 14.9156 4.18622C14.9232 4.79865 14.4291 5.2978 13.8141 5.29816C13.1977 5.29852 12.7097 4.8098 12.7094 4.19162Z" fill="#0F0F0F"/>
</svg>
