<svg width="21" height="24" viewBox="0 0 21 24" fill="none" xmlns="http://www.w3.org/2000/svg">
<path d="M14.3571 21.0295C14.3571 20.9065 14.3571 20.8151 14.3571 20.7236C14.3571 19.7335 14.3585 18.7435 14.3562 17.7534C14.3552 17.28 14.1639 17.0915 13.69 17.0896C13.2624 17.0883 12.8348 17.0892 12.3969 17.0892C12.3861 17.02 12.3721 16.969 12.3707 16.9174C12.3323 15.7036 12.2925 14.4903 12.2635 13.276C12.2617 13.1897 12.3202 13.0565 12.3899 13.0207C13.6848 12.3533 14.5849 11.3089 15.2722 10.0631C15.3756 9.87554 15.508 9.75439 15.6956 9.65877C16.9162 9.0391 18.0502 8.29411 19.0341 7.33839C20.0942 6.30886 20.6139 5.05793 20.569 3.58559C20.5316 2.3444 19.6689 1.50797 18.4147 1.48476C18.0025 1.47733 17.5899 1.48337 17.1487 1.48337C17.1295 1.18862 17.1094 0.90687 17.0925 0.625119C17.0673 0.187408 16.8713 0.000348126 16.4273 0.000348126C12.3342 -0.000116042 8.24156 -0.000116042 4.14846 0.000348126C3.70027 0.000348126 3.50518 0.182302 3.47758 0.619549C3.4598 0.896194 3.44109 1.17237 3.42144 1.47037C3.32975 1.47501 3.24694 1.48244 3.16366 1.4829C2.82074 1.4843 2.47735 1.47687 2.13442 1.48522C0.900274 1.51493 0.048811 2.33465 0.00389862 3.55913C-0.0513058 5.04911 0.476883 6.3149 1.55197 7.35371C2.54378 8.31222 3.68904 9.05303 4.91103 9.68801C5.05138 9.76089 5.18752 9.89039 5.26472 10.0273C5.97629 11.288 6.88202 12.3551 8.20273 13.0282C8.26074 13.0579 8.31922 13.1572 8.31735 13.2227C8.28366 14.4977 8.24109 15.7728 8.19945 17.0892C8.00904 17.0892 7.82659 17.0892 7.64366 17.0892C7.38635 17.0892 7.12904 17.0878 6.87173 17.0896C6.41512 17.0929 6.22144 17.2851 6.2205 17.7441C6.21817 18.7421 6.21957 19.7396 6.21957 20.7375C6.21957 20.8285 6.21957 20.9195 6.21957 21.0295C6.05068 21.0295 5.91127 21.0267 5.77185 21.03C5.52998 21.0355 5.34939 21.1474 5.2591 21.3688C5.00413 21.9922 4.74823 22.6156 4.51244 23.2464C4.36086 23.6511 4.65325 23.9979 5.12436 23.9983C8.30518 23.9988 11.486 23.9988 14.6663 23.9988C14.947 23.9988 15.2278 24.002 15.5085 23.9979C15.9435 23.9914 16.2051 23.6182 16.0497 23.213C15.8252 22.6276 15.5899 22.046 15.3569 21.4635C15.2254 21.1349 15.0706 21.0318 14.7197 21.0295C14.6116 21.029 14.5031 21.0295 14.3571 21.0295ZM16.0306 1.08465C16.038 1.18398 16.0497 1.2601 16.0483 1.33576C16.0362 2.03944 16.053 2.74498 16.003 3.44587C15.8542 5.51792 15.3915 7.51338 14.4231 9.37145C13.7845 10.5964 12.9349 11.6185 11.6189 12.1806C11.2259 12.3486 11.1412 12.4851 11.1552 12.9131C11.1941 14.0958 11.2352 15.2789 11.2727 16.4616C11.2792 16.6603 11.2736 16.8599 11.2736 17.0739C10.6116 17.0739 9.96226 17.0739 9.29044 17.0739C9.29044 16.9694 9.28811 16.8789 9.29091 16.7879C9.33255 15.5045 9.37559 14.2211 9.41723 12.9381C9.4322 12.4772 9.35267 12.35 8.93582 12.1718C8.39267 11.9397 7.9108 11.6176 7.48647 11.2096C6.74495 10.4975 6.23267 9.6337 5.82612 8.70583C4.77957 6.31722 4.43758 3.80607 4.52928 1.2225C4.53068 1.17841 4.54986 1.13524 4.56249 1.08465C8.38144 1.08465 12.1924 1.08465 16.0306 1.08465ZM13.2596 21.016C11.2745 21.016 9.30121 21.016 7.31805 21.016C7.31805 20.0673 7.31805 19.1301 7.31805 18.1879C9.30729 18.1879 11.2797 18.1879 13.2596 18.1879C13.2596 19.1394 13.2596 20.0715 13.2596 21.016ZM4.39875 8.13583C3.39571 7.52406 2.42448 6.8784 1.7391 5.91061C1.2446 5.21203 1.03969 4.41784 1.08975 3.56516C1.11454 3.14045 1.2853 2.79232 1.71899 2.65122C2.27852 2.46926 2.85442 2.59087 3.43548 2.56442C3.50285 4.48329 3.79431 6.32929 4.39875 8.13583ZM17.1389 2.55838C17.5665 2.55838 17.9627 2.5556 18.3585 2.55885C19.0808 2.56534 19.472 2.94735 19.486 3.66449C19.5075 4.77247 19.1454 5.74815 18.3267 6.49824C17.7115 7.06175 17.0154 7.53798 16.3538 8.05089C16.3038 8.08941 16.2401 8.1103 16.1321 8.16507C16.781 6.3279 17.071 4.48004 17.1389 2.55838ZM14.7492 22.8853C11.7541 22.8853 8.80483 22.8853 5.82144 22.8853C5.90191 22.6829 5.98518 22.5088 6.03898 22.3259C6.09232 22.1458 6.1901 22.0966 6.37723 22.0971C8.98027 22.1041 11.5833 22.1017 14.1863 22.1017C14.2331 22.1017 14.2837 22.0911 14.3258 22.105C14.3786 22.1226 14.4497 22.1491 14.4689 22.1913C14.5662 22.409 14.649 22.6327 14.7492 22.8853Z" fill="#CCFD5D"/>
</svg>
