<svg width="18" height="20" viewBox="0 0 18 20" fill="none" xmlns="http://www.w3.org/2000/svg">
<path d="M8.75 0C7.0924 0 5.50269 0.65848 4.33058 1.83058C3.15848 3.00269 2.5 4.5924 2.5 6.25V8.75C1.83696 8.75 1.20107 9.01339 0.732233 9.48223C0.263392 9.95107 0 10.587 0 11.25V17.5C0 18.163 0.263392 18.7989 0.732233 19.2678C1.20107 19.7366 1.83696 20 2.5 20H15C15.663 20 16.2989 19.7366 16.7678 19.2678C17.2366 18.7989 17.5 18.163 17.5 17.5V11.25C17.5 10.587 17.2366 9.95107 16.7678 9.48223C16.2989 9.01339 15.663 8.75 15 8.75H5V6.25C4.99969 5.33705 5.33243 4.45535 5.93583 3.77023C6.53923 3.08511 7.37183 2.64364 8.2775 2.52861C9.18318 2.41358 10.0997 2.63289 10.8552 3.14541C11.6107 3.65793 12.1533 4.42846 12.3812 5.3125C12.4641 5.63358 12.6712 5.90858 12.9568 6.07701C13.0982 6.16041 13.2547 6.21513 13.4173 6.23806C13.5799 6.26099 13.7454 6.25166 13.9044 6.21063C14.0634 6.16959 14.2127 6.09764 14.3439 5.99888C14.475 5.90013 14.5855 5.77651 14.6689 5.63507C14.7523 5.49364 14.807 5.33716 14.8299 5.17457C14.8529 5.01199 14.8435 4.84648 14.8025 4.6875C14.4557 3.34595 13.673 2.15762 12.5775 1.30917C11.482 0.460717 10.1357 0.000215562 8.75 0Z" fill="#CCFD5D"/>
</svg>
