<svg width="18" height="20" viewBox="0 0 18 20" fill="none" xmlns="http://www.w3.org/2000/svg">
<path fill-rule="evenodd" clip-rule="evenodd" d="M2.5 8.75V6.25C2.5 4.5924 3.15848 3.00269 4.33058 1.83058C5.50269 0.65848 7.0924 0 8.75 0C10.4076 0 11.9973 0.65848 13.1694 1.83058C14.3415 3.00269 15 4.5924 15 6.25V8.75C15.663 8.75 16.2989 9.01339 16.7678 9.48223C17.2366 9.95107 17.5 10.587 17.5 11.25V17.5C17.5 18.163 17.2366 18.7989 16.7678 19.2678C16.2989 19.7366 15.663 20 15 20H2.5C1.83696 20 1.20107 19.7366 0.732233 19.2678C0.263392 18.7989 0 18.163 0 17.5V11.25C0 10.587 0.263392 9.95107 0.732233 9.48223C1.20107 9.01339 1.83696 8.75 2.5 8.75ZM12.5 6.25V8.75H5V6.25C5 5.25544 5.39509 4.30161 6.09835 3.59835C6.80161 2.89509 7.75544 2.5 8.75 2.5C9.74456 2.5 10.6984 2.89509 11.4017 3.59835C12.1049 4.30161 12.5 5.25544 12.5 6.25Z" fill="#B6B8B8"/>
</svg>
