<svg width="26" height="16" viewBox="0 0 26 16" fill="none" xmlns="http://www.w3.org/2000/svg">
<path d="M4.5907 2.17224V6.50408L3.06107 2.17224H0V15.8303H3.06107V11.4894L4.5907 15.8303H7.65176V2.17224H4.5907Z" fill="#1F2020"/>
<path d="M17.3436 13.1982L16.6448 9.78418L15.0862 2.17224H11.1744L9.61579 9.78418L8.91705 13.1982L8.37761 15.8303H11.5183L12.0578 13.1982H14.2047L14.7423 15.8303H17.883L17.3436 13.1982ZM12.7565 9.78418L13.1312 7.95587L13.5059 9.78418H12.7565Z" fill="#1F2020"/>
<path d="M22.9389 2.17224H21.4093C19.7186 2.17224 18.3483 3.70187 18.3483 5.5863V12.4144C18.3483 14.3007 19.7186 15.8303 21.4093 15.8303H22.9389C24.6297 15.8303 26 14.3007 26 12.4144V5.5863C26 3.70187 24.6297 2.17224 22.9389 2.17224ZM22.9389 11.5618C22.9389 12.0325 22.5968 12.4144 22.175 12.4144C21.7514 12.4144 21.4093 12.0325 21.4093 11.5618V6.44072C21.4093 5.96826 21.7514 5.5863 22.175 5.5863C22.5968 5.5863 22.9389 5.96826 22.9389 6.44072V11.5618Z" fill="#1F2020"/>
<path d="M15.175 0L11.1183 0.00362051V0.995616L15.1768 0.990186L15.175 0Z" fill="#1F2020"/>
</svg>
