<svg width="34" height="21" viewBox="0 0 34 21" fill="none" xmlns="http://www.w3.org/2000/svg">
<path d="M6.00321 2.84058V8.50528L4.00293 2.84058H0V20.7011H4.00293V15.0245L6.00321 20.7011H10.0061V2.84058H6.00321Z" fill="#EDEDED"/>
<path d="M22.6801 17.2592L21.7663 12.7946L19.7282 2.84058H14.6127L12.5745 12.7946L11.6608 17.2592L10.9553 20.7011H15.0624L15.7679 17.2592H18.5753L19.2784 20.7011H23.3855L22.6801 17.2592ZM16.6816 12.7946L17.1716 10.4038L17.6616 12.7946H16.6816Z" fill="#EDEDED"/>
<path d="M29.9971 2.84058H27.9968C25.7859 2.84058 23.9939 4.84086 23.9939 7.30511V16.2342C23.9939 18.7008 25.7859 20.7011 27.9968 20.7011H29.9971C32.2081 20.7011 34 18.7008 34 16.2342V7.30511C34 4.84086 32.2081 2.84058 29.9971 2.84058ZM29.9971 15.1192C29.9971 15.7347 29.5497 16.2342 28.9981 16.2342C28.4442 16.2342 27.9968 15.7347 27.9968 15.1192V8.42243C27.9968 7.80459 28.4442 7.30511 28.9981 7.30511C29.5497 7.30511 29.9971 7.80459 29.9971 8.42243V15.1192Z" fill="#EDEDED"/>
<path d="M19.8442 0L14.5393 0.0047345V1.30196L19.8465 1.29486L19.8442 0Z" fill="#EDEDED"/>
</svg>
