<svg width="78" height="16" viewBox="0 0 78 16" fill="none" xmlns="http://www.w3.org/2000/svg">
<path d="M36.6591 2.17927H32.0518V15.8815H35.1227V10.7438H36.6591C38.3535 10.7438 39.7283 9.20926 39.7283 7.31692V5.60437C39.7283 3.71385 38.3535 2.17927 36.6591 2.17927ZM35.8909 7.31692H35.1227V5.60437H35.8909C36.3141 5.60437 36.6591 5.98756 36.6591 6.46155C36.6591 6.93373 36.3141 7.31692 35.8909 7.31692Z" fill="#1F2020"/>
<path d="M48.2928 5.60437V2.17927H40.6163V15.8815H48.2928V12.4546H43.6873V10.7438H46.7582V7.31692H43.6873V5.60437H48.2928Z" fill="#1F2020"/>
<path d="M53.9789 2.17927V6.52512L52.4444 2.17927H49.3716V15.8815H52.4444V11.5266L53.9789 15.8815H57.0499V2.17927H53.9789Z" fill="#1F2020"/>
<path d="M62.1495 5.60437H65.1441V2.17927H61.305C59.6088 2.17927 58.234 3.71385 58.234 5.60437V7.07902C58.234 8.71166 59.2674 10.1173 60.7039 10.4369L61.3958 10.5913C61.7899 10.6803 62.0732 11.0653 62.0732 11.5139C62.0732 11.7645 61.9842 12.0042 61.8262 12.1803C61.6682 12.3565 61.4539 12.4546 61.2287 12.4546H58.234V15.8815H62.0732C63.7694 15.8815 65.1441 14.3469 65.1441 12.4546V10.9817C65.1441 9.3491 64.1108 7.94346 62.6761 7.62384L61.9842 7.46947C61.5901 7.38048 61.305 6.99548 61.305 6.54509C61.305 6.29629 61.394 6.05657 61.552 5.88041C61.71 5.70425 61.9261 5.60437 62.1495 5.60437Z" fill="#1F2020"/>
<path d="M69.3956 5.60437V7.31692H72.4666V10.7438H69.3956V12.4546H74.0011V15.8815H66.3246V2.17927H74.0011V5.60437H69.3956Z" fill="#1F2020"/>
<path d="M74.9291 12.6289V14.8391H75.6973L74.9291 15.9432H77.2337L78 14.8391V12.6289H74.9291Z" fill="#1F2020"/>
<path d="M4.60555 2.17927V6.52512L3.07097 2.17927H0V15.8815H3.07097V11.5266L4.60555 15.8815H7.67651V2.17927H4.60555Z" fill="#1F2020"/>
<path d="M17.3997 13.2409L16.6987 9.81583L15.135 2.17927H11.2105L9.64689 9.81583L8.94589 13.2409L8.4047 15.8815H11.5556L12.0968 13.2409H14.2506L14.79 15.8815H17.9409L17.3997 13.2409ZM12.7978 9.81583L13.1737 7.9816L13.5496 9.81583H12.7978Z" fill="#1F2020"/>
<path d="M23.0131 2.17927H21.4786C19.7824 2.17927 18.4076 3.71385 18.4076 5.60437V12.4546C18.4076 14.3469 19.7824 15.8815 21.4786 15.8815H23.0131C24.7094 15.8815 26.0841 14.3469 26.0841 12.4546V5.60437C26.0841 3.71385 24.7094 2.17927 23.0131 2.17927ZM23.0131 11.5992C23.0131 12.0714 22.6699 12.4546 22.2468 12.4546C21.8218 12.4546 21.4786 12.0714 21.4786 11.5992V6.46155C21.4786 5.98756 21.8218 5.60437 22.2468 5.60437C22.6699 5.60437 23.0131 5.98756 23.0131 6.46155V11.5992Z" fill="#1F2020"/>
<path d="M15.224 0L11.1542 0.00363222V0.998837L15.2259 0.993389L15.224 0Z" fill="#1F2020"/>
</svg>
