<svg width="29" height="31" viewBox="0 0 29 31" fill="none" xmlns="http://www.w3.org/2000/svg">
<path d="M16.8672 28.8055C16.9224 28.9398 16.9794 29.0722 17.0475 29.2341C16.6648 29.293 16.3337 29.3427 16.0026 29.3942C15.8481 29.4181 15.6696 29.4089 15.5427 29.4843C15.1306 29.7308 14.6983 29.6995 14.2826 29.6076C13.9349 30.0343 13.9349 30.0343 13.521 29.8302C13.5412 29.7602 13.5651 29.6867 13.5798 29.6131C13.589 29.5671 13.5854 29.5193 13.5909 29.4218C13.1806 29.4622 12.8219 29.7584 12.4135 29.6848C12.0051 29.6131 11.6059 29.4861 11.1552 29.3703C11.089 29.4843 11.0228 29.6186 10.9363 29.7382C10.8609 29.843 10.7763 29.9479 10.6714 30.0196C10.412 30.1981 10.0662 30.0914 9.97422 29.7897C9.89144 29.5211 9.86569 29.236 9.80314 28.8993C9.16296 28.5424 8.46391 28.1506 7.74463 27.7477C7.64713 27.7882 7.53491 27.836 7.41902 27.8839C7.20563 27.8232 7.29944 27.3798 6.94072 27.4994C6.72917 27.2768 6.49003 27.0744 6.31343 26.8279C6.1681 26.6274 5.99333 26.4858 5.78914 26.3699C5.34028 26.1142 4.99627 25.6819 4.45359 25.5825C4.07831 25.233 3.64049 24.9423 3.62761 24.3316C3.62025 24.0097 3.38846 23.754 3.107 23.5958C2.8329 23.4431 2.73357 23.2426 2.66182 22.9317C2.57168 22.5361 2.34909 22.1627 2.1449 21.8003C1.97933 21.5041 1.83952 21.2061 1.73466 20.8787C1.31339 19.556 0.941797 18.226 0.890288 16.8279C0.884769 16.6733 0.847976 16.5188 0.825901 16.3717C0.0827036 16.1251 0.130535 15.8235 0.632746 15.5015C0.630906 15.1005 0.684251 14.6921 0.542601 14.28C0.432226 13.9599 0.605152 13.6564 0.765197 13.3933C0.987788 13.0291 1.1276 12.6428 1.19382 12.2252L1.18278 12.2362C1.23429 12.1001 1.3042 11.9658 1.33179 11.826C1.35938 11.6788 1.34467 11.5225 1.34835 11.3698C1.45504 11.1122 1.65004 10.8878 1.71811 10.5438C1.32995 10.8014 1.32076 10.8271 1.36858 11.3845C1.28764 11.436 1.2067 11.4894 1.10368 11.5556C0.917883 11.4103 1.19382 11.0736 0.897648 10.9577C0.881092 10.9504 0.890289 10.805 0.925241 10.7462C1.0908 10.4555 1.07241 10.0876 1.35203 9.83556C1.47528 9.72519 1.51207 9.5118 1.5783 9.34071C1.83952 8.65454 2.12098 7.98861 2.75564 7.53791C2.89361 7.43857 2.97455 7.25093 3.06469 7.09456C3.26521 6.74688 3.55034 6.48382 3.87779 6.26307C3.93114 6.22627 4.0176 6.23731 4.17029 6.2134C4.07095 6.3992 3.99369 6.52061 3.93666 6.65122C3.82077 6.91612 3.4786 6.97499 3.40318 7.3006C3.34063 7.57102 3.15667 7.81017 3.05549 8.07323C3.01318 8.18361 3.04813 8.32158 3.04997 8.45035C2.92672 8.51841 2.77036 8.55704 2.6839 8.65822C2.56432 8.79619 2.46498 8.91209 2.27551 8.98383C2.13018 9.03902 2.01428 9.22482 1.93334 9.37751C1.83768 9.55779 1.77697 9.76198 1.72914 9.9625C1.70339 10.0655 1.7641 10.1612 1.90391 10.1465C2.12098 9.9717 2.11914 9.60745 2.44107 9.52467L2.42267 9.5118C2.2939 9.84844 2.16145 10.1851 2.03636 10.5236C1.96645 10.7149 1.88919 10.9081 1.85424 11.1086C1.83584 11.2171 1.84136 11.3771 2.02348 11.3992C2.36197 11.1288 2.09338 10.461 2.73356 10.404C2.61031 9.94778 2.67654 9.55963 2.94696 9.20826C3.02422 9.10708 3.07941 8.98567 3.1254 8.8661C3.18794 8.70605 3.1346 8.56072 3.02422 8.43563C3.18611 8.44667 3.39398 8.23879 3.46205 8.55704C3.72327 8.40068 3.55218 7.85984 4.09119 7.98493C3.93666 8.33445 3.78765 8.65822 3.64784 8.98383C3.54299 9.22666 3.54666 9.2285 3.66992 9.68472C4.0176 9.61113 3.80605 9.09053 4.23283 9.01326C4.23835 9.27633 4.15741 9.48972 4.07463 9.6976C3.92378 10.0821 3.76558 10.4647 3.58898 10.8381C3.54115 10.9375 3.4087 10.9945 3.31672 11.0699C3.37375 11.1619 3.42709 11.2465 3.47124 11.3164C3.43813 11.5225 3.24865 11.4323 3.16219 11.5409C3.16219 11.5593 3.14564 11.6329 3.16219 11.642C3.31488 11.7175 3.40686 11.8205 3.38294 12.0026C3.35903 12.1829 3.33512 12.3632 3.3296 12.5453C3.32224 12.79 3.38478 13.0089 3.62209 13.1395L3.62577 13.1358C3.38662 13.1395 3.32039 13.3308 3.29648 13.5019C3.27073 13.673 3.3204 13.8551 3.34063 14.0611C3.75454 13.925 3.7619 13.5184 3.95689 13.2664C4.09486 13.0898 4.04152 12.8194 3.92195 12.6023L3.91459 12.6189C4.01577 12.5968 4.1151 12.5747 4.24019 12.5471C4.35057 12.7274 4.45543 12.8985 4.56397 13.0733C4.58236 13.0309 4.61547 12.9923 4.60995 12.9574C4.55293 12.549 4.3285 12.1663 4.40392 11.7616C5.23174 11.0994 6.20305 11.0626 7.20379 10.978C7.31049 11.1619 7.4411 11.3256 7.50916 11.5133C7.83293 12.411 8.44736 13.1229 9.00292 13.8698C9.12801 14.039 9.25494 14.1641 9.25862 14.3922C9.26046 14.4677 9.42602 14.5394 9.58239 14.6645C9.69828 14.2929 9.72588 13.9875 9.76451 13.6858C9.91167 12.4956 10.0496 11.3036 10.2134 10.1152C10.2851 9.59826 10.4065 9.08869 10.5206 8.57912C10.5647 8.37676 10.6218 8.17073 10.7156 7.98677C11.0725 7.28036 11.5876 7.05593 12.3381 7.33003C13.1439 7.62621 13.9312 7.97757 14.7369 8.31054C15.0957 8.29398 15.0589 7.89847 15.2741 7.69427C16.2197 7.52135 17.1781 7.60965 18.1328 7.79545C18.2874 7.82488 18.4382 7.86903 18.5946 7.88375C19.2329 7.93894 19.6008 8.37676 19.9338 8.84218C20.1435 9.13836 20.3036 9.46948 20.482 9.78774C20.6273 10.0453 20.7248 10.2899 20.4783 10.5659C20.3937 10.6615 20.3919 10.8584 20.4047 11.0055C20.4415 11.4231 20.425 11.8352 20.3404 12.2454C20.2171 12.8488 20.3146 13.4393 20.4176 14.0317C20.4526 14.2322 20.4912 14.4474 20.4562 14.6424C20.3882 15.0159 20.436 15.3709 20.5114 15.7315C20.6071 16.1987 20.6071 16.1987 21.1737 16.3257C21.2234 16.6329 21.2123 16.9254 21.0946 17.2344C21.0063 17.4644 21.0376 17.7403 21.0192 17.9942C21.0173 18.0181 21.0228 18.0549 21.0394 18.0659C21.4441 18.3639 21.3135 18.8845 21.5379 19.258C21.79 19.6756 21.7642 20.1024 21.5802 20.5347C21.4809 20.7701 21.3871 21.0074 21.2877 21.2558C20.5041 20.8161 19.9872 20.1796 19.5769 19.4475C19.4647 19.2451 19.4077 19.0115 19.3323 18.7907C19.1888 18.3731 19.0545 17.9519 18.7215 17.5968C18.1531 17.8084 17.5957 18.0163 17.0015 18.237C16.8304 18.914 16.5729 19.567 16.5195 20.2734C16.5103 20.4004 16.5048 20.5457 16.4404 20.6487C16.3245 20.8382 16.3043 21.024 16.3043 21.2411C16.3043 21.4122 16.2123 21.5906 16.1332 21.7525C16.0467 21.9309 15.8407 22.0082 15.6678 21.9144C15.5132 21.8316 15.3587 21.7194 15.2483 21.5832C14.7793 21.0074 14.667 20.3029 14.6284 19.5983C14.5622 18.3713 14.5419 17.1424 14.5015 15.9154C14.4978 15.7848 14.4849 15.6524 14.4996 15.5236C14.6358 14.2469 14.5695 12.9647 14.6284 11.688C14.6523 11.1656 14.6983 10.6431 14.7756 10.1281C14.8344 9.74175 14.8179 9.3867 14.5585 9.01511C14.5015 9.10157 14.4279 9.16963 14.4021 9.25425C13.9901 10.553 13.773 11.8959 13.5596 13.2351C13.4897 13.6693 13.5283 14.1218 13.5375 14.567C13.5614 15.6469 13.4124 16.6973 13.1089 17.7348C12.993 18.1285 12.9378 18.5645 12.9709 18.971C13.0261 19.6369 12.9249 20.2734 12.7704 20.9099C12.66 21.3662 12.5497 21.8242 12.4338 22.2804C12.3767 22.503 12.2369 22.6502 12.0033 22.6778C11.2527 22.7698 10.5077 22.9353 9.68173 22.8654C9.33956 22.481 8.96245 22.0836 8.61844 21.6587C8.25604 21.2116 7.92859 20.737 7.58091 20.2808C7.37855 20.0141 7.21298 19.7252 6.97016 19.4787C6.75124 19.2561 6.68502 18.8901 6.53233 18.5994C6.25271 18.0678 5.94734 17.549 5.67508 17.0137C5.39179 16.4544 5.13792 15.8805 4.8675 15.3157C4.79023 15.1538 4.7001 14.9975 4.61732 14.8393C4.09855 15.1336 4.09855 15.1336 3.66072 15.1446C3.43997 15.4978 3.44365 15.8731 3.51723 16.2686C3.58898 16.6531 3.61289 17.0468 3.67912 17.4349C3.73247 17.7422 3.78214 18.0567 3.89619 18.3455C4.01025 18.6362 4.16477 18.9029 4.16477 19.2341C4.16477 19.3481 4.26963 19.464 4.33034 19.5762C4.36713 19.6443 4.45175 19.7142 4.44255 19.7731C4.38 20.2164 4.63755 20.5715 4.73505 20.967C4.83806 21.3882 5.12504 21.6826 5.28877 22.0579C5.38811 22.2878 5.57574 22.4828 5.60518 22.7532C5.62173 22.9096 5.73211 22.939 5.86272 22.9924C5.94734 23.0255 5.99149 23.1947 6.02276 23.3106C6.05404 23.4284 6.00437 23.5866 6.06508 23.6749C6.53969 24.3629 7.0327 25.0398 7.84029 25.382C7.86052 25.3912 7.8918 25.3746 7.92675 25.3691C8.23028 25.0766 7.61218 24.9037 7.78326 24.6738C7.96354 24.8025 8.15118 24.9331 8.35906 25.0803C8.46391 25.0288 8.55589 24.992 8.64052 24.9423C8.81712 24.8375 9.00108 24.9074 9.01395 25.0601C9.03603 25.3305 9.40579 25.4022 9.33404 25.7168C9.32116 25.7775 9.49593 25.9136 9.6063 25.9652C10.1269 26.208 10.6402 26.4747 11.1828 26.6513C11.5452 26.7709 11.8911 27.0082 12.3068 26.9346L12.2848 26.9162C12.8348 27.2602 12.8072 27.2823 14.0121 26.6421C14.0747 26.6734 14.1703 26.6918 14.2071 26.747C14.3341 26.9383 14.4923 27.0156 14.7259 27.0156C15.631 27.0156 16.5416 27.137 17.4283 26.85C17.8348 26.9475 18.1936 26.5649 18.624 26.7396C18.705 26.7727 18.8724 26.5998 19.049 26.4913C19.1042 26.541 19.1796 26.6587 19.2789 26.6881C19.393 26.7212 19.5309 26.6752 19.6965 26.6587C19.6119 26.4784 19.5456 26.3386 19.4445 26.1178C19.6763 26.219 19.8142 26.2797 19.9522 26.3404L19.9338 26.3165C20.0902 26.4876 20.1362 26.4839 20.2741 26.2852L20.2447 26.3073C20.425 26.2724 20.62 26.2705 20.734 26.0866L20.7046 26.1086C20.8334 26.0719 20.9842 26.0663 21.0302 25.8989L21.0045 25.9247C21.1332 25.8879 21.2988 25.9044 21.3264 25.7131L21.3006 25.7389C21.6925 25.6763 22.0199 25.5145 22.2223 25.1539L22.2112 25.1796C22.3768 25.0564 22.5479 24.9405 22.7042 24.8044C22.9489 24.591 23.1494 24.35 22.9912 23.9692C23.3904 23.7926 23.6847 23.5553 23.9441 23.2609C24.2182 22.9519 24.5199 22.6649 24.8363 22.3982C25.1564 22.1278 25.4452 21.8408 25.5998 21.4434C25.609 21.4195 25.6274 21.3974 25.6476 21.3827C26.4699 20.7738 26.5968 19.8172 26.8728 18.9361C27.0291 18.4394 27.1855 17.9427 27.3308 17.4441C27.3805 17.2731 27.4155 17.0909 27.4173 16.9143C27.4228 16.368 27.421 15.8216 27.3971 15.2753C27.3823 14.9368 27.3308 14.6001 27.2793 14.2635C27.2388 14.0096 27.1211 13.7668 27.2113 13.4945C27.2389 13.4099 27.2021 13.2903 27.1653 13.1983C26.7293 12.0836 26.2859 10.9706 25.8481 9.8558C25.8205 9.7859 25.7837 9.66816 25.815 9.63505C26.1406 9.30944 25.8665 9.25793 25.6255 9.1402C25.5317 9.09421 25.4747 8.9268 25.4434 8.80355C25.2558 8.06403 25.1343 7.86168 24.5346 7.36498C24.4445 7.48824 24.3544 7.60965 24.2661 7.73106C24.1336 7.65932 24.0012 7.58758 23.8669 7.51399L23.8963 7.53791C23.7197 7.1148 23.4033 6.80759 23.0427 6.54453C22.5791 6.20788 22.1045 5.88411 21.6336 5.55666C21.549 5.49779 21.4625 5.42789 21.3669 5.39478C21.0376 5.2844 20.7561 5.10412 20.5206 4.85025C20.4066 4.72884 20.2631 4.65342 20.1012 4.70309C19.9559 4.74908 19.8271 4.83922 19.6707 4.727C19.3433 4.49153 18.8466 4.52465 18.613 3.98748C18.6755 3.94149 18.7767 3.86791 18.9055 3.77409C18.3646 3.55886 17.8827 3.32891 17.3363 3.20933C16.4772 3.01985 15.5942 2.93339 14.7553 2.63722C14.255 2.46062 13.7233 2.57283 13.1898 2.56731C13.4308 2.51397 13.6718 2.46062 13.9036 2.41095C13.9386 2.20859 13.9662 2.03935 13.9993 1.84619C13.9478 1.83699 13.8705 1.8002 13.8153 1.82044C13.6994 1.86459 13.5633 1.9161 13.4915 2.00808C13.1328 2.46062 12.6766 2.60595 12.1174 2.51764C11.9959 2.49925 11.8488 2.50661 11.7421 2.55812C11.5232 2.66665 11.3245 2.78255 11.1295 2.53236C10.8462 2.55812 10.5629 2.58203 10.2796 2.60778L10.2962 2.62066C10.3366 2.47717 10.3329 2.28218 10.4268 2.19939C10.5721 2.07246 10.734 1.91058 10.975 1.95105C11.0596 1.96577 11.3263 1.79652 11.4441 1.71006C11.6096 1.58681 11.7789 1.46539 11.9591 1.36238C12.0603 1.30351 12.1008 1.24832 12.1045 1.12507C12.1082 1.01469 12.2001 0.963184 12.3307 0.992618C12.6913 1.07172 12.9746 0.950307 13.1862 0.641255C12.752 0.681726 12.3289 0.722197 11.8819 0.764508C11.8028 0.576869 12.0199 0.495926 12.11 0.477531C12.7391 0.346919 13.3315 0.0764982 13.9864 0.0323478C15.1987 -0.0504341 16.3871 0.0047539 17.5368 0.446257C17.7796 0.540077 18.028 0.624698 18.2745 0.70932C19.7204 1.19865 21.0707 1.87562 22.3142 2.76047C22.6325 2.98674 22.9305 3.24429 23.2304 3.49631C23.5081 3.73178 23.7583 3.99484 24.1097 4.14201C24.2918 4.21743 24.439 4.39403 24.5825 4.54304C25.4747 5.46468 26.3007 6.43783 26.9353 7.55998C26.9979 7.6722 27.0917 7.76602 27.1763 7.87455C27.2628 7.87455 27.3363 7.87087 27.4099 7.87271C27.9489 7.88375 28.1697 8.19648 27.9673 8.67846C27.9195 8.79251 27.8275 8.88817 27.73 9.02798C28.613 10.5309 29.0582 12.1406 28.9938 14.0722C28.8871 13.8128 28.8246 13.7282 28.8191 13.6417C28.7878 12.9776 28.5726 12.3632 28.3444 11.7487C28.1439 11.2116 27.9452 10.6726 27.7429 10.1354C27.6969 10.014 27.6086 9.99745 27.5037 10.0674C27.4964 10.0195 27.4854 9.97353 27.4743 9.92754C27.4854 9.96986 27.4982 10.0103 27.5093 10.0526C27.6914 10.6248 27.8717 11.1969 28.052 11.769C28.0759 11.8444 28.0777 11.9345 28.1237 11.9916C28.5247 12.4864 28.4603 13.1156 28.6259 13.6785C28.5174 14.4879 28.7492 15.2845 28.7124 16.0902C28.6793 16.7911 28.7381 17.4957 28.5946 18.191C28.5891 18.2168 28.5983 18.2462 28.5873 18.2683C28.3389 18.7944 28.4088 19.3831 28.2525 19.9276C28.1678 20.2238 28.1329 20.5494 27.833 20.737C27.7024 21.1767 27.3253 21.5152 27.3474 22.0247C27.3547 22.2105 27.2223 22.4019 27.1561 22.5803C27.0015 22.5729 26.9022 22.5693 26.8139 22.5656C26.3687 23.0807 25.9217 23.5866 25.4894 24.1035C25.173 24.4824 24.8731 24.878 24.5659 25.2643L24.588 25.2404C24.4776 25.3066 24.336 25.3507 24.2642 25.4446C23.8411 25.9964 23.2653 26.3643 22.6987 26.7304C22.0199 27.1683 21.319 27.5748 20.6053 27.9538C19.9154 28.3217 19.1409 28.4431 18.3885 28.6123C18.3039 28.6307 18.2027 28.5682 18.1089 28.5498C17.936 28.5148 17.7612 28.4872 17.6233 28.4615C17.4724 28.5572 17.6748 28.7172 17.4724 28.7779C17.2756 28.8368 17.0622 28.5829 16.8929 28.8276C16.7237 28.7466 16.5545 28.6638 16.3448 28.5608C16.2656 28.7264 16.2031 28.857 16.1295 29.0097C16.2822 29.063 16.3999 29.1146 16.525 29.144C16.7715 29.201 16.8157 29.1513 16.8672 28.8055ZM21.0265 26.6164C21.1185 26.5483 21.2105 26.4784 21.3025 26.4103C21.3705 26.3239 21.4386 26.2393 21.5067 26.1528C21.6336 26.1418 21.7955 26.1914 21.8065 25.978C21.95 25.9376 22.0935 25.8971 22.237 25.8548C22.2499 25.7996 22.2609 25.7444 22.2738 25.6874C22.2535 25.6984 22.2186 25.7095 22.2186 25.7187C22.2204 25.7628 22.2333 25.807 22.2388 25.8511C22.0972 25.8842 21.9187 25.8143 21.8286 25.9964C21.7293 26.0553 21.6299 26.1123 21.5306 26.1712C21.3944 26.1951 21.3172 26.2687 21.3135 26.4103C21.17 26.3975 21.0339 26.3956 21.0302 26.5943C20.9805 26.6532 20.9309 26.7084 20.9088 26.5777C20.9474 26.5925 20.9861 26.6035 21.0265 26.6164ZM18.2947 16.7193C18.0482 15.9357 17.8919 15.6671 17.4559 15.2789C17.294 15.8658 17.1211 16.425 17.1615 17.0229C17.1634 17.0597 17.2314 17.0909 17.2719 17.1277C17.6453 17.113 17.9507 16.9291 18.2947 16.7193ZM23.4989 6.40656C23.5339 6.35689 23.5578 6.33665 23.5633 6.31273C23.6388 5.95953 23.0814 5.80317 23.2764 5.40397C23.28 5.39662 23.1586 5.29912 23.0887 5.28808C22.9176 5.26232 22.741 5.26416 22.4853 5.24945C22.8091 5.72958 23.1274 6.0883 23.4989 6.40656ZM23.8154 5.35246C24.0177 5.48492 24.1796 5.59529 24.3452 5.69463C24.3654 5.70567 24.4206 5.66152 24.4574 5.64128C24.2256 5.24577 24.2256 5.24577 23.8154 5.35246ZM27.4283 18.2756C27.5093 18.0586 27.5497 17.9942 27.5534 17.9261C27.5571 17.8691 27.5166 17.8084 27.4964 17.7495C27.4504 17.7992 27.3805 17.8433 27.3639 17.9004C27.3474 17.9629 27.3842 18.0383 27.4283 18.2756ZM14.6891 1.79652C14.6468 1.8186 14.5677 1.84987 14.5714 1.86275C14.5843 1.92345 14.6063 2.01359 14.6505 2.03199C14.7093 2.05591 14.7958 2.03567 14.862 2.01359C14.8823 2.00624 14.9007 1.90506 14.8859 1.89402C14.8289 1.84987 14.7553 1.82596 14.6891 1.79652ZM23.3996 4.45842C23.3628 4.43451 23.3279 4.41059 23.2911 4.38668C23.234 4.46762 23.1733 4.54672 23.1218 4.63134C23.1145 4.64422 23.131 4.69205 23.1476 4.69757C23.1862 4.71228 23.258 4.72884 23.269 4.71229C23.3205 4.63318 23.3573 4.54304 23.3996 4.45842ZM1.21038 17.8838C1.26924 17.893 1.32811 17.9004 1.38698 17.9096C1.35019 17.6796 1.3134 17.4497 1.2766 17.2215C1.23429 17.2271 1.19198 17.2344 1.14783 17.2399C1.16991 17.4533 1.19014 17.6686 1.21038 17.8838ZM2.90281 14.475C2.88625 14.5541 2.8421 14.6388 2.86418 14.6995C2.88073 14.7418 2.98743 14.751 3.05549 14.7657C3.05917 14.7675 3.10149 14.6792 3.08861 14.6627C3.0371 14.5946 2.97087 14.5394 2.90281 14.475ZM17.1321 2.05039C16.4919 1.94185 15.8499 1.83331 15.2097 1.72478C15.7634 1.89954 16.2951 2.07982 16.8819 2.24354C17.1579 2.32081 17.5405 2.36312 17.8753 2.42015C17.6288 2.29873 17.3804 2.17548 17.1321 2.05039ZM22.5516 4.88889C22.6215 4.92936 22.6822 4.96615 22.7447 5.00294C22.7557 4.98271 22.7833 4.94775 22.7778 4.94223C22.7355 4.89624 22.6895 4.85393 22.6417 4.8153C22.638 4.81346 22.6067 4.84474 22.5516 4.88889ZM23.0482 25.2128C23.0648 25.1944 23.0832 25.176 23.0997 25.1576C23.0574 25.1447 23.0151 25.1245 22.971 25.1189C22.9544 25.1171 22.936 25.1502 22.9176 25.1686C22.9618 25.1833 23.0041 25.198 23.0482 25.2128ZM1.38146 13.5019C1.3833 13.4651 1.38514 13.4283 1.38698 13.3915C1.34283 13.4044 1.30052 13.4173 1.25637 13.4301C1.27108 13.4632 1.27845 13.5019 1.30052 13.5276C1.30788 13.535 1.35386 13.5111 1.38146 13.5019ZM20.3753 26.8243C20.3569 26.8206 20.3385 26.8169 20.322 26.8132C20.3348 26.8316 20.3477 26.8482 20.3588 26.8666C20.3643 26.8537 20.3698 26.839 20.3753 26.8243ZM14.426 28.1874C14.3893 28.1672 14.3543 28.1451 14.3138 28.1322C14.3046 28.1304 14.2734 28.1653 14.2715 28.1837C14.2715 28.2021 14.301 28.2389 14.3102 28.2371C14.3506 28.2279 14.3874 28.2058 14.426 28.1874ZM20.907 3.66187C20.8904 3.67659 20.8554 3.70051 20.8591 3.70602C20.8757 3.74098 20.9014 3.77409 20.9253 3.8072C20.9382 3.77041 20.9566 3.73546 20.964 3.69867C20.9621 3.68947 20.9253 3.67475 20.907 3.66187ZM2.81635 13.6877H2.92121L2.86418 13.5534L2.81635 13.6877ZM16.6998 1.44332C16.9113 1.46172 17.1211 1.48195 17.3326 1.50035C17.1652 1.40653 17.007 1.30351 16.8249 1.22441C16.7403 1.18762 16.6097 1.19865 16.4993 1.18762C16.5673 1.27224 16.6336 1.3587 16.6998 1.44332ZM18.4695 1.61992C18.4474 1.65671 18.4272 1.69534 18.4051 1.73214C18.4897 1.78365 18.5743 1.83699 18.6608 1.88482C18.6737 1.89218 18.7215 1.87011 18.7252 1.85539C18.7362 1.81492 18.7491 1.74317 18.7325 1.73398C18.6498 1.68615 18.5578 1.65671 18.4695 1.61992ZM19.3249 2.21779C19.7425 2.37784 20.1141 2.52132 20.4857 2.66297C20.5832 2.65745 20.7874 2.65745 20.7598 2.64274C20.528 2.52132 20.2613 2.39623 19.978 2.27114C19.954 2.26378 19.7223 2.2509 19.3249 2.21779ZM16.5894 27.676C16.3282 27.7275 16.0688 27.7772 15.8094 27.8287C15.5924 27.9298 15.3734 28.031 15.1564 28.1322C14.8565 28.0494 14.5199 27.8324 14.3433 28.2076C13.9845 28.1672 13.6258 28.1248 13.2671 28.0844C13.199 28.1745 13.131 28.2665 13.0611 28.3566C13.1126 28.353 13.2046 28.3622 13.2119 28.3438C13.2395 28.2628 13.2432 28.1727 13.2634 28.0862C13.6129 28.1396 13.9717 28.4081 14.3083 28.1524C14.5787 28.1267 14.8492 28.1009 15.1177 28.0733C15.4452 28.1396 15.677 28.066 15.7892 27.8158C16.1093 27.9556 16.4183 28.0678 16.5692 27.7109C16.7237 27.6447 16.8764 27.584 16.8359 27.8397C16.7531 27.7845 16.6722 27.7293 16.5894 27.676ZM18.6626 27.8599C18.7933 27.8324 18.9772 27.7919 19.1943 27.7349C20.4452 27.4037 21.3816 26.8978 21.3724 26.8758C21.3687 26.8666 21.2234 26.9328 20.688 27.1149C20.688 27.1149 20.436 27.1995 20.149 27.2915C19.7167 27.4295 18.7381 27.7073 17.4319 28.0347C17.8422 27.9758 18.2524 27.9188 18.6626 27.8599Z" fill="#B0CC22"/>
<path d="M23.372 10.209C23.7914 10.5861 23.8135 11.0644 23.6773 11.5114C23.4842 12.1498 23.4621 12.79 23.4547 13.4449C23.4419 14.4879 23.4014 15.531 23.3867 16.574C23.3812 16.9383 23.4382 17.3043 23.4419 17.6686C23.4492 18.4762 23.4492 19.2856 23.4363 20.0932C23.4345 20.244 23.3775 20.4022 23.3113 20.5402C23.1365 20.9063 22.6821 20.9891 22.3951 20.6984C22.27 20.5733 22.1744 20.4059 22.1026 20.2422C21.8782 19.7363 21.755 19.2065 21.7402 18.6509C21.7145 17.6851 21.6777 16.7194 21.6538 15.7536C21.6501 15.5733 21.6869 15.3912 21.709 15.2109C21.7586 14.797 21.7881 14.3867 21.7292 13.9636C21.5986 13.0162 21.8101 12.0946 22.0162 11.1766C22.0438 11.0571 22.1155 10.9099 22.2112 10.8492C22.5828 10.6248 22.9728 10.4261 23.372 10.209Z" fill="#B0CC22"/>
<path d="M26.1112 11.8352C26.5601 12.5821 26.5233 13.4154 26.4994 14.2101C26.481 14.819 26.251 15.4279 26.0799 16.0258C26.0174 16.2429 25.8757 16.4507 25.7304 16.6273C25.5078 16.8978 25.1693 16.8996 24.8989 16.6678C24.6929 16.4912 24.5715 16.2649 24.5108 16.0037C24.347 15.2918 24.1759 14.5799 24.0214 13.8643C23.9092 13.34 23.9092 12.8267 24.2219 12.3539C24.634 11.7322 25.1546 11.5427 25.9052 11.7542C25.9787 11.7763 26.0505 11.8113 26.1112 11.8352Z" fill="#B0CC22"/>
<path d="M23.8742 7.5121C23.9239 7.68319 23.9533 7.86347 24.025 8.02535C24.2771 8.59747 23.635 9.43632 23.1457 9.55774C22.6453 9.68099 22.0751 9.20453 22.1247 8.67289C22.1615 8.28289 22.2811 7.9113 22.5331 7.59856C22.8219 7.238 23.1255 7.1681 23.5615 7.35942C23.6792 7.41093 23.7896 7.47715 23.9036 7.53786C23.9036 7.53602 23.8742 7.5121 23.8742 7.5121Z" fill="#B0CC22"/>
<path d="M26.4552 18.2278C26.4994 18.6564 26.481 18.9894 26.2676 19.2874C26.0542 19.5836 25.736 19.7215 25.3791 19.6406C25.024 19.5597 24.8603 19.2874 24.8106 18.9655C24.7352 18.4743 24.875 18.0254 25.2245 17.6685C25.6752 17.2087 26.2437 17.3742 26.4148 18.0015C26.4424 18.1027 26.4516 18.2076 26.4552 18.2278Z" fill="#B0CC22"/>
<path d="M5.25929 19.7657C5.5757 19.7381 5.82037 19.8577 5.89763 20.0784C5.97673 20.3029 5.8406 20.6984 5.6364 20.829C5.51867 20.9044 5.24089 20.8915 5.125 20.7885C4.91712 20.6046 4.8417 20.3654 4.88033 20.095C4.90425 19.9294 5.08637 19.7804 5.25929 19.7657Z" fill="#B0CC22"/>
<path d="M15.7855 23.5773C16.2178 23.6804 16.4404 23.9158 16.4882 24.3169C16.514 24.5321 16.3687 24.7197 16.1534 24.7602C15.8021 24.8246 15.4783 24.5008 15.5703 24.1623C15.6218 23.971 15.7064 23.7871 15.7855 23.5773Z" fill="#B0CC22"/>
<path d="M24.5714 25.2643C24.6689 25.2624 24.7683 25.2624 24.8934 25.2606C24.4519 25.9835 23.9129 26.5244 23.3923 26.7599C23.5192 26.4508 23.7749 26.3055 23.968 26.1105C24.2238 25.8529 24.5089 25.6193 24.5935 25.2403L24.5714 25.2643Z" fill="#B0CC22"/>
<path d="M9.3966 2.83957C9.56033 2.94443 9.7075 3.04193 9.85467 3.13575C9.74245 3.32523 9.66887 3.50367 9.42236 3.40985C9.37085 3.38961 9.29174 3.39881 9.24024 3.42457C9.1409 3.47792 9.0434 3.52023 8.9735 3.40433C8.88888 3.26636 8.95326 3.15782 9.07284 3.0732C9.17585 2.99962 9.27887 2.9242 9.3966 2.83957Z" fill="#B0CC22"/>
<path d="M9.06184 24.1586C8.90363 23.9453 8.73623 23.7319 8.58907 23.5056C8.56515 23.4688 8.6093 23.3529 8.65529 23.3106C8.70312 23.2664 8.80429 23.2315 8.86132 23.2499C9.09495 23.3253 9.30834 23.8202 9.2182 24.063C9.20533 24.0979 9.1391 24.1127 9.06184 24.1586Z" fill="#B0CC22"/>
<path d="M8.7619 2.88373C8.29096 3.38226 7.90464 3.64348 7.38955 3.84584C7.4245 3.7281 7.42819 3.62877 7.46314 3.61773C7.80898 3.49999 8.06285 3.25717 8.32775 3.02354C8.39029 2.96835 8.50067 2.96467 8.7619 2.88373Z" fill="#B0CC22"/>
<path d="M26.9519 14.5596C26.9335 14.9662 26.8047 15.3911 27.1359 15.737C27.0071 15.8197 26.9225 15.8749 26.8121 15.9467C26.8139 15.6928 26.8213 15.4665 26.8158 15.2421C26.8103 15.0195 26.79 14.7969 26.7753 14.5743C26.8342 14.5688 26.893 14.5633 26.9519 14.5596Z" fill="#B0CC22"/>
<path d="M0.356812 15.5273C0.296106 15.0527 -0.134364 14.6627 0.042237 14.0961C0.48558 14.5302 0.312662 15.0619 0.356812 15.5273Z" fill="#B0CC22"/>
<path d="M6.14238 21.3275C6.24724 21.4765 6.35026 21.5648 6.37233 21.6715C6.4036 21.8187 6.22884 21.9659 6.07432 21.9383C5.94187 21.9162 5.80022 21.8316 5.84437 21.6899C5.88116 21.5667 6.01545 21.4747 6.14238 21.3275Z" fill="#B0CC22"/>
<path d="M14.5567 30.7757C14.4187 30.6451 14.2789 30.5733 14.2734 30.4924C14.2661 30.3985 14.3544 30.2587 14.4408 30.2072C14.5586 30.1373 14.7223 30.2127 14.7333 30.3397C14.7444 30.4537 14.6413 30.5807 14.5567 30.7757Z" fill="#B0CC22"/>
<path d="M25.1637 9.77666C24.9761 9.52279 24.7774 9.35907 24.8068 8.9654C24.989 9.2395 25.1141 9.42713 25.2336 9.61661C25.241 9.62581 25.2171 9.65708 25.1637 9.77666Z" fill="#B0CC22"/>
<path d="M20.2944 28.5627C20.024 28.7834 19.7849 28.9177 19.474 28.868C19.4188 28.6878 19.5439 28.6179 19.6561 28.5976C19.8474 28.5645 20.0442 28.5737 20.2944 28.5627Z" fill="#B0CC22"/>
<path d="M11.5857 24.9846C11.5378 25.0398 11.4808 25.1502 11.3925 25.2017C11.295 25.2587 11.1258 25.1336 11.135 25.0104C11.1423 24.9295 11.2049 24.8228 11.2729 24.7823C11.3833 24.7161 11.536 24.8044 11.5857 24.9846Z" fill="#B0CC22"/>
<path d="M22.7484 1.33478C22.6086 1.47459 22.5424 1.58313 22.4486 1.62176C22.34 1.66775 22.1726 1.52242 22.2002 1.41388C22.2223 1.3311 22.3014 1.20969 22.3676 1.20233C22.4633 1.19129 22.5681 1.26672 22.7484 1.33478Z" fill="#B0CC22"/>
<path d="M19.9559 26.3386C20.0093 26.2595 20.0461 26.1399 20.1215 26.1068C20.414 25.9762 20.7175 25.8731 21.0174 25.7591L20.9916 25.7407C20.9972 25.7996 21.0008 25.8603 21.0063 25.9191L21.0321 25.8934C20.896 25.921 20.7267 25.8952 20.7065 26.1031L20.7359 26.081C20.5409 26.0829 20.3533 26.1013 20.2466 26.3018L20.276 26.2797C20.162 26.2907 20.0498 26.2999 19.9357 26.311C19.9375 26.3165 19.9559 26.3404 19.9559 26.3386Z" fill="#B0CC22"/>
<path d="M6.9794 24.1072C7.12657 24.2396 7.27373 24.3702 7.41906 24.5063C7.43378 24.5192 7.42826 24.5523 7.43378 24.5818C7.33076 24.7473 7.21303 24.6278 7.13577 24.5671C7.02539 24.4824 6.94445 24.3573 6.85063 24.2506C6.9003 24.2083 6.95181 24.1679 7.00148 24.1256C7.00148 24.1274 6.9794 24.1072 6.9794 24.1072Z" fill="#B0CC22"/>
<path d="M15.2097 24.624C15.2226 24.8172 15.103 24.9423 14.9706 24.9055C14.8896 24.8834 14.7976 24.8025 14.7664 24.7252C14.7204 24.613 14.8547 24.429 14.9595 24.4566C15.0625 24.4861 15.149 24.5817 15.2097 24.624Z" fill="#B0CC22"/>
<path d="M1.19756 12.2252C1.07799 12.3411 0.960256 12.457 0.807569 12.6041C0.71191 12.3521 0.752383 12.1663 0.94738 12.0044C1.03384 12.0909 1.10927 12.1663 1.18469 12.2381C1.18837 12.2344 1.19756 12.2252 1.19756 12.2252Z" fill="#B0CC22"/>
<path d="M1.05589 21.9346C1.15523 22.0854 1.25825 22.1756 1.26744 22.2731C1.27848 22.4055 1.16627 22.4956 1.02462 22.5048C0.903207 22.514 0.763395 22.3687 0.803867 22.2547C0.840659 22.1553 0.939996 22.0781 1.05589 21.9346Z" fill="#B0CC22"/>
<path d="M26.3798 1.70266C26.492 1.85534 26.5877 1.93812 26.6116 2.03746C26.6226 2.08161 26.4957 2.20303 26.4202 2.21222C26.3503 2.22142 26.2013 2.1184 26.2069 2.07977C26.2179 1.97308 26.2952 1.87374 26.3798 1.70266Z" fill="#B0CC22"/>
<path d="M3.92747 12.6042C3.84101 12.4515 3.73799 12.3061 3.67729 12.1443C3.65521 12.0835 3.73247 11.986 3.79134 11.837C4.03049 12.1259 3.9146 12.3797 3.92011 12.617C3.92011 12.6207 3.92747 12.6042 3.92747 12.6042Z" fill="#B0CC22"/>
<path d="M6.00805 18.2591C5.93079 18.3511 5.89399 18.4357 5.84432 18.4449C5.70084 18.4725 5.60518 18.3805 5.58311 18.248C5.57575 18.2002 5.6714 18.0862 5.6898 18.0935C5.78914 18.1266 5.88112 18.1892 6.00805 18.2591Z" fill="#B0CC22"/>
<path d="M21.2639 28.1948C21.0486 28.2904 20.8996 28.364 20.7451 28.421C20.7212 28.4302 20.6531 28.375 20.6402 28.3364C20.6255 28.2959 20.6347 28.2224 20.6623 28.1948C20.8224 28.0439 20.9953 27.9869 21.2639 28.1948Z" fill="#B0CC22"/>
<path d="M17.3123 29.1808C17.3951 29.0961 17.4613 28.995 17.557 28.9471C17.5883 28.9306 17.6894 29.0502 17.7575 29.1072C17.6251 29.2727 17.5036 29.3206 17.3123 29.1808Z" fill="#B0CC22"/>
<path d="M12.4558 3.28844C12.3546 3.4025 12.316 3.48712 12.2608 3.49816C12.2019 3.51103 12.11 3.4724 12.0713 3.42457C12.0492 3.39698 12.0971 3.26085 12.1302 3.25533C12.2111 3.23693 12.2994 3.26821 12.4558 3.28844Z" fill="#B0CC22"/>
<path d="M17.7907 23.0936C17.6583 23.1469 17.5939 23.1727 17.5295 23.1966C17.5001 23.112 17.4669 23.0273 17.4467 22.939C17.4449 22.9298 17.5405 22.8746 17.5589 22.8875C17.6307 22.9354 17.6895 22.9997 17.7907 23.0936Z" fill="#B0CC22"/>
<path d="M7.14308 20.152C7.10445 20.1668 7.05478 20.2035 7.02718 20.1907C6.99223 20.176 6.97568 20.1208 6.94992 20.0821C6.99039 20.0674 7.03822 20.0306 7.06765 20.0417C7.10077 20.0564 7.11732 20.1134 7.14308 20.152Z" fill="#B0CC22"/>
<path d="M5.97307 4.94774C5.93628 5.00477 5.90132 5.05996 5.86637 5.11331C5.84062 5.07652 5.79831 5.0434 5.79463 5.00477C5.79095 4.96246 5.82038 4.91463 5.83694 4.87048C5.87373 4.89072 5.91236 4.91279 5.97307 4.94774Z" fill="#B0CC22"/>
<path d="M6.27483 4.4915C6.37049 4.55589 6.42384 4.59268 6.47903 4.62763C6.40912 4.67914 6.3429 4.74169 6.26563 4.77848C6.2362 4.79136 6.17918 4.74537 6.13502 4.72513C6.17918 4.65339 6.22148 4.58164 6.27483 4.4915Z" fill="#B0CC22"/>
<path d="M6.68314 3.91761C6.7696 3.98016 6.82479 4.02063 6.88182 4.0611C6.83951 4.10709 6.80272 4.16964 6.74937 4.19355C6.7181 4.20827 6.61691 4.16044 6.61875 4.14572C6.62243 4.0795 6.65187 4.01511 6.68314 3.91761Z" fill="#B0CC22"/>
<path d="M19.4923 7.49553C19.6524 7.4385 19.7186 7.40171 19.7866 7.39619C19.8271 7.39251 19.8713 7.4385 19.9136 7.46242C19.8731 7.49001 19.8345 7.536 19.7903 7.53968C19.7259 7.5452 19.6579 7.52313 19.4923 7.49553Z" fill="#B0CC22"/>
<path d="M4.87302 8.51473C4.81415 8.65086 4.75344 8.78515 4.64859 9.02614C4.55845 8.66558 4.65043 8.54968 4.89509 8.53129L4.87302 8.51473Z" fill="#B0CC22"/>
<path d="M7.17803 4.73253C7.11733 4.7914 7.05294 4.85395 6.98856 4.91649C6.94625 4.8705 6.86163 4.7914 6.86898 4.78404C6.92601 4.7123 6.99959 4.65159 7.06766 4.58904C7.09525 4.62584 7.12285 4.66263 7.17803 4.73253Z" fill="#B0CC22"/>
<path d="M22.2664 6.22074C22.2075 6.28513 22.1597 6.34767 22.1523 6.34399C22.0751 6.29616 22.0033 6.2373 21.9297 6.18211C21.961 6.15083 22.0052 6.08829 22.0217 6.09565C22.1045 6.12508 22.1781 6.17475 22.2664 6.22074Z" fill="#B0CC22"/>
<path d="M0.87001 21.3864C0.781709 21.4434 0.724684 21.5096 0.671335 21.5078C0.627185 21.5059 0.54808 21.4176 0.553598 21.3772C0.559117 21.3275 0.636384 21.2502 0.684214 21.2502C0.735723 21.2466 0.787228 21.3201 0.87001 21.3864Z" fill="#B0CC22"/>
<path d="M27.4099 3.30314C27.4448 3.32889 27.478 3.3528 27.5111 3.37856C27.4669 3.41903 27.4209 3.45766 27.3768 3.49813C27.3547 3.46318 27.3106 3.42271 27.3161 3.39328C27.3253 3.35648 27.3768 3.33257 27.4099 3.30314Z" fill="#B0CC22"/>
<path d="M7.00148 24.1274C6.98493 24.0795 6.96837 24.0317 6.95365 23.9839C6.92054 23.868 6.84328 23.7447 7.00516 23.6638C7.01988 23.6564 7.05299 23.6675 7.06955 23.6803C7.21671 23.7797 7.16337 23.8901 7.08058 23.9986C7.04931 24.0391 7.01068 24.0722 6.97757 24.109C6.97941 24.1071 7.00148 24.1274 7.00148 24.1274Z" fill="#B0CC22"/>
<path d="M6.14977 27.0229C6.19576 27.0358 6.27854 27.0505 6.27854 27.0597C6.27486 27.1222 6.25094 27.1848 6.23439 27.2455C6.1792 27.205 6.12401 27.1627 6.07066 27.1222C6.09642 27.0891 6.12401 27.056 6.14977 27.0229Z" fill="#B0CC22"/>
<path d="M3.62766 13.1414C3.60743 13.0273 3.58535 12.9114 3.56512 12.7973C3.58535 12.7955 3.60558 12.7918 3.62582 12.79C3.62766 12.9059 3.6295 13.0236 3.63134 13.1395C3.63134 13.1377 3.62766 13.1414 3.62766 13.1414Z" fill="#B0CC22"/>
<path d="M21.0174 25.7609C21.0155 25.5255 21.0376 25.5107 21.308 25.577L21.2897 25.5567C21.2933 25.6156 21.2988 25.6745 21.3025 25.7352L21.3283 25.7094C21.2161 25.7205 21.1039 25.7315 20.9916 25.7425L21.0174 25.7609Z" fill="#B0CC22"/>
<path d="M4.19607 17.9224C4.25678 17.9555 4.31381 17.9703 4.31749 17.9923C4.32485 18.0567 4.31013 18.1248 4.30461 18.191C4.2715 18.1745 4.21447 18.1634 4.20895 18.1395C4.1924 18.077 4.19975 18.0089 4.19607 17.9224Z" fill="#B0CC22"/>
<path d="M4.52714 17.6244C4.48483 17.6244 4.44436 17.6244 4.40205 17.6244C4.40205 17.6042 4.40205 17.5674 4.40205 17.5674C4.44252 17.5637 4.48484 17.5655 4.52531 17.5655C4.52715 17.5858 4.52714 17.6042 4.52714 17.6244Z" fill="#B0CC22"/>
<path d="M10.2869 2.60959C10.2759 2.67949 10.274 2.75491 10.2483 2.81746C10.2373 2.84322 10.171 2.84505 10.1306 2.85609C10.1287 2.81562 10.1103 2.75675 10.1287 2.73652C10.1784 2.68869 10.2446 2.65926 10.3035 2.62062C10.3035 2.62246 10.2869 2.60959 10.2869 2.60959Z" fill="#B0CC22"/>
<path d="M20.6384 5.20716C20.5721 5.22556 20.5114 5.25867 20.4912 5.24212C20.4415 5.20348 20.4121 5.14278 20.3735 5.08943C20.4139 5.08023 20.4654 5.0508 20.4912 5.06551C20.5445 5.09679 20.5832 5.15198 20.6384 5.20716Z" fill="#B0CC22"/>
<path d="M22.8349 24.2414C22.8146 24.2562 22.7944 24.2709 22.776 24.2838C22.7594 24.2598 22.741 24.2359 22.7245 24.212C22.7484 24.2047 22.7742 24.1863 22.7962 24.1899C22.8091 24.1936 22.8201 24.223 22.8349 24.2414Z" fill="#B0CC22"/>
<path d="M21.9058 25.2017C21.9904 24.9552 22.1026 25.0748 22.213 25.1778L22.2241 25.152C22.1118 25.1631 21.9996 25.1741 21.8874 25.1851L21.9058 25.2017Z" fill="#B0CC22"/>
<path d="M21.6096 25.3875C21.6354 25.2091 21.7734 25.2109 21.9058 25.1999L21.8874 25.1833C21.8709 25.3765 21.72 25.3581 21.5894 25.3691L21.6096 25.3875Z" fill="#B0CC22"/>
<path d="M0.204183 13.855C0.194985 13.8054 0.187629 13.7557 0.178431 13.706C0.196827 13.7024 0.215221 13.7005 0.233617 13.6968C0.215221 13.7428 0.198663 13.7907 0.180267 13.8366L0.204183 13.855Z" fill="#B0CC22"/>
<path d="M6.59121 19.8227C6.56913 19.8172 6.5489 19.8117 6.52682 19.8062C6.54706 19.7841 6.56545 19.7583 6.59121 19.7418C6.59673 19.7381 6.62433 19.7657 6.64088 19.7804C6.62616 19.7933 6.6096 19.808 6.59121 19.8227Z" fill="#B0CC22"/>
<path d="M21.308 25.577C21.3282 25.3838 21.4754 25.3967 21.6115 25.3893L21.5912 25.3709C21.5655 25.5549 21.4202 25.542 21.2914 25.5586L21.308 25.577Z" fill="#B0CC22"/>
<path d="M12.3087 26.9346C12.2995 26.885 12.2792 26.8353 12.2848 26.7875C12.2866 26.7654 12.3344 26.747 12.362 26.7268C12.3675 26.7507 12.3841 26.782 12.3749 26.7967C12.351 26.839 12.316 26.8758 12.2848 26.9144C12.2866 26.9162 12.3087 26.9346 12.3087 26.9346Z" fill="#B0CC22"/>
<path d="M3.9514 10.8474C3.92013 10.8621 3.88886 10.8749 3.85759 10.8897C3.85391 10.8474 3.84839 10.805 3.85207 10.7627C3.85391 10.748 3.8815 10.737 3.89806 10.7241C3.91462 10.7664 3.93301 10.8069 3.9514 10.8474Z" fill="#B0CC22"/>
<path d="M4.89506 8.53128C4.90426 8.4577 4.91345 8.38595 4.92265 8.31237C4.93737 8.32525 4.96865 8.34732 4.96681 8.351C4.93737 8.40619 4.90426 8.45954 4.87298 8.51289C4.87298 8.51473 4.89506 8.53128 4.89506 8.53128Z" fill="#B0CC22"/>
<path d="M4.32483 16.0221C4.30276 16.0516 4.28068 16.1031 4.25861 16.1049C4.22734 16.1067 4.19422 16.0699 4.16663 16.046C4.16295 16.0424 4.18871 15.989 4.19606 15.989C4.23837 15.9945 4.27884 16.0092 4.32483 16.0221Z" fill="#B0CC22"/>
<path d="M4.24384 7.66482C4.22177 7.69609 4.20153 7.75128 4.18313 7.75128C4.14266 7.74944 4.10219 7.72001 4.06172 7.70161C4.07827 7.68322 4.09299 7.65194 4.11139 7.65194C4.15186 7.64643 4.19417 7.65746 4.24384 7.66482Z" fill="#B0CC22"/>
<path d="M11.0007 2.80093C10.9786 2.81381 10.9565 2.83588 10.9344 2.83588C10.9142 2.83588 10.894 2.81565 10.8719 2.80461C10.9161 2.80277 10.9584 2.80093 11.0007 2.80093Z" fill="#B0CC22"/>
<path d="M0.178328 13.8367C0.139696 13.8808 0.102905 13.925 0.0642737 13.9691C0.0624341 13.9452 0.0550739 13.9066 0.0624323 13.9011C0.104743 13.879 0.152573 13.8679 0.200402 13.8532C0.204081 13.8551 0.178328 13.8367 0.178328 13.8367Z" fill="#B0CC22"/>
<path d="M2.44473 9.52646C2.40058 9.43816 2.39139 9.30571 2.50728 9.34986C2.6103 9.38849 2.56247 9.50622 2.42634 9.51358L2.44473 9.52646Z" fill="#B0CC22"/>
</svg>
