<svg width="11" height="12" viewBox="0 0 11 12" fill="none" xmlns="http://www.w3.org/2000/svg">
<path d="M5.25 0C4.25544 0 3.30161 0.395088 2.59835 1.09835C1.89509 1.80161 1.5 2.75544 1.5 3.75V5.25C1.10218 5.25 0.720644 5.40804 0.43934 5.68934C0.158035 5.97064 0 6.35218 0 6.75V10.5C0 10.8978 0.158035 11.2794 0.43934 11.5607C0.720644 11.842 1.10218 12 1.5 12H9C9.39782 12 9.77936 11.842 10.0607 11.5607C10.342 11.2794 10.5 10.8978 10.5 10.5V6.75C10.5 6.35218 10.342 5.97064 10.0607 5.68934C9.77936 5.40804 9.39782 5.25 9 5.25H3V3.75C2.99981 3.20223 3.19946 2.67321 3.5615 2.26214C3.92354 1.85107 4.4231 1.58619 4.9665 1.51717C5.50991 1.44815 6.05982 1.57974 6.51313 1.88725C6.96644 2.19476 7.29199 2.65708 7.42875 3.1875C7.47848 3.38015 7.6027 3.54515 7.77408 3.64621C7.85894 3.69625 7.95283 3.72908 8.05038 3.74284C8.14793 3.75659 8.24724 3.751 8.34262 3.72638C8.43801 3.70175 8.52762 3.65858 8.60632 3.59933C8.68503 3.54008 8.75129 3.4659 8.80133 3.38104C8.85137 3.29618 8.88421 3.20229 8.89796 3.10474C8.91172 3.00719 8.90612 2.90789 8.8815 2.8125C8.6734 2.00757 8.20382 1.29457 7.5465 0.785502C6.88919 0.27643 6.08139 0.000129337 5.25 0Z" fill="#CCFD5D"/>
</svg>
