<svg width="100" height="21" viewBox="0 0 100 21" fill="none" xmlns="http://www.w3.org/2000/svg">
<path d="M46.9988 2.79389H41.0919V20.3608H45.0291V13.7741H46.9988C49.1711 13.7741 50.9336 11.8067 50.9336 9.38062V7.18505C50.9336 4.7613 49.1711 2.79389 46.9988 2.79389ZM46.0139 9.38062H45.0291V7.18505H46.0139C46.5564 7.18505 46.9988 7.67631 46.9988 8.284C46.9988 8.88935 46.5564 9.38062 46.0139 9.38062Z" fill="#EDEDED"/>
<path d="M61.9138 7.18505V2.79389H52.0721V20.3608H61.9138V15.9674H56.0093V13.7741H59.9464V9.38062H56.0093V7.18505H61.9138Z" fill="#EDEDED"/>
<path d="M69.2037 2.79389V8.36549L67.2363 2.79389H63.2968V20.3608H67.2363V14.7776L69.2037 20.3608H73.1409V2.79389H69.2037Z" fill="#EDEDED"/>
<path d="M79.6787 7.18505H83.518V2.79389H78.596C76.4214 2.79389 74.6589 4.7613 74.6589 7.18505V9.07562C74.6589 11.1687 75.9837 12.9708 77.8254 13.3806L78.7125 13.5785C79.2177 13.6926 79.5809 14.1862 79.5809 14.7613C79.5809 15.0826 79.4668 15.3899 79.2643 15.6158C79.0617 15.8416 78.787 15.9674 78.4983 15.9674H74.6589V20.3608H79.5809C81.7555 20.3608 83.518 18.3934 83.518 15.9674V14.0791C83.518 11.986 82.1932 10.1839 80.3539 9.7741L79.4668 9.5762C78.9616 9.46211 78.596 8.96852 78.596 8.3911C78.596 8.07212 78.7101 7.76479 78.9127 7.53894C79.1152 7.3131 79.3923 7.18505 79.6787 7.18505Z" fill="#EDEDED"/>
<path d="M88.9686 7.18505V9.38062H92.9057V13.7741H88.9686V15.9674H94.8731V20.3608H85.0314V2.79389H94.8731V7.18505H88.9686Z" fill="#EDEDED"/>
<path d="M96.0629 16.191V19.0246H97.0477L96.0629 20.4402H99.0175L100 19.0246V16.191H96.0629Z" fill="#EDEDED"/>
<path d="M5.90454 2.79389V8.36549L3.93714 2.79389H0V20.3608H3.93714V14.7776L5.90454 20.3608H9.84168V2.79389H5.90454Z" fill="#EDEDED"/>
<path d="M22.3073 16.9755L21.4086 12.5843L19.4039 2.79389H14.3725L12.3678 12.5843L11.4691 16.9755L10.7753 20.3608H14.8149L15.5087 16.9755H18.27L18.9615 20.3608H23.0011L22.3073 16.9755ZM16.4074 12.5843L16.8894 10.2328L17.3713 12.5843H16.4074Z" fill="#EDEDED"/>
<path d="M29.5041 2.79389H27.5367C25.362 2.79389 23.5995 4.7613 23.5995 7.18505V15.9674C23.5995 18.3934 25.362 20.3608 27.5367 20.3608H29.5041C31.6787 20.3608 33.4412 18.3934 33.4412 15.9674V7.18505C33.4412 4.7613 31.6787 2.79389 29.5041 2.79389ZM29.5041 14.8707C29.5041 15.4761 29.064 15.9674 28.5215 15.9674C27.9767 15.9674 27.5367 15.4761 27.5367 14.8707V8.284C27.5367 7.67631 27.9767 7.18505 28.5215 7.18505C29.064 7.18505 29.5041 7.67631 29.5041 8.284V14.8707Z" fill="#EDEDED"/>
<path d="M19.518 0L14.3003 0.00465669V1.28056L19.5203 1.27357L19.518 0Z" fill="#EDEDED"/>
</svg>
