<svg width="11" height="12" viewBox="0 0 11 12" fill="none" xmlns="http://www.w3.org/2000/svg">
<path fill-rule="evenodd" clip-rule="evenodd" d="M1.5 5.25V3.75C1.5 2.75544 1.89509 1.80161 2.59835 1.09835C3.30161 0.395088 4.25544 0 5.25 0C6.24456 0 7.19839 0.395088 7.90165 1.09835C8.60491 1.80161 9 2.75544 9 3.75V5.25C9.39783 5.25 9.77936 5.40804 10.0607 5.68934C10.342 5.97064 10.5 6.35218 10.5 6.75V10.5C10.5 10.8978 10.342 11.2794 10.0607 11.5607C9.77936 11.842 9.39783 12 9 12H1.5C1.10218 12 0.720644 11.842 0.43934 11.5607C0.158035 11.2794 0 10.8978 0 10.5V6.75C0 6.35218 0.158035 5.97064 0.43934 5.68934C0.720644 5.40804 1.10218 5.25 1.5 5.25ZM7.5 3.75V5.25H3V3.75C3 3.15326 3.23705 2.58097 3.65901 2.15901C4.08097 1.73705 4.65326 1.5 5.25 1.5C5.84674 1.5 6.41903 1.73705 6.84099 2.15901C7.26295 2.58097 7.5 3.15326 7.5 3.75Z" fill="#B6B8B8"/>
</svg>
