<svg width="8" height="9" viewBox="0 0 8 9" fill="none" xmlns="http://www.w3.org/2000/svg">
<path d="M5.38389 7.88607C5.38389 7.83994 5.38389 7.80565 5.38389 7.77136C5.38389 7.40008 5.38441 7.0288 5.38354 6.65753C5.38319 6.47998 5.31143 6.40931 5.13371 6.40862C4.97336 6.40809 4.81301 6.40844 4.6488 6.40844C4.64476 6.38251 4.6395 6.36336 4.63897 6.34404C4.62459 5.88886 4.60968 5.43386 4.5988 4.97851C4.5981 4.94614 4.62003 4.89618 4.64617 4.88278C5.13178 4.63248 5.46933 4.24083 5.72704 3.77365C5.76582 3.70333 5.81547 3.6579 5.88582 3.62204C6.34354 3.38966 6.7688 3.11029 7.13775 2.7519C7.53529 2.36582 7.7302 1.89672 7.71336 1.3446C7.69932 0.87915 7.37582 0.565488 6.90546 0.556785C6.7509 0.554 6.59617 0.556263 6.43073 0.556263C6.42354 0.445732 6.41599 0.340076 6.40968 0.23442C6.4002 0.070278 6.32669 0.000130547 6.1602 0.000130547C4.62529 -4.35158e-05 3.09055 -4.35158e-05 1.55564 0.000130547C1.38757 0.000130547 1.31442 0.0683633 1.30406 0.232331C1.2974 0.336073 1.29038 0.43964 1.28301 0.551389C1.24863 0.553129 1.21757 0.555914 1.18635 0.556089C1.05775 0.556611 0.928977 0.553826 0.80038 0.556959C0.337574 0.568099 0.0182753 0.875495 0.00143307 1.33467C-0.0192685 1.89342 0.178802 2.36809 0.58196 2.75764C0.95389 3.11708 1.38336 3.39489 1.84161 3.633C1.89424 3.66033 1.94529 3.7089 1.97424 3.76024C2.24108 4.233 2.58073 4.63317 3.07599 4.88556C3.09775 4.8967 3.11968 4.93395 3.11898 4.9585C3.10634 5.43665 3.09038 5.9148 3.07477 6.40844C3.00336 6.40844 2.93494 6.40844 2.86634 6.40844C2.76985 6.40844 2.67336 6.40792 2.57687 6.40862C2.40564 6.40984 2.33301 6.4819 2.33266 6.65405C2.33178 7.02828 2.33231 7.40234 2.33231 7.77658C2.33231 7.8107 2.33231 7.84481 2.33231 7.88607C2.26898 7.88607 2.2167 7.88502 2.16442 7.88624C2.07371 7.88833 2.00599 7.93028 1.97213 8.01331C1.87652 8.24707 1.78056 8.48084 1.69213 8.71739C1.63529 8.86917 1.74494 8.9992 1.92161 8.99937C3.11441 8.99955 4.30722 8.99955 5.49985 8.99955C5.60511 8.99955 5.71038 9.00077 5.81564 8.9992C5.9788 8.99676 6.07687 8.85682 6.01862 8.70486C5.93441 8.48537 5.84617 8.26726 5.7588 8.04881C5.7095 7.92558 5.65143 7.88694 5.51985 7.88607C5.47933 7.88589 5.43862 7.88607 5.38389 7.88607ZM6.01143 0.406742C6.01424 0.443992 6.01862 0.472538 6.0181 0.50091C6.01354 0.76479 6.01985 1.02937 6.00108 1.2922C5.94529 2.06922 5.77178 2.81752 5.40862 3.51429C5.16915 3.97365 4.85055 4.35693 4.35705 4.56772C4.20968 4.63073 4.17792 4.68191 4.18319 4.8424C4.19775 5.28591 4.21319 5.7296 4.22722 6.17311C4.22968 6.24761 4.22757 6.32246 4.22757 6.4027C3.97933 6.4027 3.73582 6.4027 3.48389 6.4027C3.48389 6.36353 3.48301 6.32959 3.48406 6.29548C3.49968 5.81419 3.51582 5.33291 3.53143 4.85179C3.53705 4.67895 3.50722 4.63126 3.35091 4.56442C3.14722 4.47739 2.96652 4.35659 2.8074 4.20358C2.52933 3.93657 2.33722 3.61264 2.18477 3.26469C1.79231 2.36896 1.66406 1.42728 1.69845 0.458439C1.69898 0.441903 1.70617 0.425715 1.71091 0.406742C3.14301 0.406742 4.57213 0.406742 6.01143 0.406742ZM4.97231 7.88102C4.22792 7.88102 3.48792 7.88102 2.74424 7.88102C2.74424 7.52523 2.74424 7.1738 2.74424 6.82045C3.4902 6.82045 4.22985 6.82045 4.97231 6.82045C4.97231 7.17728 4.97231 7.5268 4.97231 7.88102ZM1.6495 3.05094C1.27336 2.82152 0.909152 2.5794 0.652135 2.21648C0.466697 1.95451 0.389855 1.65669 0.408627 1.33694C0.417924 1.17767 0.481959 1.04712 0.644591 0.994206C0.854415 0.925973 1.07038 0.971578 1.28827 0.961656C1.31354 1.68123 1.42284 2.37348 1.6495 3.05094ZM6.42704 0.959393C6.5874 0.959393 6.73599 0.958349 6.88441 0.959567C7.15529 0.962004 7.30196 1.10526 7.30722 1.37419C7.31529 1.78967 7.1795 2.15556 6.87248 2.43684C6.64178 2.64815 6.38073 2.82674 6.13266 3.01908C6.11389 3.03353 6.09003 3.04136 6.0495 3.0619C6.29283 2.37296 6.40161 1.68001 6.42704 0.959393ZM5.5309 8.58197C4.40775 8.58197 3.30178 8.58197 2.18301 8.58197C2.21319 8.50608 2.24441 8.4408 2.26459 8.37222C2.28459 8.30469 2.32126 8.28624 2.39143 8.28641C3.36757 8.28902 4.34371 8.28815 5.31985 8.28815C5.3374 8.28815 5.35634 8.28415 5.37213 8.28937C5.39196 8.29598 5.41862 8.30591 5.42582 8.32175C5.46231 8.40338 5.49336 8.48728 5.5309 8.58197Z" fill="#CCFD5D"/>
</svg>
