<svg width="13" height="12" viewBox="0 0 13 12" fill="none" xmlns="http://www.w3.org/2000/svg">
<path fill-rule="evenodd" clip-rule="evenodd" d="M6.73815 0.237895C6.89052 0.0855729 7.09715 3.87435e-06 7.3126 3.87435e-06C7.52805 3.87435e-06 7.73467 0.0855729 7.88704 0.237895L12.7621 5.11296C12.9144 5.26533 13 5.47196 13 5.68741C13 5.90286 12.9144 6.10948 12.7621 6.26185L7.88704 11.1369C7.7338 11.2849 7.52856 11.3668 7.31552 11.365C7.10248 11.3631 6.8987 11.2777 6.74805 11.127C6.5974 10.9764 6.51195 10.7726 6.5101 10.5595C6.50825 10.3465 6.59015 10.1413 6.73815 9.98803L10.2263 6.49992L0.812509 6.49992C0.597018 6.49992 0.390352 6.41431 0.237976 6.26194C0.0856009 6.10956 -1.93718e-06 5.9029 -1.93718e-06 5.68741C-1.93718e-06 5.47192 0.0856009 5.26525 0.237976 5.11288C0.390352 4.9605 0.597018 4.8749 0.812509 4.8749L10.2263 4.8749L6.73815 1.38679C6.58583 1.23442 6.50026 1.02779 6.50026 0.812341C6.50026 0.596893 6.58583 0.390264 6.73815 0.237895Z" fill="#1D1E1E"/>
</svg>
