<svg width="13" height="12" viewBox="0 0 13 12" fill="none" xmlns="http://www.w3.org/2000/svg">
<path fill-rule="evenodd" clip-rule="evenodd" d="M6.73816 0.237833C6.89052 0.0855108 7.09715 -5.81153e-05 7.3126 -5.81153e-05C7.52805 -5.81153e-05 7.73468 0.0855108 7.88705 0.237833L12.7621 5.1129C12.9144 5.26526 13 5.47189 13 5.68734C13 5.90279 12.9144 6.10942 12.7621 6.26179L7.88705 11.1368C7.7338 11.2849 7.52856 11.3668 7.31552 11.3649C7.10249 11.363 6.8987 11.2776 6.74805 11.127C6.59741 10.9763 6.51196 10.7725 6.5101 10.5595C6.50825 10.3464 6.59015 10.1412 6.73816 9.98796L10.2263 6.49985L0.812516 6.49985C0.597025 6.49985 0.390359 6.41425 0.237984 6.26187C0.0856086 6.1095 5.81153e-06 5.90283 5.81153e-06 5.68734C5.81153e-06 5.47185 0.0856086 5.26519 0.237984 5.11281C0.390359 4.96043 0.597025 4.87483 0.812516 4.87483L10.2263 4.87483L6.73816 1.38672C6.58583 1.23435 6.50026 1.02773 6.50026 0.812278C6.50026 0.59683 6.58583 0.390201 6.73816 0.237833Z" fill="#CCFD5D"/>
</svg>
