<svg width="10" height="9" viewBox="0 0 10 9" fill="none" xmlns="http://www.w3.org/2000/svg">
<path d="M7.33462 8.99828C6.79086 9.01816 6.28619 8.83492 5.78152 8.65631C4.83216 8.31964 3.95901 7.84977 3.18229 7.19996C2.38536 6.53326 1.69612 5.77211 1.0884 4.93177C0.744443 4.45626 0.423019 3.96849 0.222543 3.41313C-0.184372 2.28582 -0.0538147 1.25793 0.784869 0.355624C1.03008 0.0918573 1.3177 -0.023789 1.67127 0.00404562C1.77035 0.011667 1.87042 0.0239273 1.96884 0.016306C2.1945 -0.000925014 2.34063 0.106768 2.42579 0.300948C2.59644 0.689639 2.7598 1.08164 2.92482 1.47299C3.02755 1.71687 3.12198 1.96473 3.23067 2.20596C3.31086 2.38391 3.30854 2.5476 3.19223 2.70533C3.00568 2.95816 2.82177 3.21331 2.62825 3.46084C2.47085 3.66231 2.45296 3.74747 2.58551 3.96849C3.31351 5.18228 4.30761 6.09254 5.6165 6.65619C6.13575 6.87986 6.15066 6.7957 6.42437 6.46798C6.61523 6.23967 6.79947 6.00506 6.98106 5.76913C7.16364 5.5322 7.2763 5.48449 7.54835 5.60974C8.18988 5.90433 8.82477 6.21316 9.46232 6.51636C9.62402 6.59323 9.69394 6.71716 9.69261 6.89974C9.68698 7.70596 9.35363 8.30506 8.62496 8.68216C8.21804 8.8929 7.79622 9.00888 7.33462 8.99828Z" fill="#EDEDED"/>
</svg>
