<svg width="10" height="9" viewBox="0 0 10 9" fill="none" xmlns="http://www.w3.org/2000/svg">
<path fill-rule="evenodd" clip-rule="evenodd" d="M5.18318 0.182996C5.30039 0.0658254 5.45934 2.98028e-06 5.62507 2.98028e-06C5.7908 2.98028e-06 5.94974 0.0658254 6.06695 0.182996L9.81701 3.93305C9.93418 4.05026 10 4.20921 10 4.37494C10 4.54067 9.93418 4.69961 9.81701 4.81682L6.06695 8.56688C5.94907 8.68073 5.79119 8.74372 5.62732 8.7423C5.46344 8.74088 5.30668 8.67514 5.1908 8.55926C5.07492 8.44338 5.00919 8.28662 5.00776 8.12274C5.00634 7.95887 5.06933 7.80099 5.18318 7.68311L7.86635 4.99995L0.62499 4.99995C0.459227 4.99995 0.300253 4.9341 0.183041 4.81688C0.0658294 4.69967 -1.98685e-05 4.5407 -1.98685e-05 4.37494C-1.98685e-05 4.20917 0.0658294 4.0502 0.183041 3.93299C0.300253 3.81578 0.459227 3.74993 0.62499 3.74993L7.86635 3.74993L5.18318 1.06676C5.06601 0.949554 5.00019 0.790609 5.00019 0.624879C5.00019 0.459149 5.06601 0.300203 5.18318 0.182996Z" fill="#0F0F0F"/>
</svg>
