<svg width="13" height="12" viewBox="0 0 13 12" fill="none" xmlns="http://www.w3.org/2000/svg">
<path fill-rule="evenodd" clip-rule="evenodd" d="M6.73814 0.237833C6.89051 0.085511 7.09714 -5.81154e-05 7.31259 -5.81154e-05C7.52804 -5.81154e-05 7.73466 0.085511 7.88703 0.237833L12.7621 5.11291C12.9144 5.26528 13 5.47191 13 5.68736C13 5.9028 12.9144 6.10943 12.7621 6.2618L7.88703 11.1369C7.73379 11.2849 7.52855 11.3668 7.31551 11.3649C7.10247 11.3631 6.89868 11.2776 6.74804 11.127C6.59739 10.9763 6.51194 10.7725 6.51009 10.5595C6.50824 10.3465 6.59014 10.1412 6.73814 9.98798L10.2263 6.49987L0.812487 6.49987C0.596995 6.49987 0.390329 6.41426 0.237954 6.26189C0.0855779 6.10951 -2.51833e-05 5.90285 -2.51833e-05 5.68736C-2.51833e-05 5.47186 0.0855779 5.2652 0.237954 5.11282C0.390329 4.96045 0.596995 4.87484 0.812487 4.87484L10.2263 4.87484L6.73814 1.38673C6.58582 1.23436 6.50025 1.02773 6.50025 0.81228C6.50025 0.596832 6.58582 0.390202 6.73814 0.237833Z" fill="#CCFD5D"/>
</svg>
