<svg width="10" height="9" viewBox="0 0 10 9" fill="none" xmlns="http://www.w3.org/2000/svg">
<path d="M7.33484 8.99854C6.79105 9.01842 6.28637 8.83517 5.78168 8.65656C4.8323 8.31988 3.95913 7.84999 3.18239 7.20017C2.38543 6.53344 1.69617 5.77228 1.08843 4.93191C0.744465 4.45639 0.423031 3.96861 0.22255 3.41322C-0.184378 2.28589 -0.0538163 1.25797 0.784892 0.355634C1.03011 0.0918599 1.31774 -0.0237897 1.67132 0.00404574C1.7704 0.0116673 1.87047 0.023928 1.96889 0.0163064C2.19456 -0.00092504 2.34069 0.106771 2.42586 0.300957C2.59652 0.689659 2.75988 1.08168 2.92491 1.47303C3.02763 1.71692 3.12208 1.96479 3.23077 2.20603C3.31096 2.38398 3.30864 2.54767 3.19233 2.70541C3.00576 2.95825 2.82185 3.21341 2.62833 3.46094C2.47092 3.66242 2.45303 3.74758 2.58558 3.96861C3.31361 5.18243 4.30773 6.09272 5.61666 6.65638C6.13592 6.88006 6.15084 6.79589 6.42455 6.46816C6.61542 6.23985 6.79967 6.00523 6.98126 5.7693C7.16385 5.53236 7.27651 5.48465 7.54857 5.6099C8.19011 5.9045 8.82503 6.21334 9.46259 6.51654C9.6243 6.59342 9.69422 6.71736 9.6929 6.89994C9.68726 7.70618 9.3539 8.3053 8.62521 8.68241C8.21828 8.89316 7.79644 9.00914 7.33484 8.99854Z" fill="#EDEDED"/>
</svg>
