<svg width="18" height="18" viewBox="0 0 18 18" fill="none" xmlns="http://www.w3.org/2000/svg">
<path d="M0 18C0.425897 16.442 0.843413 14.9157 1.25441 13.412C1.06971 13.0087 0.880664 12.6294 0.719555 12.2386C0.244612 11.0838 0.033215 9.87753 0.0847449 8.63181C0.185942 6.19284 1.12279 4.12295 2.88971 2.43923C4.22762 1.16433 5.82194 0.384555 7.64659 0.108591C9.67675 -0.198416 11.6026 0.143358 13.3925 1.16185C15.1252 2.14805 16.3915 3.56482 17.1927 5.38916C17.6465 6.42255 17.8784 7.50933 17.9153 8.63864C17.9681 10.2525 17.6058 11.7699 16.8363 13.1848C16.1087 14.523 15.0979 15.6057 13.8156 16.4333C12.857 17.0517 11.8193 17.4714 10.6996 17.688C8.78956 18.0574 6.95156 17.8231 5.198 16.9908C4.87019 16.8353 4.5905 16.7959 4.23569 16.8955C2.89281 17.273 1.54 17.6145 0.190598 17.9683C0.142794 17.9808 0.0928158 17.9848 0 18ZM2.92478 13.1453C2.68048 14.0415 2.44053 14.9212 2.19343 15.8286C2.27383 15.814 2.32381 15.8084 2.37161 15.796C3.18678 15.5846 4.00132 15.3695 4.81835 15.1649C4.90216 15.1438 5.01205 15.1637 5.09152 15.2022C5.30074 15.3031 5.49538 15.4341 5.70398 15.5359C7.17165 16.252 8.71134 16.483 10.3202 16.1862C12.221 15.8357 13.7606 14.879 14.9114 13.3344C16.1046 11.7329 16.5721 9.92161 16.3095 7.93678C16.0767 6.17732 15.2978 4.68792 13.99 3.49373C12.4299 2.06921 10.5804 1.42695 8.46983 1.56881C6.92735 1.67218 5.53729 2.20579 4.35769 3.19945C2.27756 4.95178 1.37796 7.19891 1.68869 9.90981C1.80261 10.9038 2.13787 11.8288 2.64975 12.689C2.73915 12.8399 2.83073 12.9895 2.92478 13.1453Z" fill="#EDEDED"/>
</svg>
